<svg id="Layer_1" data-name="Layer 1" xmlns="http://www.w3.org/2000/svg" viewBox="0 0 1000 1000"><defs><style>.cls-1{fill:#fff;}.cls-2{fill:#d92e27;}.cls-3{fill:#faaf43;}.cls-4{fill:#1d4591;}.cls-5{fill:#90c34a;}.cls-6{fill:#f9d8cd;}.cls-7{fill:#010101;}</style></defs><path class="cls-1" d="M671.47,345.75v-1.86H328.53v1.86s-.32,176.6-.32,205.46c0,66.42,58.66,136.87,165.43,198.32l6.2,4,6.52-4c106.46-61.14,165.43-131.9,165.43-198.63C671.79,522.35,671.47,345.75,671.47,345.75Z"/><path class="cls-2" d="M500.16,751.7V516.14c0-.31,169.76,0,169.76,0v36c-.31,112.35-168.83,196.77-169.76,199.56"/><rect class="cls-3" x="556.33" y="347.3" width="27.62" height="65.49"/><rect class="cls-2" x="583.95" y="347.3" width="27.62" height="65.49"/><rect class="cls-3" x="611.89" y="347.3" width="28.55" height="65.49"/><rect class="cls-2" x="640.13" y="347.3" width="28.55" height="65.49"/><rect class="cls-2" x="528.71" y="347.3" width="27.62" height="65.49"/><rect class="cls-3" x="500.78" y="347.3" width="27.93" height="65.18"/><rect class="cls-4" x="330.39" y="345.75" width="169.77" height="170.08"/><polyline class="cls-1" points="538.02 536 538.02 531.04 540.5 531.04 540.5 533.83 542.99 533.83 542.99 531.04 545.47 531.04 545.47 533.83 547.64 533.83 547.64 531.04 549.81 531.04 549.81 536 538.02 536"/><polyline class="cls-1" points="555.4 535.69 555.4 531.04 557.88 531.04 557.88 533.83 560.37 533.83 560.37 531.04 562.85 531.04 562.85 533.83 565.02 533.83 565.02 531.04 567.19 531.04 567.19 535.69 555.4 535.69"/><polyline class="cls-1" points="572.47 535.69 572.47 530.73 574.95 530.73 574.95 533.52 577.13 533.52 577.13 530.73 579.61 530.73 579.61 533.52 582.09 533.52 582.09 530.73 584.26 530.73 584.26 535.69 572.47 535.69"/><polyline class="cls-1" points="540.81 568.28 533.99 615.14 588.92 615.14 581.78 568.28 540.81 568.28"/><polyline class="cls-1" points="533.36 562.07 533.36 549.04 589.54 549.04 589.54 562.07 581.78 568.28 540.81 568.28 533.36 562.07"/><polyline class="cls-1" points="523.74 624.76 523.74 654.56 598.54 654.56 598.54 625.08 588.61 615.14 533.67 615.14 523.74 624.76"/><polyline class="cls-1" points="538.02 548.42 539.57 540.04 538.02 536 549.81 536 548.57 540.04 549.81 548.42 538.02 548.42"/><polyline class="cls-1" points="555.4 548.42 556.64 540.04 555.4 535.69 567.19 535.69 565.64 540.04 567.19 548.42 555.4 548.42"/><polyline class="cls-1" points="572.47 548.11 573.71 540.04 572.47 535.69 584.26 535.69 582.71 540.04 584.26 548.11 572.47 548.11"/><path class="cls-1" d="M538,548.42h4.34v-4c.31-2.79,3.11-2.79,3.42,0v4h4L548.57,540h-9Z"/><path class="cls-1" d="M555.4,548.42h4.34v-4c.31-2.79,3.11-2.79,3.42,0v4h4L566,540h-9Z"/><path class="cls-1" d="M572.47,548.11h4.34v-4c.31-2.79,3.11-2.79,3.42,0v4h4L583,539.73h-9.31Z"/><path class="cls-3" d="M415.12,451.89h11.17c-2.48,4.66-4.66,9,0,15.52,5,6.52,20.48,23.9.31,41.28H414.81m.31-56.8H403.94c2.49,4.66,4.66,9,0,15.52-5,6.52-20.48,23.9-.62,41.28h11.8m26.07-25.14c-2.8-4-2.8-6.52-.62-11.48,2.17-4.66,12.1-15.83,8.07-24.52-4.35-8.69-15.52-9-20.18-2.17a8.86,8.86,0,0,0,0,8.69,5.68,5.68,0,0,0,5.28,2.17c2.48-.31,2.79-2.79,2.79-4a4.93,4.93,0,0,0-2.79-2.79,14.48,14.48,0,0,0-2.49.62c0-2.48.32-3.1,1.25-4.34.93-.93,2.79-2.18,6.82-1.24,3.73.93,7.14,6.51,5.9,9.62-.93,3.1-1.55,6.51-11.17,10.55,2.48,2.17,3.41,1.55,5,1.55-4.34,7.14-6.82,14.59.31,22.35,2.18,1.86,5.59,2.17,7.14-.62a5.21,5.21,0,0,0,0-5.28,4.5,4.5,0,0,0-3.72-.93,5.55,5.55,0,0,0-1.55,1.86m-52.45,0c2.79-4,2.79-6.52.62-11.48-2.18-4.66-12.11-15.83-7.76-24.52s15.52-8.69,20.17-2.17c2.17,4.34.62,7.76-.31,8.69a5.68,5.68,0,0,1-5.28,2.17,3.23,3.23,0,0,1-2.48-4,3.7,3.7,0,0,1,2.79-2.48,14,14,0,0,1,2.49.62c0-2.48-.31-3.1-1.24-4.34-.94-.93-2.8-2.49-6.83-1.55s-7.14,6.51-6.21,9.62,1.55,6.51,10.86,10.55c-2.48,2.17-3.41,1.55-5,1.55,4.34,7.14,6.83,14.59-.62,22.35-2.18,1.55-5.59,1.86-7.14-.62a4.5,4.5,0,0,1,.31-5.28,4.93,4.93,0,0,1,4-.93,5.64,5.64,0,0,1,1.56,1.86"/><path class="cls-1" d="M405.81,478.59c-.63-3.11-1.56-5,1.86-8.38.62,5.58,1.24,7.44,5.27,8.69s14.59,6.51,16.14,10.24c1.86,4,.31,7.14-3.1,5.58-3.73-1.24-6.52-4-9-7.13-2.48-2.8-7.76-6.21-8.69-6.83-1.24-.62-4.66-.62-6.83.62.93-3.11,2.17-4.35,4-4.66A6.68,6.68,0,0,0,405.81,478.59Z"/><path class="cls-1" d="M405.18,498.76c.94,2.79,2.8,4.34,4.66,4.65a10.49,10.49,0,0,1-.62-7.44c.62-2.8,2.48-6.52,5.28-8.38a112.47,112.47,0,0,0,9.31-7.45c2.17-2.49,2.17-4.35-1.56-4.66s-9.31.93-13,9-2.48,9-4.35,12.11a19.78,19.78,0,0,1-4.34,3.72,13.26,13.26,0,0,0,5.9.31A13.83,13.83,0,0,1,405.18,498.76Z"/><path class="cls-1" d="M419.46,490.07c-5,2.17-5.27,1.86-9,0s-5.28-3.11-9-3.11c-3.41,0-3.1,2.49-2.79,3.42s2.79,5,9.31,6.52c6.21,1.55,9-.62,10.24-1.24a29.39,29.39,0,0,0,4-2.8l-2.79-2.79"/><path class="cls-1" d="M425.67,485.1c1.24-1.86,1.24-2.79.93-5.58,2.17,1.86,2.17,3.1,2.17,5a5,5,0,0,1,4.66,2.8,6.91,6.91,0,0,0-5,.62A10.56,10.56,0,0,0,425.67,485.1Z"/><path class="cls-1" d="M409.22,420.55a3.81,3.81,0,0,0-1.55.62c-1.55-2.8-2.49-8.07,1.55-10.86,4,3.72,4.34,6.82,2.79,10.55a2.34,2.34,0,0,0-1.24-.31h-1.55"/><path class="cls-5" d="M398.67,415.89a5.77,5.77,0,0,1,4.65,1.24c-1.86-5-5.89-14.27-5.89-15.2A41.82,41.82,0,0,0,398.67,415.89Z"/><path class="cls-5" d="M422.88,427.07c5.27-6.83,8.06-9.94,15.2-14.59-2.17,12.1-5.27,15.52-7.45,17.69-2.48,2.17-7.13,7.76-7.75,12.72h-5.59c.31-6.2,1.86-10.24,2.48-10.86Z"/><path class="cls-5" d="M423.5,403.17c-.62,1.86-4,8.69-5.9,12.1l-3.73,13.35-1.55,10.55a25.82,25.82,0,0,1-.31,3.72h3.42c.31-1.24-.31-6.51,2.79-12.1C418.22,430.79,425.36,413.41,423.5,403.17Z"/><polygon class="cls-1" points="426.91 347.92 431.56 350.1 426.91 351.03 429.39 353.51 425.05 353.2 427.84 356.92 423.5 355.06 424.74 359.41 421.32 356.3 421.63 360.34 418.53 358.48 417.29 363.44 415.43 360.03 414.19 362.51 412.94 359.41 409.22 362.82 409.22 358.48 406.12 360.34 405.81 356.3 403.01 358.48 403.01 355.99 399.91 357.54 400.84 354.13 396.49 355.06 399.29 351.34 394.94 351.03 400.22 347.92 382.22 348.23 386.56 352.89 380.05 355.06 385.01 357.23 376.94 359.72 383.46 361.89 376.32 365.61 382.22 366.55 373.84 373.06 383.15 372.13 375.7 379.58 382.53 378.65 376.32 387.34 385.32 383.93 380.67 392.93 389.05 387.96 388.74 394.79 393.39 391.06 393.08 396.65 397.43 392.93 398.36 397.27 402.7 394.48 403.63 400.37 408.29 395.72 410.77 401 414.19 396.03 418.22 400.37 420.08 395.41 424.12 399.75 425.67 393.55 430.01 399.13 430.94 391.68 437.46 397.89 434.98 387.96 442.12 393.55 438.7 382.99 444.91 387.03 441.81 380.82 448.32 384.24 442.12 374.61 449.88 378.34 446.15 371.82 455.15 373.06 443.05 366.55 451.74 366.55 443.05 361.58 450.5 361.27 441.5 357.23 450.19 356.3 439.63 352.58 446.46 348.23 426.91 347.92"/><path class="cls-1" d="M406.12,423a17.48,17.48,0,0,0-.31,2.17,2.83,2.83,0,0,0-2.8,0,14,14,0,0,1-5.89-9c8.06-.31,10.55,5.28,10.55,5.28L406.12,423"/><path class="cls-1" d="M410.15,428.62a4.35,4.35,0,1,0-4.34-4.35A4.25,4.25,0,0,0,410.15,428.62Z"/><path class="cls-2" d="M409.84,426.13a1.86,1.86,0,1,0-1.86-1.86,2,2,0,0,0,1.86,1.86"/><path class="cls-1" d="M415.74,424c2.48-1.24,6.51-2.48,8.07-8.69-4.66-.93-8.07.31-9.94,3.1a19,19,0,0,0-1.86,2.18,2.42,2.42,0,0,1,1.24.93l.62,1.24"/><path class="cls-1" d="M414.19,424.89v-1.24c5.27.62,7.75,1.86,9.93,6.21a14.41,14.41,0,0,1-6.52.93c-.93,0-4.35-2.17-4.66-3.41a2.31,2.31,0,0,0,.93-.94l.32-1.55"/><path class="cls-5" d="M433.74,433a100.6,100.6,0,0,1,9.62-4s14-5.9,23.9-4.35c0,0,7.76.93,9.62,0s-6.21,6.83-15.52,5.59a42.19,42.19,0,0,0-9,.31c-3.41.62-7.45,1.55-6.83,1.24a23.67,23.67,0,0,1,4.35-.31c.93,0,6.51.31,9.31,1.55a26.7,26.7,0,0,1,8.69,6.21c2.48,2.79,2.79,3.72,3.72,4,.62.62.62.62,1.55.62a3.75,3.75,0,0,1,2.49,1.56c.62.93,1.55.62,2.79.62,1.24.31,2.48,1.24,4,3.1s4.35,2.17,5.28,2.17c-3.41,3.11-5.28,3.11-5.28,3.11-.93-3.42-2.17-6.21-5.89-7.14,2.48,1.24,4,2.79,4.34,4.34.62,1.56.31,2.49.62,3.73a5.21,5.21,0,0,0,2.18,2.79c-4.35-.93-7.45-1.86-8.07-5.27-.62-3.11-1.87-4-1.87-4a29,29,0,0,1,1.25,5.28,4.39,4.39,0,0,0,2.17,2.48c.62.31,3.72,1.86,5.27,1.86-5.89,0-9.62-.31-10.24-8.69-.31,2.48-.31,4.66.62,6.21A6,6,0,0,0,475,458.1c-2.18,2.48-6.52,2.79-6.52,2.79,1.86-3.41,1.24-5.58.62-8.06s-.31-2.49.31-3.73-.31-1.86-.31-2.79a11,11,0,0,1,.31-1.86c0-.63-.93-.94-1.55-1.87a42,42,0,0,0-7.45-6.82c-4.35-2.8-7.45-3.11-11.79-3.42-3.73-.62-13.35,2.48-16.45,3.42,0,0,27.62-8.38,34.14,14.27,0,0,.62,4.35,0,6.83,0,0-5.28-3.72-6.21-5,0,0-14-22-33.21-9.93l-3.72-.31a18.28,18.28,0,0,1,4.65-8.69,50.75,50.75,0,0,1,9-8.07c3.42-2.48,14.28-11.48,15.83-13.34,2.79-3.11,7.14-5.28,8.69-6.21,3.72-2.48,11.79-2.17,11.79-2.17q-7,4.65-8.38,6.51c-.93,1.56-6.82,6.52-8.69,7.76s-5,3.73-6.51,5a29.13,29.13,0,0,1-4.66,3.1c-1.24,0-11.17,5.59-10.86,5.59"/><path class="cls-5" d="M408.6,442.89h-1.86c-3.42-6.2-9.31-8.69-15.21-10.86s-6.83-2.48-12.11-4-10.55-3.42-11.79-5.28-3.41-5.28-3.41-5.28a44.17,44.17,0,0,0,10.55,3.42c1.86.31,5.28,1.24,6.52,1.55a75.79,75.79,0,0,1,18,8.69s4,3.1,5,4.66c.62,1.86-1.24-2.8-1.24-2.8l-2.79-3.1c-7.14-6.21-9.31-8.07-12.11-9.31-9-4.35-9-6.52-10.86-10.87a32.76,32.76,0,0,1,12.73,5c1.55.93,1.86,1.24,3.41,2.17,3.1,1.87,8.69,9,8.69,9"/><path class="cls-5" d="M402.08,425.51a42.4,42.4,0,0,1,9.31,17.07H408.6"/><path class="cls-5" d="M395.25,437a18.35,18.35,0,0,0-8.69-1.24,19.08,19.08,0,0,0-9.31,3.41c-4,2.48-7.45,7.14-6.52,15.83a53.61,53.61,0,0,0,6.21-5.9c1.86-2.79,3.42-5.28,5.59-6.83,5.9-5,13.65-4.34,19.24.93h3.72c-3.41-5.58-6.82-6.82-11.79-9a28.3,28.3,0,0,0-18.93,0c-3.1.93-5.28,1.56-11.17,6.21-3.73,3.1-5.28,6.21-6.21,6.83-.93.31-2.48.93-2.48.93-2.18.93-4.35,2.48-5.59,7.45-.93,4-.93,9.62.93,7.76a11.78,11.78,0,0,0,3.1-6.21c.31-2.17.31-3.1,1.56-4a8.46,8.46,0,0,1,2.17-1.25c-.31,1.25-.93,1.56-1.24,2.18a3.61,3.61,0,0,0-.62,2.17c-.31,1.55-1.56,5.59-2.8,6.83s-1.24,4,1.55,1.86,7.14-4.66,6.83-10.55c-.31-3.73-.93-4.66,1.24-8.38,1.87-3.42,11.49-9.93,17.69-10.55,2.8-.32,8.38-2.18,15.52,1.55"/><path class="cls-1" d="M406.43,426.75a4.3,4.3,0,0,0,1.24,1.25c-1.86,3.41-2.18,5.58-9.62,6.2,1.24-5.27,2.17-8.07,4-8.69a5.33,5.33,0,0,1,3.73-.31v.62l.62.93"/><path class="cls-1" d="M410.77,428.31a4.37,4.37,0,0,0,1.55-.93c2.49,4,1.55,8.06-1.24,11.79-5.27-3.41-4.34-8.38-3.41-11.48a1.92,1.92,0,0,0,1.24.62h1.86"/><path class="cls-3" d="M403.94,446.31h22v5.89h-22Zm-.62,62.38h23v3.41h-23Zm-3.1-160.77h26.69l4.66,2.18-5,.93,2.79,2.79-4.34-.62,2.79,4-4.34-1.86,1.24,4-3.73-2.8.31,3.73-3.1-1.86-1.24,5L415.43,360l-1.56,2.48-1.24-2.79-3.72,3.1.31-4-3.1,1.55-.31-3.73-2.8,1.87V356l-3.1,1.86.93-3.41-4.35.93,2.8-4-4-.31Zm.93,17.69-3.72,3.11v18a27.79,27.79,0,0,0,5.89,3.1,9.4,9.4,0,0,0,4.35.62s3.72,0,5.27,1.55a15.32,15.32,0,0,1,5.28-1.55,20.58,20.58,0,0,0,4-.31s2.8.31,6.52-2.79V367.48l-.93.62v-1.56l-1.24.63v-1.25l-1.24.62v17.38a6.39,6.39,0,0,1-3.42,1.56,8.33,8.33,0,0,1-3.1,0c-1.86-.31-5.28,1.24-5.28,1.24s-3.72-1.55-5.89-1.24c0,0-4,0-6.21-1.87l-.31-18"/><path class="cls-1" d="M407.05,367.17c-2.18-.32-4.66-1.56-5.9-1.87v18.94c1.86,2.17,5.59,1.86,5.59,1.86a10.84,10.84,0,0,1,6.2,1.24s4-1.86,7.14-1.24a10.7,10.7,0,0,0,5-1.86v-17.7a12.47,12.47,0,0,1-4.66,1.25s-4.65-1.25-7.14.62l-3.41-.93C410.15,367.17,407.67,367.17,407.05,367.17Z"/><path class="cls-6" d="M407.05,359.1c2.79-4.35,2.48-6.52,2.48-6.52v-4.66h9.62a15.06,15.06,0,0,0-.93,5.28c1.24,9.31.31,9,.31,9-1.55,3.72-3.1,8.07-3.1,8.07l.62,4c.62,1.87-.93,5-2.49,5.28-1.55,0-1.55-2.17-1.55-2.17s.31.31-.62-2.18-1.55-8.38-1.55-8.38a8.72,8.72,0,0,0-2.48-.31A10.18,10.18,0,0,1,403,365.3c.62-1.55,3.42-6.51,3.42-6.51l.62.31"/><path class="cls-1" d="M361.73,446c-2.17,3.41-1.55,4.34-1.24,8.38.31,5.89-4,8.38-6.83,10.55s-2.79-.62-1.55-1.86,2.49-5.28,2.8-6.83a6.12,6.12,0,0,1,.62-2.17c.31-.62.93-.93,1.24-2.18a8.46,8.46,0,0,0-2.17,1.25c-1.25.93-1.25,2.17-1.56,4a10.79,10.79,0,0,1-3.1,6.21c-1.86,1.86-1.55-3.73-.93-7.76.93-5,3.1-6.52,5.59-7.45,0,0,1.55-.62,2.48-.93l1.55-1.86Zm108,2.48c-.62.62.31.31-.31,1.55s-.93,1.55-.31,3.73a10.73,10.73,0,0,1-.62,8.07s4.34-.31,6.52-2.8a6,6,0,0,1-2.18-2.17c-.93-1.55-.93-3.72-.62-6.21.31,8.38,4.35,8.69,10.24,8.69-1.24,0-4.65-1.55-5.27-1.86A4.39,4.39,0,0,1,475,455a29,29,0,0,0-1.25-5.28s1.25.62,1.87,4c.62,3.1,3.72,4.34,8.07,5.27-.31-.31-1.87-1.55-2.18-2.79s0-2.17-.62-3.73-2.17-2.79-4.34-4.34c3.72.93,5,3.41,5.89,7.14,0,0,1.87,0,5.28-3.11a7.91,7.91,0,0,1-5.28-2.17,9.85,9.85,0,0,0-4-3.1c-1.24-.31-2.17.31-2.79-.62C475.33,445.38,471.6,446.31,469.74,448.48Z"/><path class="cls-2" d="M356.46,559.9c2.17.31,3.72-1.24,5-2.48a4.77,4.77,0,0,1,5-1.55c2.17.62,2.79.62,3.72,0s.62-.94,3.11-.94c-3.11-3.41-5.28-2.48-8.07-1.86s-5.28-.93-6.52-3.72l-2.17.31c-1.24-1.24-4-.31-4-.31s-5,1.86-5.27-1.86,1.24-4,1.24-4c.93,0,2.17-2.17,2.17-2.17.31-2.48,2.17-2.17,2.17-2.17.93-.63,5.28,1.24,5.28,1.24s0,.62,2.79.31,2.49-2.18,2.49-2.18c-.31-2.79-3.73-1.86-3.73-1.86,2.17-3.1,9.62.62,9.62.62,3.11-4,8.07-2.17,8.07-2.17,3.73-4,8.69-1.86,8.69-1.86,0-4.35,7.76-6.21,7.76-6.21,1.24-.31,3.73-4.34,3.73-4.34,4.65,12.1-3.73,13-3.73,13l3.73-.62a9.26,9.26,0,0,0,6.82-7.14c.93,7.76.31,10.24-2.48,13a8,8,0,0,0,4.35-.62c-2.18,4-4.35,5-6.83,5.27,5-.31,7.45-1.55,8.38-2.48-1.55,4-3.11,5-4.66,5.9a30.39,30.39,0,0,0,4.66-1.87c-1.55,5.59-4.66,6.52-6.21,6.83a15.26,15.26,0,0,0,5.9-1.24c-2.49,5.9-4.66,6.21-5.59,6.83s-3.72.62-5.59-.62c3.11,2.17,4,3.1,5.28,4-4,1.56-7.14,0-8.07-.93a5.86,5.86,0,0,0,.31,3.73,3.44,3.44,0,0,1-2.79-1.87l-.31-.31c-6.21.94-11.18.62-13.66-.31a5.24,5.24,0,0,0-5,.31c-1.25.62-4,.94-5.28.31a4.5,4.5,0,0,0-3.41.63c-1.25.93-3.42,3.41-7.14-.32-.93-1.24-1.24-.93-2.18-.93s-.93-2.48-.93-2.79l3.42-.62"/><path class="cls-1" d="M358.32,549a6.28,6.28,0,0,0,6.52,3.72c2.79-.62,4.65-1.55,8.07,1.86-2.49,0-2.49.31-3.11.93-.93.63-1.55.63-3.72,0a4.78,4.78,0,0,0-5,1.56c-1.24,1.24-1.86,2.17-4.34,2.17"/><path class="cls-4" d="M364.22,555.55a53.73,53.73,0,0,1-7.14-2.17c-1.24-.62-2.48-.93-5.28-.62s-2.48,2.48-7.45.31c-.93-.31-2.48-.62-5.89,1.55-2.49,1.56-2.18,4.35.31,5.59,5.58,2.48,7.14,3.1,9.93,1.24,3.1-1.86,3.72-1.24,4.65-1.24a21.1,21.1,0,0,0,4.66-.62c.93-.31,1.86-.62,2.17-1.55a13.26,13.26,0,0,1,4-2.49"/><path class="cls-1" d="M378.18,545.62a2.17,2.17,0,1,0-2.17-2.17,2.13,2.13,0,0,0,2.17,2.17m-24.52,3.11c0,1.24-.31,2.79.31,4a5,5,0,0,1-2.79-3.41m5.9,10.55c-2.17-1.86-.93-5.59-.93-5.59,1.24,1.56,1.86,3.11,4.34,3.73-.93.93-1.24.93-1.24,1.24a7.89,7.89,0,0,1-2.17.62M353,549a6.68,6.68,0,0,0,2.8,4.65c.31-2.17-.31-2.17,1.24-4m-1.86-.62a7.76,7.76,0,0,0,3.1,5.58c0-3.1,1.24-4,1.24-4m13.35,4c-1.87,0-2.49.31-2.8.62-.62.31-.93.94-1.55.63a9.24,9.24,0,0,1,1.55-5.9c.93,3.72,2.8,4.65,2.8,4.65M360.8,550a1.37,1.37,0,0,0-.62,2.17c.31.62.31.31,1.24.62a3.12,3.12,0,0,0,2.8-.31,3.64,3.64,0,0,0,2.17-3.1c.62-3.11-.31-5.59-4.66-5.9,4,3.73-.93,6.52-.93,6.52m5,2.79a7.38,7.38,0,0,0,1.86-3.41,4.23,4.23,0,0,1,.93,3.1,5.4,5.4,0,0,0-2.79.31"/><path class="cls-2" d="M441.81,559.9c2.17.31,3.72-1.24,5-2.48a4.76,4.76,0,0,1,5-1.55c2.17.62,2.79.62,3.72,0s.62-.94,3.11-.94c-3.11-3.41-5.28-2.48-8.07-1.86s-5.28-.93-6.52-3.72l-2.17.31c-1.24-1.24-4-.31-4-.31s-5,1.86-5.27-1.86,1.24-4,1.24-4c.93,0,2.17-2.17,2.17-2.17.31-2.48,2.17-2.17,2.17-2.17.93-.63,5.28,1.24,5.28,1.24s0,.62,2.79.31,2.49-2.18,2.49-2.18c-.32-2.79-3.73-1.86-3.73-1.86,2.17-3.1,9.62.62,9.62.62,3.11-4,8.07-2.17,8.07-2.17,3.73-4,8.69-1.86,8.69-1.86,0-4.35,7.76-6.21,7.76-6.21,1.24-.31,3.72-4.34,3.72-4.34,4.66,12.1-3.72,13-3.72,13l3.72-.62a9.26,9.26,0,0,0,6.83-7.14c.93,7.76.31,10.24-2.48,13a8,8,0,0,0,4.35-.62c-2.18,4-4.35,5-6.83,5.27,5-.31,7.45-1.55,8.38-2.48-1.55,4-3.11,5-4.66,5.9a30.89,30.89,0,0,0,4.66-1.87c-1.55,5.59-4.66,6.52-6.21,6.83a15.26,15.26,0,0,0,5.9-1.24c-2.49,5.9-4.66,6.21-5.59,6.83s-3.72.62-5.59-.62c3.11,2.17,4,3.1,5.28,4-4,1.56-7.14,0-8.07-.93a5.86,5.86,0,0,0,.31,3.73,3.44,3.44,0,0,1-2.79-1.87l-.31-.31c-6.21.94-11.18.62-13.66-.31a5.24,5.24,0,0,0-5,.31c-1.25.62-4,.94-5.28.31a4.5,4.5,0,0,0-3.41.63c-1.25.93-3.42,3.41-7.14-.32-.93-1.24-1.24-.93-2.18-.93s-.93-2.48-.93-2.79l3.42-.62"/><path class="cls-1" d="M443.67,549a6.28,6.28,0,0,0,6.52,3.72c2.79-.62,4.65-1.55,8.07,1.86-2.49,0-2.49.31-3.11.93-.93.63-1.55.63-3.72,0a4.78,4.78,0,0,0-5,1.56c-1.24,1.24-1.86,2.17-4.34,2.17"/><path class="cls-4" d="M449.88,555.55a53.73,53.73,0,0,1-7.14-2.17c-1.24-.62-2.48-.93-5.28-.62s-2.48,2.48-7.45.31c-.93-.31-2.48-.62-5.89,1.55-2.49,1.56-2.18,4.35.31,5.59,5.58,2.48,7.14,3.1,9.93,1.24,3.1-1.86,3.72-1.24,4.65-1.24a21.1,21.1,0,0,0,4.66-.62c.93-.31,1.86-.62,2.17-1.55a10.39,10.39,0,0,1,4-2.49"/><path class="cls-1" d="M463.53,545.62a2.17,2.17,0,1,0-2.17-2.17,2.13,2.13,0,0,0,2.17,2.17M439,548.73c0,1.24-.31,2.79.31,4a5,5,0,0,1-2.79-3.41m6.21,10.55c-2.17-1.86-.93-5.59-.93-5.59,1.24,1.56,1.86,3.11,4.34,3.73-.93.93-1.24.93-1.24,1.24a7.89,7.89,0,0,1-2.17.62M438.39,549a6.68,6.68,0,0,0,2.8,4.65c.31-2.17-.31-2.17,1.24-4m-1.55-.62a7.76,7.76,0,0,0,3.1,5.58c0-3.1,1.24-4,1.24-4m13.35,4c-1.87,0-2.49.31-2.8.62-.62.31-.93.94-1.55.63a9.24,9.24,0,0,1,1.55-5.9c.62,3.72,2.8,4.65,2.8,4.65M446.46,550a1.37,1.37,0,0,0-.62,2.17c.31.62.31.31,1.24.62a3.12,3.12,0,0,0,2.8-.31,3.64,3.64,0,0,0,2.17-3.1c.62-3.11-.31-5.59-4.66-5.9,3.73,3.73-.93,6.52-.93,6.52m5,2.79a7.38,7.38,0,0,0,1.86-3.41,4.23,4.23,0,0,1,.93,3.1,4.72,4.72,0,0,0-2.79.31"/><path class="cls-2" d="M425.05,677.84c2.17.31,3.72-1.24,5-2.49a4.78,4.78,0,0,1,5-1.55c2.17.62,2.79.62,3.72,0s.62-.93,3.11-.93c-3.11-3.41-5.28-2.48-8.07-1.86s-5.28-.93-6.52-3.73l-2.17.32c-1.24-1.25-4-.32-4-.32s-5,1.87-5.27-1.86,1.24-4,1.24-4c.93,0,2.17-2.17,2.17-2.17.31-2.49,2.17-2.18,2.17-2.18.93-.62,5.28,1.24,5.28,1.24s0,.63,2.79.31,2.49-2.17,2.49-2.17c-.31-2.79-3.73-1.86-3.73-1.86,2.17-3.1,9.62.62,9.62.62,3.11-4,8.07-2.17,8.07-2.17,3.73-4,8.69-1.86,8.69-1.86,0-4.35,7.76-6.21,7.76-6.21,1.24-.31,3.73-4.35,3.73-4.35,4.65,12.11-3.73,13-3.73,13L466,653a9.26,9.26,0,0,0,6.82-7.14c.93,7.76.31,10.24-2.48,13a8,8,0,0,0,4.35-.63c-2.18,4-4.35,5-6.83,5.28,5-.31,7.45-1.55,8.38-2.48-1.55,4-3.11,5-4.66,5.89a32.08,32.08,0,0,0,4.66-1.86c-1.55,5.59-4.66,6.52-6.21,6.83a15.26,15.26,0,0,0,5.9-1.24c-2.49,5.9-4.66,6.21-5.59,6.83s-3.72.62-5.59-.62c3.11,2.17,4,3.1,5.28,4-4,1.55-7.14,0-8.07-.93a5.83,5.83,0,0,0,.31,3.72,3.44,3.44,0,0,1-2.79-1.86l-.31-.31c-6.21.93-11.18.62-13.66-.31a5.24,5.24,0,0,0-5,.31c-1.25.62-4,.93-5.28.31s-2.17,0-3.41.62c-1.25.93-3.42,3.42-7.14-.31-.93-1.24-1.24-.93-2.18-.93s-.93-2.48-.93-2.79l3.42-.62"/><path class="cls-1" d="M426.91,667a6.28,6.28,0,0,0,6.52,3.73c2.79-.62,4.65-1.55,8.07,1.86-2.49,0-2.49.31-3.11.93-.93.62-1.55.62-3.72,0a4.78,4.78,0,0,0-5,1.55c-1.24,1.25-1.86,2.18-4.34,2.18"/><path class="cls-4" d="M432.81,673.49a53.73,53.73,0,0,1-7.14-2.17c-1.24-.62-2.48-.93-5.28-.62s-2.48,2.48-7.45.31c-.93-.31-2.48-.62-5.89,1.55-2.49,1.55-2.18,4.35.31,5.59,5.58,2.48,7.14,3.1,9.93,1.24,3.1-1.86,3.72-1.24,4.65-1.24a21.1,21.1,0,0,0,4.66-.62c.93-.31,1.86-.62,2.17-1.56a13.13,13.13,0,0,1,4-2.48"/><path class="cls-1" d="M446.77,663.56a2.17,2.17,0,1,0-2.17-2.17,2.13,2.13,0,0,0,2.17,2.17m-24.52,3.1c0,1.25-.31,2.8.31,4a5,5,0,0,1-2.79-3.42m5.9,10.56c-2.17-1.86-.93-5.59-.93-5.59,1.24,1.55,1.86,3.1,4.34,3.73-.93.93-1.24.93-1.24,1.24a7.89,7.89,0,0,1-2.17.62m-4-10.87a6.68,6.68,0,0,0,2.8,4.66c.31-2.17-.31-2.17,1.24-4m-1.86-.63a7.77,7.77,0,0,0,3.1,5.59c0-3.1,1.24-4,1.24-4m13.35,4c-1.87,0-2.49.31-2.8.62-.62.31-.93.93-1.55.62a9.22,9.22,0,0,1,1.55-5.89c.93,3.72,2.8,4.65,2.8,4.65m-12.11-4.65a1.37,1.37,0,0,0-.62,2.17c.31.62.31.31,1.24.62a3.12,3.12,0,0,0,2.8-.31,3.64,3.64,0,0,0,2.17-3.1c.62-3.11-.31-5.59-4.66-5.9,4,3.72-.93,6.52-.93,6.52m5.28,2.79a7.35,7.35,0,0,0,1.86-3.42,4.26,4.26,0,0,1,.93,3.11,4.72,4.72,0,0,0-2.79.31"/><path class="cls-7" d="M589.54,615.14,582.4,568.9l7.45-6.21c.31,0,.31-.31.31-.62V549c0-.31,0-.31-.31-.62a1.08,1.08,0,0,0-.62-.31h-4.66L583.33,540l1.24-4h0v-5a.67.67,0,0,0-.62-.62h-2.17a.67.67,0,0,0-.62.62v2.17h-1.24V531a.67.67,0,0,0-.62-.62h-2.49a.67.67,0,0,0-.62.62v2.17H575V531a.67.67,0,0,0-.62-.62h-2.48a.67.67,0,0,0-.62.62v5h0l1.24,4-1.24,8.07h-4L566,540l1.55-4h0v-5a.67.67,0,0,0-.62-.62h-2.17a.67.67,0,0,0-.62.62v2.17h-1.24V531a.67.67,0,0,0-.62-.62h-2.49a.67.67,0,0,0-.62.62v2.17h-1.24V531a.67.67,0,0,0-.62-.62h-2.48a.67.67,0,0,0-.62.62v5h0l1.24,4-1.24,8.07h-4.35L548.57,540l1.24-3.73h0v-5a.67.67,0,0,0-.62-.62H547a.67.67,0,0,0-.62.62v2.17h-1.24v-2.17a.67.67,0,0,0-.62-.62h-2.49a.67.67,0,0,0-.62.62v2.17h-1.24v-2.17a.67.67,0,0,0-.62-.62h-2.48a.67.67,0,0,0-.62.62v5h0l1.24,3.73-1.24,8.07h-3.11a.67.67,0,0,0-.62.62v13.34c0,.31,0,.31.31.62l7.14,5.9-6.83,45.93h0l-9.93,9.62a1.09,1.09,0,0,0-.31.63v29.48a.67.67,0,0,0,.62.62h74.8a.67.67,0,0,0,.62-.62V624.77c0-.32,0-.32-.31-.63Zm-1.55-.62H579.3v-4.34h8.07Zm-39.42-64.86v1.55h-9v-1.55Zm-5.9-5.28c.32-1.24.94-1.86,1.56-1.86h0c.62,0,1.24.62,1.55,1.86v3.42h-3.11Zm5.9,7.76v2.48h-9v-2.48Zm-5.58,3.1h9.62v5.9H543v-5.9Zm9.62,6.83.62,5.59h-8.07L543,562.07Zm13-12.41v1.55h-9v-1.55Zm-5.9-5.28c.31-1.24.94-1.86,1.56-1.86h0c.62,0,1.24.62,1.55,1.86v3.42h-2.8ZM583,549.66v1.55h-9v-1.55Zm-6.21-5.59c.31-1.24.94-1.86,1.56-1.86h0c.62,0,1.24.62,1.55,1.86v3.42h-3.11Zm6.21,7.76v2.48h-9v-2.48Zm-4,3.41v5.9h-9v-5.9Zm-.31,6.83-2.8,5.59h-6.82l.62-5.59ZM552.61,599h17.07v5H552.61Zm-2.49-.94v-4.65h5.59v4.65ZM557,569.21h8.69v5.28H557Zm-2.79-1.55-.62-5.59H561v5.59Zm7.45-5.59h7.45l-.63,5.59h-6.51Zm8.07,13.35v6.21H567.5a5.83,5.83,0,0,0-5.89-5.59,6,6,0,0,0-5.9,5.59h-2.48v-6.21Zm3.72,6.83v4.65h-5.9v-4.65Zm-17.69,0v4.65H549.5v-4.65Zm11.79,15.82v-4.65h5.28v4.65Zm3.11.94h7.45v5h-7.45Zm2.79-.94v-4.65h7.14v4.65Zm3.1-5.58h-9v-4.66h9.31v4.66Zm-2.17-5.59v-4.65h5v4.65Zm2.48-5.27H570.3v-6.21h6.51ZM575,574.49v-5.28h6.21l.93,5.28Zm-.93-5.28v5.28h-7.45v-5.28Zm-12.41-8.07v-5.9h7.45v5.9Zm4-9.31v2.48H557v-2.48ZM561,555.24v5.9h-7.45v-5.9Zm-5,14v5.28h-7.45v-5.28Zm-8.38,0v5.28H540.5l.93-5.28Zm-1.86,6.21h6.52v6.21h-6.52Zm2.79,6.83v4.65h-4.65v-4.65Zm-2.48,5.58h9.31v4.66h-9.31Zm3.1,5.59v4.65h-7.14v-4.65ZM544.54,599H552v5h-7.45Zm3.41,5.58v4.66H540.5v-4.66Zm-3.41,5.59h8.07v4.34h-8.07Zm4-.93v-4.66h9v4.66Zm5,.93H561v4.34h-7.45Zm4.65-.93v-4.66h6.21v4.66Zm3.73.93h7.45v4.34h-7.45Zm3.41-.93v-4.66h9v4.66Zm4.66.93h8.38v4.34H570Zm5-.93v-4.66h7.45v4.66Zm12.11,0h-3.73v-4.66h3.11Zm-.62-5.59H579.3v-5h6.51Zm-.94-5.59h-3.72v-4.65h3.1Zm-.93-5.58h-7.13v-4.66H584Zm-.93-5.59h-3.72v-4.65H583Zm-.62-5.27h-5.27v-6.21h4.34Zm-1.55-14h-4.66l2.8-5.59h8.69Zm7.14-6.52h-8.69v-5.9h9Zm-5-11.48h5v4.65h-5Zm-10.55-18.31h1.24v2.17a.67.67,0,0,0,.62.62h2.49a.67.67,0,0,0,.62-.62v-2.17h1.24v2.17a.67.67,0,0,0,.62.62h2.48a.67.67,0,0,0,.62-.62v-2.17H584v3.72H573.4l-.31-3.72Zm0,5h10.24l-1.24,3.42H574Zm1.24,3.73h8.07l1.24,7.45h-3.1v-3.42c-.31-1.55-1.24-2.17-1.86-2.17h0c-.93,0-1.87.62-2.18,2.48v3.42h-3.41Zm-7.76,9.62h6.52v4.65h-6.52Zm-1.24-9.93h-8.07l-.93-3.42h10.24ZM556,535.38v-3.72h1.24v2.17a.67.67,0,0,0,.62.62h2.49a.67.67,0,0,0,.62-.62v-2.17h1.55v2.17a.67.67,0,0,0,.62.62h2.48a.67.67,0,0,0,.62-.62v-2.17h.93v3.72Zm1.24,5h8.07l1.24,7.45h-3.1v-3.42c-.31-1.55-1.24-2.17-1.86-2.17h0c-.93,0-1.87.62-2.18,2.48v3.42H556Zm-7.76,9.31H556v4.65H549.5Zm-10.86-18h1.24v2.17a.67.67,0,0,0,.62.62H543a.67.67,0,0,0,.62-.62v-2.17h1.55v2.17a.67.67,0,0,0,.62.62h2.48a.67.67,0,0,0,.62-.62v-2.17h.93v3.72H539.26l-.62-3.72Zm.31,5h10.24L548,539.73h-8.07Zm.93,3.73H548l1.24,7.45h-3.1v-3.42c-.31-1.55-1.24-2.17-1.86-2.17h0c-.93,0-1.87.62-2.18,2.48v3.42h-3.41Zm-5.9,9.31h5v4.65h-5Zm0,5.58h8.07v5.9H534Zm.31,6.83h8.07l2.18,5.59h-3.11Zm6.52,13.35h4.35v6.21h-5.28Zm-1.24,6.83H543v4.65h-4Zm-.93,5.58h6.52v4.66h-7.45Zm-.62,5.59h3.41v4.65h-4Zm-.93,5.59h6.52v5h-7.14Zm-.93,5.58h3.1v4.66h-4Zm-.62,5.59h8.38v4.34h-9Zm-1.56,5.9H588.3L592,619.8H530.26Zm-4.65,4.34h63.31l4,4H525Zm41.9,22.66v-4.66H579v4.66Zm3.1.93v4.65h-3.41V644Zm-3.1-6.21v-4.65h3.41v4.65Zm13-5v4.66h-9v-4.66h9Zm-4.34-.62v-6.82h9v6.82ZM575.26,644H584v4.65h-9C575.26,648.66,575.26,644,575.26,644Zm4.66-.93v-4.66h9.62v4.66Zm5,.93h8.69v4.65h-9l.31-4.65Zm.31-6.21v-4.65h9v4.65Zm-42.83,5.28h-9.62v-4.66h9.62Zm4.35.93v4.65H538V644Zm-9.62,0v4.65H528.4V644Zm0-11.18v4.66h-9v-4.66Zm-3.73-.62v-6.82h9v6.82ZM538,637.8v-4.65h9v4.65Zm-13.66-12.72h8.07v6.82h-8.07v-6.82Zm0,7.75h2.8v4.66h-2.8Zm0,5.59h7.45v4.66h-7.45Zm0,5.59h3.11v4.65h-3.11Zm7.45,9.62h-7.45v-4h7.45Zm10.55,0h-9.62v-4h9.62v4Zm8.69,0H543.3v-4h7.75Zm0-5h-3.41V644h3.41Zm0-5.58H543.3v-4.66h7.75Zm0-5.28h-3.41v-4.65h3.41Zm10.56-9.93a12.44,12.44,0,0,0-9.93,4.34H543.3v-6.82h36v6.82h-8.69A10.63,10.63,0,0,0,561.61,627.87ZM579,653.63h-7.76v-4H579Zm10.24,0h-9.31v-4h9.62v4Zm8.38,0h-7.45v-4h7.45Zm0-5h-3.1V644h3.1Zm0-5.58h-7.45v-4.66h7.45Zm0-5.28h-3.1v-4.65h3.1Zm0-5.59h-7.76v-6.82h8.07l.31.31v6.51ZM380.05,557.42c-1.87-.62-3.11-1.55-3.42-3.11V554c-.31-1.24-.62-2.48-2.48-2.79a.31.31,0,0,0,0,.62c1.55.31,1.86,1.24,2.17,2.48v.31c.31,1.56,1.86,2.8,3.73,3.42a9,9,0,0,1,3.41,2.48h.31v-.31A5.39,5.39,0,0,0,380.05,557.42ZM383.46,540a4.69,4.69,0,0,1,1.86-1.87c-1.86-.62-2.48-1.24-5.59-.62C381.6,537.55,382.22,538.48,383.46,540Zm-11.17,18.62h0c-.31-.31-.31-.31-.62,0a4.07,4.07,0,0,0,.31,2.79h.31s.31-.31,0-.31C372.6,561.14,372.29,560.21,372.29,558.66Zm5.27,0V559a5.56,5.56,0,0,1,1.24,2.48.3.3,0,0,0,.31.31h0a.3.3,0,0,0,.31-.31,4.92,4.92,0,0,0-1.55-2.79Zm-3.72-.93h0c-.31-.31-.31-.31-.62,0a5.16,5.16,0,0,0,.62,3.41h.31v-.31C374.15,560.21,373.53,559,373.84,557.73Zm-15.21,6.2a3.52,3.52,0,0,1-1.86-1.86s-.31-.31-.31,0c0,0-.31.31,0,.31a3,3,0,0,0,2.17,2.18c.31,0,.31.31.62.31h.31v-.31C358.94,563.93,358.63,563.93,358.63,563.93Zm21.1-5h-.31v.31c1.56.62,1.87,1.55,2.49,2.17a.3.3,0,0,0,.31.31h.31v-.31a.3.3,0,0,0-.31-.31A3.51,3.51,0,0,0,379.73,559Zm-9-.31h0a6,6,0,0,0-.31,3.1.3.3,0,0,0,.31.31h0l.31-.31c-.31,0-.62-1.55-.31-3.1Zm-1.86.31h0a20.5,20.5,0,0,0-.31,3.41.3.3,0,0,0,.31.31h0a.3.3,0,0,0,.31-.31,24.7,24.7,0,0,1-.31-3.41C369.18,559.28,369.18,559,368.87,559Zm-8.38,4.34c-.31,0-.93-.31-1.24-1.55l-.31-.31-.31.31c.31,1.55,1.24,1.86,1.55,1.86h.62l-.31-.31Zm5.28-3.41h0c-.31-.31-.31-.31-.62,0,0,.93.31,2.48.31,2.79a.3.3,0,0,0,.31.31h0l.31-.31A3.89,3.89,0,0,1,365.77,559.9Zm-4.66,1.55h0a.43.43,0,0,0-.62,0,2.64,2.64,0,0,0,.93,1.55H362v-.31l-.31-.31C361.42,562.07,361.11,561.76,361.11,561.45Zm-22.34-.62c3.41,1.55,5.27,2.17,7.14,2.17a5.16,5.16,0,0,0,3.41-1.24l2.48-1.24c0,.62.31,2.48,1.55,2.79H354c.63,0,.94,0,1.56.93,1.55,1.56,2.79,2.18,4,2.18,1.55,0,2.48-.93,3.42-1.55l.31-.31a3,3,0,0,1,3.1-.63c1.24.63,4.34.31,5.59-.31a6.23,6.23,0,0,1,4.65-.31c1.24.62,5.59,1.56,13.66.31v.31a5.22,5.22,0,0,0,3.1,1.87c.31,0,.31,0,.62-.31v-.62a6.43,6.43,0,0,1-.31-2.49,9.52,9.52,0,0,0,8.07.62.3.3,0,0,0,.31-.31,1,1,0,0,0-.31-.62,19,19,0,0,1-1.86-1.24l-.93-.93a8.64,8.64,0,0,0,3.1-.31.3.3,0,0,0,.31-.31c1.24-.62,2.79-1.55,5.28-6.83,0-.31,0-.62-.31-.62h-.62a6.87,6.87,0,0,1-2.49.93,11.3,11.3,0,0,0,3.73-5.9c0-.31,0-.62-.31-.62h-.62a6.66,6.66,0,0,1-1.56.93,9.33,9.33,0,0,0,2.49-4.34c0-.31,0-.31-.31-.62h-.62a7.17,7.17,0,0,1-4,1.55,15.34,15.34,0,0,0,3.11-4v-.62c0-.31-.31-.31-.63,0a12.61,12.61,0,0,1-3.1.62c2.48-2.8,2.79-5.9,1.86-12.73a.3.3,0,0,0-.31-.31c-.31,0-.31,0-.62.31-1.55,5.9-6.2,6.83-6.52,6.83h-.31a9.49,9.49,0,0,0,1.56-1.86c.93-1.87,1.86-5.28-.31-10.56a.3.3,0,0,0-.31-.31c-.31,0-.31,0-.31.31-.63.94-1.25,1.56-1.56,2.18-1.24,1.55-1.55,2.17-4,2.79a7.88,7.88,0,0,0-5.9,5.28,6.19,6.19,0,0,0-2.79-.62c-2.17,0-3.73.93-5.59,2.48-2.17-.62-5.27-.62-6.83,1.55-.93,1.24-.93,1.24-1.55.62-.31-.31-.62-.31-1.24-.62a7.5,7.5,0,0,0-8.07.31c-.31,0-.31.31-.31.62s.31.31.62.31c1.55,0,2.48,0,2.8.62.31.31.31.62.31,1.24,0,.31-.31.63-.63.94s-.93.62-1.24.31h-1.24a3.93,3.93,0,0,1-1.86-.31c-.31,0-.62-.31-.93-.31a6,6,0,0,0-3.11-.94h0a3.8,3.8,0,0,0-3.1,1.56v.31a4.86,4.86,0,0,1-2.48,3.1,2.85,2.85,0,0,0-1.24,1.86,8.63,8.63,0,0,0,.31,4,3.82,3.82,0,0,0,3.1,1.55h.93a10.16,10.16,0,0,0,1.86,2.48h-.93a4.48,4.48,0,0,0-2.17.62c-.93.62-1.86.93-5.28-.31-1.24-.62-3.1-.62-6.2,1.55a4.3,4.3,0,0,0-1.86,3.42C336.59,559.28,337.53,560.21,338.77,560.83ZM401.15,540a.43.43,0,0,0,0,.62.3.3,0,0,0,.31.31,6.16,6.16,0,0,0,3.41-.31,8.7,8.7,0,0,1-5.58,4c-.31,0-.31.31-.31.62s.31.31.62.31a24.91,24.91,0,0,0,7.14-1.55,9.33,9.33,0,0,1-4,4.35l-.31.31a62.7,62.7,0,0,1-7.76,0,25.33,25.33,0,0,0,4.66-6.52v-.31H399a8.61,8.61,0,0,1-2.49.31.3.3,0,0,0,.31-.31c2.18-1.24,4.66-3.1,7.14-7.76A6.84,6.84,0,0,1,401.15,540Zm-3.72-8.38a5.68,5.68,0,0,1-3.11,2.79h-1.55a40.52,40.52,0,0,0,3.41-3.72v-.31h-.31a11.61,11.61,0,0,1-2.48-.31,18.56,18.56,0,0,0,4.66-3.73A9.6,9.6,0,0,1,397.43,531.66Zm-40,8.69a3.93,3.93,0,0,1,1.86.31h1.24a3,3,0,0,0,2.18-.62,1.88,1.88,0,0,0,.93-1.87,2.62,2.62,0,0,0-.62-1.86,2.4,2.4,0,0,0-1.56-.62,7.66,7.66,0,0,1,5.28.62c.31.31.62.31.93.62,1.24.62,1.55.62,3.1-.93,1.25-1.55,3.42-1.55,5.28-1.24a1.08,1.08,0,0,0-.31.62.44.44,0,1,0,.62.62c1.86-2.17,4-3.41,5.9-3.41h0a5,5,0,0,1,2.79.93h0a4.28,4.28,0,0,1,1.24.93c.31.31.62.31.62,0,.31-.31.31-.62,0-.62l-1.24-1.24c.62-2.17,2.8-4,5.28-5,2.79-.62,3.41-1.55,4.65-3.1a6.78,6.78,0,0,0,.93-1.55l.94,2.79c-2.18,2.48-3.73,3.72-5,4-.31,0-.31.32-.62.32v.31a.3.3,0,0,0,.31.31h3.1a15.88,15.88,0,0,1-3.72,4c-2.79.62-4,2.17-4.35,6.21a.67.67,0,0,0,.62.62,1.13,1.13,0,0,0,.63-.31c.31-4.35,1.86-5,5.27-5.59h.93l2.8-.31c.31,0,4.34-.62,6.51-5.59v3.11a17.89,17.89,0,0,1-7.45,8.69c-.31.31-.62.31-.93.62v.31a.3.3,0,0,0,.31.31,6.91,6.91,0,0,0,2.8-.31,48.48,48.48,0,0,1-4.66,6.21V549l.31.31a23.56,23.56,0,0,0,4.66.31,11.71,11.71,0,0,0,3.72-.31c0,.31.31.31.62.31a13.53,13.53,0,0,0,3.42-1.24c-1.87,4.34-4,5-5.28,5.27-.31,0-.31.31-.31.62s.31.31.62.31a9.56,9.56,0,0,0,4.66-.93,15.11,15.11,0,0,1-2.49,3.73,24.22,24.22,0,0,1-11.17-4.35h-.31v.31a22.75,22.75,0,0,0,11.17,4.35,4.28,4.28,0,0,0-1.24.93.3.3,0,0,0-.31.31,6,6,0,0,1-5-.62h-.63a.43.43,0,0,0,0,.62c1.56,1.24,2.8,1.86,3.73,2.79l.93.93a3.93,3.93,0,0,1-1.86.31,34.45,34.45,0,0,1-6.83-5.58h-.31v.31a35.35,35.35,0,0,0,6.21,5.27,5.9,5.9,0,0,1-4-1.55h-.62a.3.3,0,0,0-.31.31,10.46,10.46,0,0,0,0,3.11c-.93-.31-1.55-.94-1.55-1.25h0l-.31-.31h0C390.29,562.07,390,559,390,559a.31.31,0,0,0-.62,0,9.36,9.36,0,0,0,1.55,4c-7.76,1.25-11.8,0-13-.31a6,6,0,0,0-5.58.31,6.91,6.91,0,0,1-5,.31,3.74,3.74,0,0,0-4,.94l-.31.31c-1.25.93-3.11,2.48-5.9-.63-.93-.93-1.55-1.24-2.17-1.24h-.31c-.31,0-.63-1.24-.63-1.86h.94c1.24,0,4-.62,4.65-.62a3.22,3.22,0,0,0,2.48-1.86c.63-1.24,2.8-1.86,3.11-1.86h1.55a6.05,6.05,0,0,0,2.17.31,4.41,4.41,0,0,0,1.86-.62l.31-.31c.32-.32.63-.63,2.49-.63.31,0,.31,0,.31-.31v-.62a8.22,8.22,0,0,0-1.86-1.55,5.93,5.93,0,0,1-.94-2.48.3.3,0,0,0-.31-.31h-.31a16.11,16.11,0,0,1-.93,1.55h-.31a4.13,4.13,0,0,0-.93-2.79h-.31a.3.3,0,0,0-.31.31v.31a5,5,0,0,1-1.24,2.79h-.93a4.73,4.73,0,0,0,1.55-2.79,6.21,6.21,0,0,0-.62-4.35,7,7,0,0,0-4-1.86H362v.31a3.76,3.76,0,0,1,1.56,3.1c-.31,1.87-2.18,2.8-2.18,3.11-.31,0-.62.31-.93.62-.31-.31-.62-.93-.93-1.24a3.26,3.26,0,0,0,1.55-2.8,3.89,3.89,0,0,0-1.86-3.41,3.14,3.14,0,0,1-1.86-2.17c0-.31-.31-.62-.31-.93l-.31-.31C356.77,540,357.08,540.35,357.39,540.35Zm-.31,18.93a5.26,5.26,0,0,1-.62-4.66c0,.31.31.31.31.62a6.75,6.75,0,0,0,3.1,2.8c-.62.62-.93.93-1.55.93C358,559.28,357.7,559.28,357.08,559.28Zm-1.24-9.62a3.31,3.31,0,0,0,2.48,0c.31.31.62.93.93,1.24-.31.31-.93,1.24-.93,3.41A8.3,8.3,0,0,1,355.84,549.66Zm.62,2.79h0a.3.3,0,0,1-.31-.31v-.31C356.15,552.14,356.15,552.45,356.46,552.45Zm2.79-1.24.31.31c0,.31,0,.31.31.62l.62.62a1,1,0,0,1,.62.31c.31,0,.62.31,1.24.31h2.49a1.14,1.14,0,0,0,.93-.31,8.58,8.58,0,0,1,2.79-.31,9.05,9.05,0,0,0-.62,2.79,5.45,5.45,0,0,1-1.86-.31,2,2,0,0,0-1.86,0h0a36.44,36.44,0,0,1-5.59-1.55A4,4,0,0,1,359.25,551.21Zm.93,0c0-.31.31-.62.62-.93h0a5.33,5.33,0,0,0,2.49-3.42,4.41,4.41,0,0,0-1.25-3.1c1.56.31,2.49.62,3.11,1.55a5.35,5.35,0,0,1,.62,4,4.19,4.19,0,0,1-1.86,2.79h0a2.48,2.48,0,0,1-2.49.31,1,1,0,0,0-.62-.31c-.31,0-.31,0-.62-.31Zm6.52.93a6.1,6.1,0,0,0,1.24-2.48,3.82,3.82,0,0,1,.62,2.17A5.45,5.45,0,0,1,366.7,552.14Zm3.41-1.24a7.64,7.64,0,0,0,2.18,3.72,4.81,4.81,0,0,0-2.49.62l-.31.31c-.31.32-.62.63-.93.63A9.65,9.65,0,0,1,370.11,550.9Zm-22.34-2.79a4.54,4.54,0,0,1-.31-3.11,1.61,1.61,0,0,1,.62-1.24c2.48-1.24,2.79-3.1,2.79-3.72A2.61,2.61,0,0,1,353,538.8h0a3.18,3.18,0,0,1,2.49,1.55,1.08,1.08,0,0,0,.31.62,4.34,4.34,0,0,0,2.17,2.79,3.22,3.22,0,0,1,1.24,2.48,1.89,1.89,0,0,1-.93,1.87c-1.55.93-1.86.62-2.48.31h0c-1.87-.93-2.8-.62-4.66.31A2.55,2.55,0,0,1,347.77,548.11Zm5.58,1.24a4,4,0,0,1,1.87.31,4.41,4.41,0,0,0,.62,1.86v1.86A7.51,7.51,0,0,1,353.35,549.35Zm.94,3.1h0c-.32,0-.32-.31-.32-.62C354,552.14,354,552.14,354.29,552.45ZM351.18,550h.31a2.34,2.34,0,0,1,1.24-.31c0,.31.31.93.31,1.24v1.86A21,21,0,0,1,351.18,550Zm-12.41,5.27c2.17-1.24,3.41-1.86,4.34-1.86a1.86,1.86,0,0,1,1.24.31c3.73,1.55,4.66.93,5.9.31a3.32,3.32,0,0,1,1.86-.62,5.29,5.29,0,0,1,3.11,0l.31.31h.31l.31-.31v-.31c.31,0,.62.31,1.24.31h.31l.93.93h0V554h0a21.09,21.09,0,0,0,4,1.24,4.17,4.17,0,0,0-2.18,1.87h0a6.81,6.81,0,0,1-3.1-2.8c-.31-.31-.31-.62-.62-.93h-.62s-1.24,3.11.31,5.28c-.93,0-1.86.31-2.49.31h-.62c-.93,0-1.86,0-4.34,1.55-2.79,1.55-3.73,1.24-9.62-1.24-1.24-.62-1.86-1.24-1.86-2.17C337.22,556.8,337.84,555.87,338.77,555.24Zm34.45-9.31h.31s.31-.31,0-.31c0,0-.31-.93-1.86-1.24.31-.62.62-1.55,0-2.17.31,0,.62-.31,1.24-.62a6.26,6.26,0,0,0,3.41,0,2.21,2.21,0,0,0-.93,1.86,2.67,2.67,0,0,0,2.48,2.48h.62a13.73,13.73,0,0,0,.62,1.56h0a.31.31,0,0,1,.31-.32c0-.31.31-.31.31-.62a1.13,1.13,0,0,1,.63-.31.3.3,0,0,0,.31-.31,2.34,2.34,0,0,1,1.24-.31h.31a6.49,6.49,0,0,1-1.86-1.24v-1.86h0l-.94-.93-.62-.62h-.31a11.07,11.07,0,0,1-5.27.62h-.31a5.24,5.24,0,0,1-1.55.62v.62c.62.62,0,2.17,0,2.17v.31h.31C372.91,545,373.22,545.62,373.22,545.93Zm5.89-4.34.94.93v1.55h0c-.94-.93-1.87-1.55-1.87-1.86h0c0,1.24.31,2.17.31,3.1h-.31a2.17,2.17,0,0,1,0-4.34C378.49,541.28,378.8,541.59,379.11,541.59Zm-22.34,5.9a1.12,1.12,0,0,0,.93-.32,1.49,1.49,0,0,0,.62-1.86h0a1,1,0,0,0-.93-.93,1.14,1.14,0,0,0-.93.31,1.1,1.1,0,0,0-.62.93.61.61,0,0,0,.62.62,1.14,1.14,0,0,1-.93.31h-.31v.31C355.53,547.49,356.15,547.49,356.77,547.49Zm.31-.94h0c0-.31,0-.31-.31-.31-.62,0-.62-.31-.62-.31s0-.62.31-.62h.31c.62,0,.62.31.62.62h0c0,.31-.31.93-.31,1.24h-.93C356.77,546.86,357.08,546.86,357.08,546.55Zm-6.83-2.48h0a4.41,4.41,0,0,0-1.86.62,2.35,2.35,0,0,0,.31,2.17H349v-.31a1.53,1.53,0,0,1,.31-.93c.31.62.62.62.62.62a1.1,1.1,0,0,0,.93-.62c0-.31.31-.62,0-.93C350.87,544.38,350.56,544.38,350.25,544.07Zm.31,1.55c0,.31-.62.31-.62.31s-.31,0-.31-.62V545h0c-.31.31-.31.62-.62.62v-.93c0-.31.93-.62,1.24-.62h0c.31,0,.62,0,.62.62C350.87,545.62,350.56,545.62,350.56,545.62Zm115.15,11.8c-1.87-.62-3.11-1.55-3.42-3.11V554c-.31-1.24-.62-2.48-2.48-2.79a.31.31,0,0,0,0,.62c1.55.31,1.86,1.24,2.17,2.48v.31c.31,1.56,1.86,2.8,3.73,3.42a9,9,0,0,1,3.41,2.48h.31v-.31A5.39,5.39,0,0,0,465.71,557.42ZM469.12,540a4.69,4.69,0,0,1,1.86-1.87c-1.86-.62-2.48-1.24-5.59-.62C467.26,537.55,467.57,538.48,469.12,540ZM458,558.66c0-.31-.31-.31,0,0h0c-.31-.31-.31-.31-.62,0a4,4,0,0,0,.31,2.79H458s.31-.31,0-.31A5.25,5.25,0,0,1,458,558.66Zm5,0V559a5.56,5.56,0,0,1,1.24,2.48.3.3,0,0,0,.31.31h0a.3.3,0,0,0,.31-.31,6.09,6.09,0,0,0-1.24-2.79Zm-3.41-.93c0-.31-.31-.31,0,0-.31-.31-.31-.31-.62,0a5.16,5.16,0,0,0,.62,3.41h.31v-.31C459.81,560.21,459.19,559,459.5,557.73ZM444,563.93a3.52,3.52,0,0,1-1.86-1.86s-.31-.31-.31,0c0,0-.31.31,0,.31a3,3,0,0,0,2.17,2.18c.31,0,.31.31.62.31h.31v-.31C444.29,563.93,444.29,563.93,444,563.93Zm21.41-5h-.31v.31c1.56.62,1.87,1.55,2.49,2.17a.3.3,0,0,0,.31.31h.31v-.31a.3.3,0,0,0-.31-.31A4.39,4.39,0,0,0,465.39,559Zm-9.31-.31h0a6,6,0,0,0-.31,3.1.3.3,0,0,0,.31.31h0l.31-.31a18.12,18.12,0,0,1-.31-3.1Zm-1.55.31h0a20.5,20.5,0,0,0-.31,3.41.3.3,0,0,0,.31.31h0a.3.3,0,0,0,.31-.31c-.31,0-.31-1.86-.31-3.41Zm-8.38,4.34c-.31,0-.93-.31-1.24-1.55l-.31-.31-.31.31c.31,1.55,1.24,1.86,1.55,1.86h.62l-.31-.31Zm5-3.41h0c-.31-.31-.31-.31-.62,0,0,.93.31,2.48.31,2.79a.3.3,0,0,0,.31.31h0l.31-.31C451.43,562.38,451.12,560.83,451.12,559.9Zm-4.66,1.55h0a.43.43,0,0,0-.62,0,2.64,2.64,0,0,0,.93,1.55h.62v-.31l-.31-.31C447.08,562.07,446.46,561.76,446.46,561.45Zm-22-.62c3.41,1.55,5.27,2.17,7.14,2.17a5.16,5.16,0,0,0,3.41-1.24l2.48-1.24c0,.62.31,2.48,1.55,2.79h.62c.63,0,.94,0,1.56.93,1.55,1.56,2.79,2.18,4,2.18,1.55,0,2.48-.93,3.42-1.55l.31-.31a3,3,0,0,1,3.1-.63c1.24.63,4.34.31,5.59-.31a6.23,6.23,0,0,1,4.65-.31c1.24.62,5.59,1.56,13.66.31v.31a5.22,5.22,0,0,0,3.1,1.87c.31,0,.31,0,.62-.31v-.62a6.43,6.43,0,0,1-.31-2.49,9.52,9.52,0,0,0,8.07.62.3.3,0,0,0,.31-.31,1,1,0,0,0-.31-.62,19,19,0,0,1-1.86-1.24l-.93-.93a8.64,8.64,0,0,0,3.1-.31.3.3,0,0,0,.31-.31c1.24-.62,2.79-1.55,5.28-6.83,0-.31,0-.62-.31-.62h-.62a6.87,6.87,0,0,1-2.49.93,11.3,11.3,0,0,0,3.73-5.9c0-.31,0-.62-.31-.62h-.62a6.66,6.66,0,0,1-1.56.93,9.33,9.33,0,0,0,2.49-4.34c0-.31,0-.31-.31-.62h-.62a7.17,7.17,0,0,1-4,1.55,15.34,15.34,0,0,0,3.11-4v-.62c0-.31-.31-.31-.63,0a12.61,12.61,0,0,1-3.1.62c2.48-2.8,2.79-5.9,1.86-12.73a.3.3,0,0,0-.31-.31c-.31,0-.31,0-.62.31-1.55,5.9-6.21,6.83-6.52,6.83h-.31a9.85,9.85,0,0,0,1.56-1.86c.93-1.87,1.86-5.28-.31-10.56a.3.3,0,0,0-.31-.31c-.31,0-.31,0-.31.31-.63.94-1.25,1.56-1.56,2.18-1.24,1.55-1.55,2.17-4,2.79a7.88,7.88,0,0,0-5.9,5.28,6.19,6.19,0,0,0-2.79-.62c-2.17,0-3.73.93-5.59,2.48-2.17-.62-5.27-.62-6.83,1.55-.93,1.24-.93,1.24-1.55.62-.31-.31-.62-.31-1.24-.62a7.5,7.5,0,0,0-8.07.31c-.31,0-.31.31-.31.62s.31.31.62.31c1.55,0,2.48,0,2.79.62.32.31.32.62.32,1.24,0,.31-.32.63-.63.94s-.93.62-1.24.31h-1.24a3.93,3.93,0,0,1-1.86-.31c-.31,0-.62-.31-.93-.31a6,6,0,0,0-3.11-.94h0a3.8,3.8,0,0,0-3.1,1.56v.31a4.86,4.86,0,0,1-2.48,3.1,2.85,2.85,0,0,0-1.24,1.86,8.63,8.63,0,0,0,.31,4,3.82,3.82,0,0,0,3.1,1.55h.93a10.16,10.16,0,0,0,1.86,2.48h-.93a4.48,4.48,0,0,0-2.17.62c-.93.62-1.86.93-5.28-.31-1.24-.62-3.1-.62-6.2,1.55a4.31,4.31,0,0,0-1.87,3.42C421.94,559.28,422.88,560.21,424.43,560.83ZM486.81,540a.43.43,0,0,0,0,.62.3.3,0,0,0,.31.31,6.16,6.16,0,0,0,3.41-.31,8.7,8.7,0,0,1-5.58,4c-.31,0-.31.31-.31.62s.31.31.62.31a24.91,24.91,0,0,0,7.14-1.55,9.33,9.33,0,0,1-4,4.35l-.31.31a62.7,62.7,0,0,1-7.76,0,25.33,25.33,0,0,0,4.66-6.52v-.31h-.31a8.61,8.61,0,0,1-2.49.31.3.3,0,0,0,.31-.31c2.18-1.24,4.66-3.1,7.14-7.76A8.89,8.89,0,0,1,486.81,540Zm-4-8.38a5.65,5.65,0,0,1-3.1,2.79h-1.55a40.52,40.52,0,0,0,3.41-3.72v-.31h-.31a11.61,11.61,0,0,1-2.48-.31,18.56,18.56,0,0,0,4.66-3.73C483.71,528.55,483.71,530.11,482.77,531.66Zm-40,8.69a3.93,3.93,0,0,1,1.86.31h1.24A3,3,0,0,0,448,540a1.87,1.87,0,0,0,.94-1.87,2.57,2.57,0,0,0-.63-1.86,2.37,2.37,0,0,0-1.55-.62,7.66,7.66,0,0,1,5.28.62c.31.31.62.31.93.62,1.24.62,1.55.62,3.1-.93,1.25-1.55,3.42-1.55,5.28-1.24a1.08,1.08,0,0,0-.31.62.44.44,0,1,0,.62.62c1.86-2.17,4-3.41,5.9-3.41h0a5,5,0,0,1,2.79.93h0a4.28,4.28,0,0,1,1.24.93c.31.31.62.31.62,0,.31-.31.31-.62,0-.62L471,532.59c.62-2.17,2.79-4,5.28-5,2.79-.62,3.41-1.55,4.65-3.1a6.78,6.78,0,0,0,.93-1.55l.93,2.79c-2.17,2.48-3.72,3.72-5,4-.31,0-.31.32-.62.32v.31a.3.3,0,0,0,.31.31h3.1a15.88,15.88,0,0,1-3.72,4c-2.8.62-4,2.17-4.35,6.21a.62.62,0,0,0,1.24,0c.31-4.35,1.87-5,5.28-5.59H480l2.79-.31c.32,0,4.35-.62,6.52-5.59v3.11a17.89,17.89,0,0,1-7.45,8.69c-.31.31-.62.31-.93.62v.31a.3.3,0,0,0,.31.31,6.93,6.93,0,0,0,2.8-.31,48.48,48.48,0,0,1-4.66,6.21v.31l.31.31a23.51,23.51,0,0,0,4.66.31,11.71,11.71,0,0,0,3.72-.31c0,.31.31.31.62.31a13.53,13.53,0,0,0,3.42-1.24c-1.87,4.34-4,5-5.28,5.27-.31,0-.31.31-.31.62s.31.31.62.31a9.56,9.56,0,0,0,4.66-.93,15.31,15.31,0,0,1-2.49,3.73,24.22,24.22,0,0,1-11.17-4.35h-.31v.31A22.75,22.75,0,0,0,489,557.42a4.28,4.28,0,0,0-1.24.93.3.3,0,0,0-.31.31,6,6,0,0,1-5-.62h-.62a.43.43,0,0,0,0,.62c1.56,1.24,2.8,1.86,3.73,2.79l.93.93a3.93,3.93,0,0,1-1.86.31,34.45,34.45,0,0,1-6.83-5.58h-.31v.31a35.35,35.35,0,0,0,6.21,5.27,5.9,5.9,0,0,1-4-1.55h-.62a.3.3,0,0,0-.31.31,10.46,10.46,0,0,0,0,3.11c-.93-.31-1.55-.94-1.55-1.25h0l-.31-.31h0c-1.24-1.24-1.55-4.34-1.55-4.34a.31.31,0,1,0-.62,0,9.36,9.36,0,0,0,1.55,4c-7.76,1.24-11.8,0-13-.31a6,6,0,0,0-5.58.31,6.91,6.91,0,0,1-5,.31,3.76,3.76,0,0,0-4,.93l-.32.32c-1.24.93-3.1,2.48-5.89-.63-.93-.93-1.55-1.24-2.17-1.24H440c-.32,0-.63-1.24-.63-1.86h.94c1.24,0,4-.62,4.65-.62a3.22,3.22,0,0,0,2.48-1.86c.62-1.24,2.8-1.86,3.11-1.86h1.55a6.05,6.05,0,0,0,2.17.31,4.41,4.41,0,0,0,1.86-.62l.31-.32c.31-.31.62-.62,2.49-.62.31,0,.31,0,.31-.31V554a8.22,8.22,0,0,0-1.86-1.55,5.79,5.79,0,0,1-.94-2.48.3.3,0,0,0-.31-.31h-.31a16.11,16.11,0,0,1-.93,1.55h-.31a4.13,4.13,0,0,0-.93-2.79h-.31a.3.3,0,0,0-.31.31V549a5,5,0,0,1-1.24,2.79h-.93a4.73,4.73,0,0,0,1.55-2.79,6.21,6.21,0,0,0-.62-4.35,7,7,0,0,0-4-1.86h-.31v.31a3.76,3.76,0,0,1,1.56,3.1c-.31,1.87-2.18,2.8-2.18,3.11-.31,0-.62.31-.93.62-.31-.31-.62-.93-.93-1.24a3.26,3.26,0,0,0,1.55-2.8,3.89,3.89,0,0,0-1.86-3.41,3.14,3.14,0,0,1-1.86-2.17c0-.31-.31-.62-.31-.93l-.31-.31C442.12,540,442.43,540.35,442.74,540.35Zm-.31,18.93a5.26,5.26,0,0,1-.62-4.66c0,.31.31.31.31.62a6.75,6.75,0,0,0,3.1,2.8c-.62.62-.93.93-1.55.93C443.67,559.28,443.05,559.28,442.43,559.28Zm-1.24-9.62a3.31,3.31,0,0,0,2.48,0c.31.31.62.93.93,1.24-.31.31-.93,1.24-.93,3.41A10.77,10.77,0,0,1,441.19,549.66Zm.62,2.79h0a.3.3,0,0,1-.31-.31v-.31A1.08,1.08,0,0,0,441.81,552.45Zm3.1-1.24.31.31c0,.31,0,.31.31.62l.62.62a1,1,0,0,1,.62.31c.31,0,.62.31,1.24.31h2.49a1.14,1.14,0,0,0,.93-.31,8.58,8.58,0,0,1,2.79-.31,9.05,9.05,0,0,0-.62,2.79,5.45,5.45,0,0,1-1.86-.31,2,2,0,0,0-1.86,0h0a36.44,36.44,0,0,1-5.59-1.55A4,4,0,0,1,444.91,551.21Zm.93,0c0-.31.31-.62.62-.93h0a5.33,5.33,0,0,0,2.49-3.42,4.41,4.41,0,0,0-1.25-3.1c1.56.31,2.49.62,3.11,1.55a5.35,5.35,0,0,1,.62,4,4.19,4.19,0,0,1-1.86,2.79h0a2.48,2.48,0,0,1-2.49.31,1,1,0,0,0-.62-.31c-.31,0-.31,0-.62-.31C445.53,551.83,445.53,551.52,445.84,551.21Zm6.21.93a6.1,6.1,0,0,0,1.24-2.48,3.82,3.82,0,0,1,.62,2.17A3.93,3.93,0,0,1,452.05,552.14Zm3.41-1.24a7.57,7.57,0,0,0,2.18,3.72,4.81,4.81,0,0,0-2.49.62l-.31.31c-.31.32-.62.63-.93.63A22.1,22.1,0,0,1,455.46,550.9Zm-22.34-2.79a4.54,4.54,0,0,1-.31-3.11,1.61,1.61,0,0,1,.62-1.24c2.48-1.24,2.79-3.1,2.79-3.72a2.61,2.61,0,0,1,2.17-1.24h0a3.18,3.18,0,0,1,2.49,1.55,1.08,1.08,0,0,0,.31.62,4.34,4.34,0,0,0,2.17,2.79,3.22,3.22,0,0,1,1.24,2.48,1.89,1.89,0,0,1-.93,1.87c-1.55.93-1.86.62-2.48.31h0c-1.87-.93-2.8-.62-4.66.31A2.55,2.55,0,0,1,433.12,548.11Zm5.58,1.24a4,4,0,0,1,1.87.31,4.41,4.41,0,0,0,.62,1.86v1.86A10,10,0,0,1,438.7,549.35Zm.93,3.1h0c-.31,0-.31-.31-.31-.62C439.32,552.14,439.63,552.14,439.63,552.45ZM436.84,550h.31a2.34,2.34,0,0,1,1.24-.31c0,.31.31.93.31,1.24v1.86A8.34,8.34,0,0,1,436.84,550Zm-12.41,5.27c2.17-1.24,3.41-1.86,4.34-1.86a1.86,1.86,0,0,1,1.24.31c3.73,1.55,4.66.93,5.9.31a3.32,3.32,0,0,1,1.86-.62,5.29,5.29,0,0,1,3.11,0l.31.31h.31l.31-.31v-.31c.31,0,.62.31,1.24.31h.31l.93.93h0V554h0a21.18,21.18,0,0,0,4,1.24,4.19,4.19,0,0,0-2.17,1.87h0a6.81,6.81,0,0,1-3.1-2.8c-.31-.31-.31-.62-.62-.93h-.62s-1.24,3.11.31,5.28c-.93,0-1.86.31-2.49.31H439c-.93,0-1.86,0-4.34,1.55-2.79,1.55-3.73,1.24-9.62-1.24-1.24-.62-1.86-1.24-1.86-2.17C422.88,556.8,423.5,555.87,424.43,555.24Zm34.45-9.31h.31s.31-.31,0-.31c0,0-.31-.93-1.86-1.24.31-.62.62-1.55,0-2.17.31,0,.62-.31,1.24-.62a6.26,6.26,0,0,0,3.41,0,2.21,2.21,0,0,0-.93,1.86,2.67,2.67,0,0,0,2.48,2.48h.62a13.73,13.73,0,0,0,.62,1.56h0a.31.31,0,0,1,.31-.32c0-.31.31-.31.31-.62a1.13,1.13,0,0,1,.63-.31.3.3,0,0,0,.31-.31,2.34,2.34,0,0,1,1.24-.31h.31a6.49,6.49,0,0,1-1.86-1.24v-1.86h0l-.94-.93-.62-.62h-.31a11.07,11.07,0,0,1-5.27.62h-.31a5.17,5.17,0,0,1-1.56.62v.62c.63.62,0,2.17,0,2.17v.31h.32C458.57,545,458.88,545.62,458.88,545.93Zm5.58-4.34.93.93v1.55h0c-.93-.93-1.86-1.55-1.86-1.86h0c0,1.24.31,2.17.31,3.1h-.31a2.17,2.17,0,1,1,0-4.34C464.15,541.28,464.15,541.59,464.46,541.59Zm-22.34,5.9a1.12,1.12,0,0,0,.93-.32,1.49,1.49,0,0,0,.62-1.86h0a1,1,0,0,0-.93-.93,1.14,1.14,0,0,0-.93.31,1.1,1.1,0,0,0-.62.93.61.61,0,0,0,.62.62,1.14,1.14,0,0,1-.93.31h-.31v.31C440.88,547.49,441.5,547.49,442.12,547.49Zm.62-.94h0c0-.31,0-.31-.31-.31-.62,0-.62-.31-.62-.31s0-.62.31-.62h.31c.62,0,.62.31.62.62h0c0,.31-.31.93-.31,1.24h-.93C442.12,546.86,442.43,546.86,442.74,546.55Zm-7.14-2.48h0a4.41,4.41,0,0,0-1.86.62,2.35,2.35,0,0,0,.31,2.17h.31v-.31a1.53,1.53,0,0,1,.31-.93c.31.62.62.62.62.62a1.1,1.1,0,0,0,.93-.62c0-.31.31-.62,0-.93C436.53,544.38,435.91,544.38,435.6,544.07Zm.62,1.55c0,.31-.62.31-.62.31s-.31,0-.31-.62V545h0c-.31.31-.31.62-.62.62v-.93c0-.31.93-.62,1.24-.62h0c.31,0,.62,0,.62.62ZM449,675.35c-1.87-.62-3.11-1.55-3.42-3.1v-.31c-.31-1.24-.62-2.48-2.48-2.79a.31.31,0,1,0,0,.62c1.55.31,1.86,1.24,2.17,2.48v.31c.31,1.55,1.86,2.79,3.73,3.42a9,9,0,0,1,3.41,2.48h.31v-.31A5.39,5.39,0,0,0,449,675.35Zm3.1-17.38a4.63,4.63,0,0,1,1.86-1.86c-1.86-.62-2.48-1.24-5.59-.62C450.19,655.49,450.81,656.42,452.05,658ZM440.88,676.6h0c-.31-.31-.31-.31-.62,0a4.07,4.07,0,0,0,.31,2.79h.31s.31-.31,0-.31C441.19,679.08,440.88,678.15,440.88,676.6Zm5.27,0v.31a5.56,5.56,0,0,1,1.24,2.48.3.3,0,0,0,.31.31h0a.3.3,0,0,0,.31-.31,6.09,6.09,0,0,0-1.24-2.79Zm-3.72-1.25h0c-.31-.31-.31-.31-.62,0a5.17,5.17,0,0,0,.62,3.42h.31v-.31A7,7,0,0,1,442.43,675.35Zm-15.21,6.52a3.52,3.52,0,0,1-1.86-1.86s-.31-.31-.31,0c0,0-.31.31,0,.31a3,3,0,0,0,2.17,2.17c.31,0,.31.31.62.31h.31v-.31C427.53,681.87,427.22,681.87,427.22,681.87Zm21.1-5H448v.31c1.56.62,1.87,1.55,2.49,2.17a.3.3,0,0,0,.31.31h.31v-.31a.3.3,0,0,0-.31-.31A3.51,3.51,0,0,0,448.32,676.91Zm-9-.31c-.31-.31-.31,0,0,0a6,6,0,0,0-.31,3.1.3.3,0,0,0,.31.31h0l.31-.31c-.31,0-.31-1.55-.31-3.1Zm-1.86.31h0a20.5,20.5,0,0,0-.31,3.41.3.3,0,0,0,.31.31h0a.3.3,0,0,0,.31-.31,20.5,20.5,0,0,0-.31-3.41Zm-8.07,4.34c-.31,0-.93-.31-1.24-1.55l-.31-.31-.31.31c.31,1.55,1.24,1.86,1.55,1.86h.62a.3.3,0,0,1-.31-.31Zm5-3.41h0c-.31-.31-.31-.31-.62,0,0,.93.31,2.48.31,2.79a.3.3,0,0,0,.31.31h0l.31-.31C434.67,680.32,434.05,678.77,434.36,677.84Zm-4.66,1.55h0a.43.43,0,0,0-.62,0,2.64,2.64,0,0,0,.93,1.55h.62v-.31l-.31-.31C430.32,680,429.7,679.7,429.7,679.39Zm-13.34-18.62a2.85,2.85,0,0,0-1.24,1.86,8.58,8.58,0,0,0,.31,4,3.8,3.8,0,0,0,3.1,1.56h.93a10.16,10.16,0,0,0,1.86,2.48h-.93a4.48,4.48,0,0,0-2.17.62c-.93.62-1.86.93-5.28-.31-1.24-.62-3.1-.62-6.2,1.55a4.27,4.27,0,0,0-1.87,3.42,3.58,3.58,0,0,0,2.49,3.1c3.41,1.55,5.27,2.17,7.14,2.17a5.16,5.16,0,0,0,3.41-1.24l2.48-1.24c0,.62.31,2.48,1.55,2.79h.62c.63,0,.94,0,1.56.93,1.55,1.55,2.79,2.18,4,2.18,1.55,0,2.48-.94,3.42-1.56l.31-.31a3.06,3.06,0,0,1,3.1-.62c1.24.62,4.34.31,5.59-.31a6.23,6.23,0,0,1,4.65-.31c1.24.62,5.59,1.55,13.66.31v.31A5.22,5.22,0,0,0,462,684c.31,0,.31,0,.62-.31v-.62a6.34,6.34,0,0,1-.31-2.48,9.52,9.52,0,0,0,8.07.62.3.3,0,0,0,.31-.31c0-.31,0-.31-.31-.31a19,19,0,0,1-1.86-1.24l-.93-.93a8.64,8.64,0,0,0,3.1-.31.3.3,0,0,0,.31-.31c1.24-.62,2.79-1.55,5.28-6.83,0-.31,0-.62-.31-.62h-.62a6.87,6.87,0,0,1-2.49.93,11.3,11.3,0,0,0,3.73-5.9c0-.31,0-.62-.31-.62h-.62a6.66,6.66,0,0,1-1.56.93,9.33,9.33,0,0,0,2.49-4.34c0-.31,0-.31-.31-.62h-.62a7.17,7.17,0,0,1-4,1.55,15.24,15.24,0,0,0,3.11-4v-.62c0-.31-.31-.31-.63,0a12.61,12.61,0,0,1-3.1.62c2.48-2.79,2.79-5.89,1.86-12.72a.3.3,0,0,0-.31-.31c-.31,0-.31,0-.62.31-1.55,5.9-6.2,6.83-6.52,6.83h-.31a9.49,9.49,0,0,0,1.56-1.86c.93-1.87,1.86-5.28-.31-10.56a.3.3,0,0,0-.31-.31c-.31,0-.31,0-.31.31-.63.93-1.25,1.55-1.56,2.18-1.24,1.55-1.55,2.17-4,2.79a7.89,7.89,0,0,0-5.9,5.27,6.19,6.19,0,0,0-2.79-.62c-2.17,0-3.73.94-5.59,2.49-2.17-.62-5.27-.62-6.83,1.55-.93,1.24-.93,1.24-1.55.62-.31-.31-.62-.31-1.24-.62a7.5,7.5,0,0,0-8.07.31c-.31,0-.31.31-.31.62s.31.31.62.31c1.55,0,2.48,0,2.79.62.32.31.32.62.32,1.24,0,.31-.32.62-.63.93s-.93.62-1.24.31h-1.24a3.93,3.93,0,0,1-1.86-.31c-.31,0-.62-.31-.93-.31a6.1,6.1,0,0,0-3.11-.93h0a3.82,3.82,0,0,0-3.1,1.55v.31C418.84,658,418.53,659.84,416.36,660.77Zm3.41,7.14h.31a2.34,2.34,0,0,1,1.24-.31c0,.31.31.93.31,1.24v1.86A21,21,0,0,1,419.77,667.91Zm2.17-.63a3.86,3.86,0,0,1,1.87.32,4.41,4.41,0,0,0,.62,1.86v1.86A7.5,7.5,0,0,1,421.94,667.28Zm.94,3.11h0c-.32,0-.32-.31-.32-.62C422.56,670.08,422.88,670.08,422.88,670.39Zm-5.28,8.69c-2.79,1.55-3.73,1.24-9.62-1.24-1.24-.62-1.86-1.24-1.86-2.18a2.55,2.55,0,0,1,1.55-2.48c2.17-1.24,3.41-1.86,4.34-1.86a1.86,1.86,0,0,1,1.24.31c3.73,1.55,4.66.93,5.9.31a3.32,3.32,0,0,1,1.86-.62,5.29,5.29,0,0,1,3.11,0l.31.31h.31l.31-.31V671c.31,0,.62.31,1.24.31h.31l.93.93h0v-.31h0a21.09,21.09,0,0,0,4,1.24,4.15,4.15,0,0,0-2.18,1.86h0a6.79,6.79,0,0,1-3.1-2.79c-.31-.31-.31-.62-.62-.93h-.62s-1.24,3.1.31,5.28c-.93,0-1.86.31-2.48.31h-.63A26.28,26.28,0,0,0,417.6,679.08Zm11.79-8.38a1,1,0,0,1,.62.31c.31,0,.62.31,1.24.31h2.49a1.14,1.14,0,0,0,.93-.31,8.58,8.58,0,0,1,2.79-.31,9.05,9.05,0,0,0-.62,2.79,5.45,5.45,0,0,1-1.86-.31,2,2,0,0,0-1.86,0h0a36.44,36.44,0,0,1-5.59-1.55,3,3,0,0,1,.62-2.17l.31.31c0,.31,0,.31.31.62C428.77,670.7,428.77,670.7,429.39,670.7Zm-.62-1.55c0-.31.31-.62.62-.93h0a5.37,5.37,0,0,0,2.49-3.42,4.41,4.41,0,0,0-1.25-3.1c1.56.31,2.49.62,3.11,1.55a5.33,5.33,0,0,1,.62,4,4.19,4.19,0,0,1-1.86,2.8h0a2.48,2.48,0,0,1-2.49.31,1,1,0,0,0-.62-.31c-.31,0-.31,0-.62-.31Zm6.52.93a6.1,6.1,0,0,0,1.24-2.48,3.82,3.82,0,0,1,.62,2.17C436.22,669.77,435.91,670.08,435.29,670.08Zm3.41-1.24a7.64,7.64,0,0,0,2.18,3.72,4.81,4.81,0,0,0-2.49.62l-.31.31c-.31.31-.62.62-.93.62A9.64,9.64,0,0,1,438.7,668.84Zm-12.1,3.41a10.54,10.54,0,0,1-2.48-4.34,3.31,3.31,0,0,0,2.48,0c.31.31.62.93.93,1.24C427.22,669.15,426.91,670.08,426.6,672.25Zm-1.55-1.86h0a.3.3,0,0,1-.31-.31v-.31C424.74,670.08,424.74,670.39,425.05,670.39Zm3.41,5.59c-.62.62-.93.93-1.55.93a13.43,13.43,0,0,1-1.55.31,5.26,5.26,0,0,1-.62-4.66c0,.31.31.31.31.62A13.79,13.79,0,0,0,428.46,676Zm41.28-18a.43.43,0,0,0,0,.62.31.31,0,0,0,.31.32,6.06,6.06,0,0,0,3.41-.32,8.69,8.69,0,0,1-5.58,4c-.31,0-.31.31-.31.62s.31.31.62.31a24.91,24.91,0,0,0,7.14-1.55,9.31,9.31,0,0,1-4,4.34l-.31.31a62.7,62.7,0,0,1-7.76,0,25.24,25.24,0,0,0,4.66-6.51v-.31h-.31a8.61,8.61,0,0,1-2.49.31.3.3,0,0,0,.31-.31c2.18-1.25,4.66-3.11,7.14-7.76A6.81,6.81,0,0,1,469.74,658ZM466,649.59a5.67,5.67,0,0,1-3.11,2.8h-1.55a40.69,40.69,0,0,0,3.41-3.73v-.31h-.31A11.61,11.61,0,0,1,462,648a18.22,18.22,0,0,0,4.66-3.72A9.56,9.56,0,0,1,466,649.59Zm-40,8.69a3.93,3.93,0,0,1,1.86.31h1.24a3,3,0,0,0,2.17-.62,1.86,1.86,0,0,0,.94-1.86,2.62,2.62,0,0,0-.62-1.86,2.42,2.42,0,0,0-1.56-.62,7.66,7.66,0,0,1,5.28.62c.31.31.62.31.93.62,1.24.62,1.55.62,3.1-.93,1.25-1.55,3.42-1.55,5.28-1.24a1.08,1.08,0,0,0-.31.62.44.44,0,1,0,.62.62c1.86-2.17,4-3.41,5.9-3.41h0a5,5,0,0,1,2.79.93h0a4.28,4.28,0,0,1,1.24.93c.31.31.62.31.62,0,.31-.31.31-.62,0-.62l-1.24-1.24c.62-2.18,2.79-4,5.28-5,2.79-.62,3.41-1.55,4.65-3.1a6.87,6.87,0,0,0,.93-1.56c.31.94.63,1.87.94,2.8-2.18,2.48-3.73,3.72-5,4-.31,0-.31.31-.62.31v.31a.3.3,0,0,0,.31.31h3.1a15.77,15.77,0,0,1-3.72,4c-2.79.62-4,2.17-4.35,6.21a.62.62,0,0,0,1.24,0c.32-4.35,1.87-5,5.28-5.59h.93L466,653c.31,0,4.34-.62,6.51-5.59v3.11a17.94,17.94,0,0,1-7.45,8.69c-.31.31-.62.31-.93.62v.31a.3.3,0,0,0,.31.31,6.91,6.91,0,0,0,2.8-.31,48,48,0,0,1-4.66,6.2v.31l.31.31a22.84,22.84,0,0,0,4.66.32,11.36,11.36,0,0,0,3.72-.32c0,.32.31.32.62.32a13.86,13.86,0,0,0,3.42-1.25c-1.87,4.35-4,5-5.28,5.28-.31,0-.31.31-.31.62s.31.31.62.31a9.56,9.56,0,0,0,4.66-.93,15.2,15.2,0,0,1-2.49,3.72,24.23,24.23,0,0,1-11.17-4.34h-.31V671a22.77,22.77,0,0,0,11.17,4.34,4.47,4.47,0,0,0-1.24.94.3.3,0,0,0-.31.31,6,6,0,0,1-5-.62h-.63a.43.43,0,0,0,0,.62c1.56,1.24,2.8,1.86,3.73,2.79l.93.93a3.93,3.93,0,0,1-1.86.31,34.29,34.29,0,0,1-6.83-5.59h-.31v.31a35.14,35.14,0,0,0,6.21,5.28,5.9,5.9,0,0,1-4-1.55h-.62a.3.3,0,0,0-.31.31,10.39,10.39,0,0,0,0,3.1c-.93-.31-1.55-.93-1.55-1.24h0l-.31-.31h0c-1.24-1.24-1.55-4.34-1.55-4.34a.31.31,0,0,0-.62,0,9.36,9.36,0,0,0,1.55,4c-7.76,1.24-11.8,0-13-.31a6,6,0,0,0-5.58.31,6.91,6.91,0,0,1-5,.31,3.76,3.76,0,0,0-4,.93l-.31.31c-1.25.93-3.11,2.49-5.9-.62-.93-.93-1.55-1.24-2.17-1.24h-.31c-.31,0-.63-1.24-.63-1.86h.94c1.24,0,4-.62,4.65-.62a3.22,3.22,0,0,0,2.48-1.86c.62-1.25,2.8-1.87,3.11-1.87h1.55a6.05,6.05,0,0,0,2.17.31,4.41,4.41,0,0,0,1.86-.62l.31-.31c.32-.31.63-.62,2.49-.62.31,0,.31,0,.31-.31v-.62a8.22,8.22,0,0,0-1.86-1.55,5.93,5.93,0,0,1-.94-2.48.3.3,0,0,0-.31-.31H439a16.11,16.11,0,0,1-.93,1.55h-.31a4.17,4.17,0,0,0-.93-2.8h-.31a.3.3,0,0,0-.31.31V667a5,5,0,0,1-1.24,2.8h-.93a4.73,4.73,0,0,0,1.55-2.8,6.18,6.18,0,0,0-.62-4.34,7,7,0,0,0-4-1.86h-.31v.31a3.76,3.76,0,0,1,1.56,3.1C431.88,666,430,667,430,667.29c-.31,0-.62.31-.93.62-.31-.31-.62-.94-.93-1.25a3.26,3.26,0,0,0,1.55-2.79,3.89,3.89,0,0,0-1.86-3.41,3.14,3.14,0,0,1-1.86-2.18c0-.31-.31-.62-.31-.93l-.31-.31C425.36,658,425.67,658.28,426,658.28Zm-6.21,0a2.61,2.61,0,0,1,2.17-1.24h0a3.16,3.16,0,0,1,2.49,1.55,1.09,1.09,0,0,0,.31.63,4.34,4.34,0,0,0,2.17,2.79,3.22,3.22,0,0,1,1.24,2.48,1.87,1.87,0,0,1-.93,1.86c-1.55.93-1.86.62-2.48.31h0c-1.86-.93-2.8-.62-4.66.31-1.55.63-3.41,0-3.72-.62a4.51,4.51,0,0,1-.31-3.1,1.61,1.61,0,0,1,.62-1.24A8,8,0,0,0,419.77,658.28Zm22.35,5.59h.31s.31-.31,0-.31c0,0-.31-.93-1.86-1.24.31-.62.62-1.55,0-2.17.31,0,.62-.31,1.24-.62a6.26,6.26,0,0,0,3.41,0,2.21,2.21,0,0,0-.93,1.86,2.67,2.67,0,0,0,2.48,2.48h.62a13,13,0,0,0,.62,1.55h0a.3.3,0,0,1,.31-.31c0-.31.32-.31.32-.62a1.08,1.08,0,0,1,.62-.31.3.3,0,0,0,.31-.31,2.34,2.34,0,0,1,1.24-.31h.31a6.49,6.49,0,0,1-1.86-1.24v-1.86h0l-.94-.93-.62-.63h-.31a11,11,0,0,1-5.27.63h-.31a5.24,5.24,0,0,1-1.55.62v.62c.62.62,0,2.17,0,2.17v.31h.31C441.5,662.94,441.81,663.56,442.12,663.87Zm5.58-4.34.94.93V662h0c-.94-.93-1.87-1.55-1.87-1.86h0c0,1.24.31,2.17.31,3.1h-.31a2.17,2.17,0,0,1,0-4.34C447.08,659.22,447.39,659.53,447.7,659.53Zm-22.34,5.89a1.14,1.14,0,0,0,.93-.31,1.49,1.49,0,0,0,.62-1.86h0a1,1,0,0,0-.93-.93,1.14,1.14,0,0,0-.93.31,1.1,1.1,0,0,0-.62.93.61.61,0,0,0,.62.62,1.14,1.14,0,0,1-.93.31h-.31v.31C424.12,665.42,424.74,665.42,425.36,665.42Zm.31-.93c.31,0,.31-.31,0,0,0-.31,0-.31-.31-.31-.62,0-.62-.31-.62-.31s0-.62.31-.62h.31c.62,0,.62.31.62.62h0c0,.31-.31.93-.31,1.24h-.93C425.36,664.8,425.67,664.8,425.67,664.49Zm-8.38.62h0a.3.3,0,0,0,.31-.31,1.53,1.53,0,0,1,.31-.93c.31.62.62.62.62.62a1.1,1.1,0,0,0,.93-.62c0-.31.31-.62,0-.93-.31-.93-.62-.93-.93-.93h0c-.31,0-1.55.31-1.55.62a3.07,3.07,0,0,0,.31,2.48Zm0-2.17c0-.31.93-.62,1.24-.62h0c.31,0,.62,0,.62.62v.31c0,.31-.62.31-.62.31s-.31,0-.31-.62v-.31h0c-.31.31-.31.62-.62.62C417.29,663.56,417.29,663.25,417.29,662.94ZM443.67,468c3.41-5.58,8.69-13.65,5.59-20.48a12.93,12.93,0,0,0-10.56-7.14,11.35,11.35,0,0,0-10.55,5c-2.48,5-.31,9,0,9.31a6,6,0,0,0,5.9,2.48,4.26,4.26,0,0,0,2.48-1.55,5.61,5.61,0,0,0,.62-3.11c-.31-1.24-2.17-3.1-3.1-3.1-.62,0-1.55.31-1.86.31a3.59,3.59,0,0,1,1.24-3.1c.93-.93,2.79-2.17,6.2-1.24,1.87.31,3.73,2.17,5,4a7,7,0,0,1,.93,4.66l-.31.62c-.93,2.79-1.86,5.89-10.55,9.62a.3.3,0,0,0-.31.31c0,.31,0,.31.31.31,2.17,1.86,3.1,1.86,4.34,1.86-2.17,3.73-4,8.07-3.72,12.73a49.91,49.91,0,0,0-7.14-11.18c-.31-.31-.62-.93-.93-1.24-4.66-6.52-2.48-10.55,0-15.21v-.62h0v-5.58a.3.3,0,0,0-.31-.31h-22a.3.3,0,0,0-.31.31v5.58h0v.62c2.49,4.35,4.66,8.69,0,15.21a4.28,4.28,0,0,0-.93,1.24,49.26,49.26,0,0,0-7.14,11.49c.63-4.66-1.24-9.31-3.41-13a6.54,6.54,0,0,0,4.35-1.55l.31-.31c0-.31,0-.31-.31-.31-8.69-3.73-9.63-6.83-10.56-9.62l-.31-.62a8.31,8.31,0,0,1,5.9-9c3.72-.93,5.28.31,6.21,1.24a3.59,3.59,0,0,1,1.24,3.1,4.41,4.41,0,0,0-1.86-.62,4.31,4.31,0,0,0-3.42,3.1c-.31.63,0,1.87.62,3.11a2.76,2.76,0,0,0,2.49,1.55,5.56,5.56,0,0,0,5.89-2.17c.31-.31,2.49-4.35,0-9.31a11.34,11.34,0,0,0-10.55-5,12.71,12.71,0,0,0-10.55,7.14c-3.42,6.83,1.86,15.21,5.27,20.79.94,1.55,1.87,3.11,2.49,4.35,1.86,4.65,1.86,7.14,0,10.55-.31-.31-.62-.93-.93-1.24-.93-.62-3.42-.31-4.66.93-.93.93-1.55,3.41-.31,5.9a4.48,4.48,0,0,0,3.1,2.17h.94a7.3,7.3,0,0,0,4-1.55,37.7,37.7,0,0,0,3.1-4.35c-1.86,7.45-.62,15.83,9,24.52v3.73h23.9v-3.42h.31c9.62-8.38,11.18-16.76,9.62-23.9a14.49,14.49,0,0,0,2.8,3.73,6.44,6.44,0,0,0,3.72,1.55h.93a4.52,4.52,0,0,0,3.11-2.17,4.91,4.91,0,0,0-.31-5.9c-1.25-1.24-3.42-1.55-4.35-.93-.31.31-.93.62-.93,1.24-2.17-3.41-2.17-5.9,0-10.55C441.5,471.14,442.43,469.58,443.67,468Zm-39.42-21.41h21.42v5H404.56l-.31-5ZM390,488.21a6.26,6.26,0,0,1-4,1.24,4.26,4.26,0,0,1-2.48-1.55c-.93-1.87-.62-4,0-4.66a3.52,3.52,0,0,1,2.48-.93,1.14,1.14,0,0,1,.93.31,4.33,4.33,0,0,1,1.24,1.55.31.31,0,0,0,.32.31c.31,0,.31,0,.31-.31,2.79-4,2.79-6.83.62-12.1-.62-1.24-1.56-2.8-2.49-4.35-3.41-5.58-8.38-13.34-5.27-19.86a11.89,11.89,0,0,1,9.62-6.52,11.35,11.35,0,0,1,9.62,4.35,9.7,9.7,0,0,1,0,8.38,5,5,0,0,1-4.66,1.86,4,4,0,0,1-1.86-1.24c-.62-.93-.62-1.86-.31-2.18a4.15,4.15,0,0,1,2.48-2.17h0a3.33,3.33,0,0,1,1.87.62H399l.31-.31c0-2.48-.31-3.41-1.55-4.65-1.87-1.86-4-2.18-7.14-1.55A9.94,9.94,0,0,0,385,449.1a6.3,6.3,0,0,0-.93,5.59l.31.62c.93,2.79,1.86,6.21,10.24,9.93a3.68,3.68,0,0,1-3.1.93h-.62c-.31,0-.31,0-.31.31v.62C394.32,473,397.43,480.45,390,488.21Zm35.69,23.27h-22v-2.17h22Zm.93-3.41h-23c-18.31-15.83-6.2-31.66-.31-39.11.31-.31.62-.93.93-1.24,5-6.52,2.8-11.17.62-15.52h20.49c-2.17,4-4.35,9,.62,15.52.31.31.62.93.93,1.24C432.5,476.72,444.6,492.55,426.6,508.07Zm14.28-24.21.31.31c.31,0,.31,0,.31-.31s.62-.93,1.24-1.55a3.15,3.15,0,0,1,3.1.93,4.11,4.11,0,0,1,0,4.66,2.76,2.76,0,0,1-2.48,1.55,4.29,4.29,0,0,1-3.73-1.24c-7.13-7.76-4.34-15.52-.31-21.73v-.62l-.31-.31h-.62a3.5,3.5,0,0,1-3.1-.93c8.38-3.73,9.62-7.14,10.55-9.93l.31-.62c.62-1.56,0-3.73-.93-5.59a9.09,9.09,0,0,0-5.59-4.66c-3.1-.62-5.27-.31-7.13,1.56-1.25,1.24-1.56,2.17-1.56,4.65,0,.31,0,.31.31.31h.32a3.61,3.61,0,0,1,2.17-.62,4.15,4.15,0,0,1,2.48,2.17,5.32,5.32,0,0,1-.31,2.18,2.85,2.85,0,0,1-1.86,1.24c-2.17.31-4-.62-4.66-1.86a8.81,8.81,0,0,1,0-8.38,10.61,10.61,0,0,1,9.62-4.35,11.89,11.89,0,0,1,9.63,6.52c3.1,6.21-1.87,14-5.28,19.55-1.24,1.86-2.17,3.1-2.48,4.35C438.08,477,438.08,479.83,440.88,483.86Zm-14.59-4a7.11,7.11,0,0,1-.62,4.65c-1.24-.93-2.48-1.55-3.42-2.17.63-.62,1.56-1.24,1.87-1.86,1.24-1.55,1.86-2.8,1.55-3.73s-1.55-1.55-3.42-1.55c-3.72-.31-6.51.93-9.31,3.1-3.1-.93-3.72-2.79-4.34-8.06,0-.32,0-.32-.31-.32h-.62c-2.8,2.8-2.8,4.66-2.49,6.83-1.86.62-3.1,2.18-3.72,5,0,.31,0,.31.31.62h.62a12.71,12.71,0,0,1,6.52-.62c.31,0,.62.31.93.62a15.11,15.11,0,0,0-.93,2.17c-.62,1.24-.93,2.48-1.55,3.42a13.24,13.24,0,0,0-5.28-1.25c-1.55,0-2.48.31-3.1,1.25-.62.62-.62,1.55-.31,2.79.31.93,1.86,3.41,5.58,5.28v.31a10.49,10.49,0,0,1-4.34,3.41.3.3,0,0,0-.31.31c0,.31,0,.31.31.62a20.55,20.55,0,0,0,5.9.31c1.24,1.86,2.79,3.1,4,3.1h0a.3.3,0,0,0,.31-.31v-.62c-.93-2.48-1.24-3.72-.93-5.58a11.63,11.63,0,0,0,3.1.31,12.31,12.31,0,0,0,5.9-1.55c.31,0,.31-.31.62-.31a23.66,23.66,0,0,0,4-2.8,33.81,33.81,0,0,0,3.41,1.86,3.93,3.93,0,0,0,1.86.31,3.54,3.54,0,0,0,2.17-.93c1.25-1.24,1.25-3.41,0-5.89a1.08,1.08,0,0,0-.31-.62,5.93,5.93,0,0,1,4-.31c.31,0,.31,0,.31-.31v-.63a6.37,6.37,0,0,0-4.66-3.1c0-1.86-.62-3.1-2.48-4.65a.43.43,0,0,0-.62,0C426.29,479.21,426,479.52,426.29,479.83Zm-17.69.93a13.69,13.69,0,0,0-6.21,0,4.67,4.67,0,0,1,2.79-3.42h0a3.29,3.29,0,0,0,.31,1.25c0,.31.32.31.63.31s.31-.31.31-.63a1.14,1.14,0,0,0-.31-.93h0v-.93c-.31-1.86-.31-3.1,1.55-5.27.62,4,1.55,6.2,4.34,7.44a17.91,17.91,0,0,0-1.86,2.49A13.43,13.43,0,0,1,408.6,480.76Zm.62,3.72a14.35,14.35,0,0,1,6.21-7.14c.31,1.87.62,2.18,2.17,3.42h.31v-.31c-1.55-.93-1.55-1.55-1.86-3.11a12.58,12.58,0,0,1,5.89-1.24c1.56,0,2.49.31,2.8.93h0a9.46,9.46,0,0,0-2.8.93v.31h.62a3.56,3.56,0,0,1,2.49-.93c0,.62-.31,1.25-1.24,2.18A82.37,82.37,0,0,1,414.5,487a7.37,7.37,0,0,0-2.49,2.8c-.31,0-.31-.31-.62-.31h-.31c-.62-.31-.93-.62-1.55-.93s-.93-.62-1.55-.62A23.21,23.21,0,0,1,409.22,484.48Zm6.52,2.48,1.24,1.25a3.74,3.74,0,0,0,1.55,1.55c-3.41,1.55-4,1.55-6.21.62a17.12,17.12,0,0,1,2.18-2.48C414.81,487.59,415.43,487.28,415.74,487Zm-9.62,12.73-.63-1.24c0-.31-.31-.31-.62-.31s-.31.31-.31.62.31.62.31.93a14.71,14.71,0,0,1-3.72,0,8.25,8.25,0,0,0,3.41-3.1.3.3,0,0,1,.31-.31,9.22,9.22,0,0,0,3.11.93h.31a7.85,7.85,0,0,0,.62,5.27A4.17,4.17,0,0,1,406.12,499.69Zm12.1-4.66c-.31,0-.31.31-.62.31a12.52,12.52,0,0,1-9.31.94c-6.21-1.56-8.69-5.28-9-6.21,0-.31-.31-.93,0-1.55a2.23,2.23,0,0,1,2.17,1.24h.31s.31-.31,0-.31a2.45,2.45,0,0,0-2.48-1.55h0c.31-.62.93-.62,2.17-.94h.31a9.16,9.16,0,0,1,5,1.25,2.55,2.55,0,0,1-1.56,3.1s-.31.31,0,.31a.3.3,0,0,0,.31.31h0a3,3,0,0,0,1.87-3.1c.31.31.93.31,1.55.62s.93.62,1.55.93h.31c.31,0,.62.31.93.31h0c2.8,1.55,3.73,1.55,8.07-.31l1.24,1.24c.31.31.31.31.62.31.31.31.62.31.62.62A20.31,20.31,0,0,1,418.22,495Zm10.86-.93-.31-.31a7.09,7.09,0,0,0-3.1-2.17.31.31,0,0,0,0,.62,8.55,8.55,0,0,1,2.79,2.17l.31.31a3.31,3.31,0,0,1-2.48,0,26,26,0,0,1-5-2.79c-.31-.31-.62-.62-.93-.62l-.31-.31-.62-.62h0c-.62-.62-1.24-1.55-1.86-2.17a4.21,4.21,0,0,1-.93-1.25c1.55-1.24,3.1-2.48,4.34-3.41,1.87,1.24,3.73,2.17,5,3.1a.3.3,0,0,1,.31.31,23.21,23.21,0,0,1,2.79,3.11A3.25,3.25,0,0,1,429.08,494.1Zm-1.86-13a5.16,5.16,0,0,1,1.24,3.41.67.67,0,0,0,.62.62,5.16,5.16,0,0,1,3.73,1.55,7.77,7.77,0,0,0-3.73.63l-.31-.32c-.31-.31-.62-.62-.93-.62l-.31-.31c-.31-.31-.93-.62-1.24-.93A9.55,9.55,0,0,0,427.22,481.07Zm-6.52-4.35c0-.31,0-.31-.31-.31s-.31,0-.31.31,0,.31.31.31C420.7,477.34,420.7,477,420.7,476.72Zm6.21,13.66c0,.31,0,.31.31.31s.31,0,.31-.31,0-.31-.31-.31A.3.3,0,0,0,426.91,490.38Zm-24.52-2.17c0,.31,0,.31.31.31s.31,0,.31-.31,0-.31-.31-.31A.3.3,0,0,0,402.39,488.21Zm19.86-.62a2.62,2.62,0,0,0-.62,2.17.3.3,0,0,0,.31.31h0a.3.3,0,0,0,.31-.31,13.43,13.43,0,0,1,.31-1.55,3.39,3.39,0,0,1,2.18-.93.31.31,0,0,0,.31-.32.3.3,0,0,0-.31-.31A2.22,2.22,0,0,0,422.25,487.59Zm-21.1-44.39h4a.3.3,0,0,0,.31-.31v-.31c-3.1-5.27-6.51-6.82-10.86-8.38l-1.24-.62c-5.28-2.17-12.1-2.17-19.24,0h-.31c-3.11.93-5,1.55-10.86,6.21a36.4,36.4,0,0,0-5,5.28c-.31.31-.31.31-.31.62l-.93.93h0c-.93.31-2.48.93-2.48.93-2.49,1.24-4.66,2.48-5.59,7.76,0,0-1.24,5.89-.31,7.76a.67.67,0,0,0,.62.62c.31,0,.62.31,1.24-.31.31-.31.62-.93.93-1.24l.31-.31a2.38,2.38,0,0,0,.62-1.25.3.3,0,0,1,.31-.31c.31-.62.31-.93.62-1.55v-.31a3.37,3.37,0,0,0,.31-1.55v-.93c.31-1.55.31-2.17,1.25-3.1.31-.32.93-.63,1.24-.94a.67.67,0,0,1-.62.62c0,.32-.31.32-.31.63a4,4,0,0,0-.62,2.48c-.32,1.55-1.56,5.58-2.49,6.52-.62.62-1.24,2.17-.62,3.1h0c.31.31.31.31.93.31a4.79,4.79,0,0,0,1.86-.93c.32-.31.63-.31.94-.62,2.79-2.17,6.51-4.66,6.2-10.24v-1.87c-.31-2.48-.31-3.41,1.24-6.2h0c1.87-3.42,11.49-9.62,17.38-10.24a3.84,3.84,0,0,0,1.87-.32,33,33,0,0,1,8.07-.31h-2.49a25.84,25.84,0,0,0-9.62,3.42c-3.41,2.17-7.45,6.83-6.83,16.14a.3.3,0,0,0,.31.31h.32a58.6,58.6,0,0,0,6.2-6.21c.62-.62.93-1.55,1.55-2.17a20.65,20.65,0,0,1,3.73-4.66C388.11,437.62,395.56,438.24,401.15,443.2Zm-41.28,9v1.87c.31,5-3.1,7.45-5.9,9.62-.31.31-.62.31-.93.62-.93.62-1.55.93-1.55.62-.31-.31,0-1.24.62-1.86,1.24-1.24,2.49-5.59,2.8-7.14a3.61,3.61,0,0,1,.62-2.17.3.3,0,0,1,.31-.31,5.11,5.11,0,0,0,.93-1.87h0v-.31h-.31a6.32,6.32,0,0,0-2.17,1.56c-1.25.93-1.25,2.17-1.56,3.72v.62a14.1,14.1,0,0,1-3.1,6.21l-.31.31v-.31c-.31-.93-.31-3.73.31-7.45.93-5,3.1-6.21,5.28-7.45,0,0,1.55-.62,2.48-.93h0l.31-.31a2.38,2.38,0,0,0,.62-.93l.62-.62,2.48.62A8.91,8.91,0,0,0,359.87,452.2Zm18.31-5.58c-.62.62-.93,1.55-1.55,2.17a46.52,46.52,0,0,1-5.59,5.59c-.62-8.69,3.11-12.73,6.52-14.9a19.08,19.08,0,0,1,9.31-3.41,26.13,26.13,0,0,1,8.69,1.24c.31,0,.31,0,.62-.31,0-.31,0-.31-.31-.62a21.61,21.61,0,0,0-14.58-1.87c-.62,0-1.24.31-1.87.31-6.2.62-15.51,6.83-17.69,10.56l-2.48-.31a18.57,18.57,0,0,1,4.35-4.35c5.58-4.65,7.76-5.28,10.55-6.21h.31c6.83-2.17,13.34-2.17,18.62,0l1.24.62c4.35,1.87,7.45,3.11,10.24,7.76h-2.79c-5.9-5.27-13.66-5.58-19.55-.62C380.67,442.89,379.42,444.76,378.18,446.62Zm58.66-20.8a67,67,0,0,0-9,8.07l-.31.31c-.62.62-.93,1.24-1.55,1.87a24.56,24.56,0,0,1,5-5.9c2.8-2.48,5.59-5.9,7.76-17.69a.3.3,0,0,0-.31-.31h-.31c-7.14,4.34-9.93,7.76-15.2,14.58h0a14,14,0,0,0-2.18-1.86,37.48,37.48,0,0,0,1.55-5.58h0a9.25,9.25,0,0,0,1.87-4.35v-.31l-.31-.31h-.62a40,40,0,0,0,.62-11.79.3.3,0,0,0-.31-.31c-.31,0-.31,0-.31.31-.63,1.86-4,8.69-5.59,12.1V415a8.55,8.55,0,0,0-3.73,2.79l-.31.31c.63-3.1-.31-5.89-3.72-8.69h-.62c-3.1,2.18-3.41,5.9-2.48,9.32a14.86,14.86,0,0,0-3.11-2.49c-.93-2.48-2.17-5.58-3.41-8.38-1.24-3.1-2.48-5.89-2.48-6.51a.31.31,0,0,0-.31-.32h0c-.31,0-.31,0-.31.32a44.53,44.53,0,0,0,.93,13.65h-.93a.31.31,0,0,0-.32.31v.31a21.39,21.39,0,0,0,2.49,5.9,28.44,28.44,0,0,0-5.59-5.28,8.48,8.48,0,0,1-1.55-1.24,19,19,0,0,1-1.86-1.24c-1.86-.93-6.52-4-12.73-5h-.31v.31c.31.62.31.94.62,1.56,1.24,3.41,2.49,5.89,10.24,9.62,2.49,1.24,4.66,2.79,11.49,8.69,0,.31-.31.31-.31.62a79.21,79.21,0,0,0-17.38-8.38c-1.24-.31-5-1.55-6.83-1.55a49.57,49.57,0,0,1-10.55-3.42h-.31v.62s2.17,3.42,3.41,5.28c1.24,2.17,6.52,3.72,11.79,5.59a28.61,28.61,0,0,1,2.8.93,95.6,95.6,0,0,1,9.31,3.41c5.9,2.17,11.79,4.66,15.21,10.86l.31.31h8.38c.31,0,.31,0,.31-.31V442a25.79,25.79,0,0,1,2.48-10.86h1.55l-.31.62c-.62.93-2.48,5-2.48,11.17v.31h5.9l.31-.31h.31l3.72.31h.31c5.28-3.41,10.24-4.34,15.52-3.1,10.24,2.17,17.07,12.73,17.07,13,.93.93,5.9,4.65,6.21,5h.31a.3.3,0,0,0,.31-.31c.62-2.48,0-6.83,0-7.14a20.35,20.35,0,0,0-9.94-13c-5.89-3.11-13-3.42-18-2.8,3.73-.93,7.76-1.86,9.94-1.55h.93a21,21,0,0,1,10.55,3.42c2.17,1.55,6.83,5.89,7.14,6.82l.93.94.62.62V446a1.14,1.14,0,0,1-.31.93,1.86,1.86,0,0,0,.31,1.24v.93h0v.62h0l-.31.31a4.2,4.2,0,0,0,0,3.42h0v.31a9.22,9.22,0,0,1-.62,7.45v.31h0l.31.31h0a10.66,10.66,0,0,0,6.83-3.11v-.31h0a.3.3,0,0,0-.31-.31,6,6,0,0,1-2.18-2.17,2.37,2.37,0,0,1-.62-1.55,6,6,0,0,0,1.55,2.79c.31.31.63.31.94.62a.3.3,0,0,1,.31.31c1.86,1.24,4.34,1.24,7.13,1.24h0a.3.3,0,0,0,.31-.31h0a.3.3,0,0,0-.31-.31,16.7,16.7,0,0,1-3.1-.93c.31,0,.93.31,1.24.31a1.08,1.08,0,0,1,.62.31c.62.31,1.55.31,2.49.62h.31c.31,0,.31,0,.31-.31v-.62c-.31,0-.93-.93-1.56-1.55a1.14,1.14,0,0,1-.31-.93v-.93h0l.31.31h.32s2.17,0,5.58-3.42v-.31h0l-.31-.31h-.62a1.14,1.14,0,0,1-.93-.31h-.31c-.31,0-.62-.31-.93-.31s-.31-.31-.62-.31a4.28,4.28,0,0,1-1.24-.93c-1.87-1.86-3.11-3.1-4.35-3.41h-1.24c-.62,0-1.24,0-1.55-.62h0a3.68,3.68,0,0,0-2.8-1.56h-.31a1.14,1.14,0,0,1-.93-.31,19.27,19.27,0,0,1-2.48-3.1l-.93-1.24c-2.48-3.1-6.52-5.28-9-6.52s-6.52-1.55-8.38-1.55a13.43,13.43,0,0,0,1.55-.31c.93,0,7.45-.31,9-.31,8.07,1.24,15.52-4.35,16.14-5.59a.44.44,0,0,0-.62-.62c-1.55.62-7.45.31-9.62,0-9.93-1.24-24.21,4.35-24.21,4.35-.62,0-.93.31-1.55.62a13.16,13.16,0,0,1,3.72-1.55h.31a29,29,0,0,0,4.66-3.11,68.94,68.94,0,0,1,6.52-5c1.86-1.25,7.75-6.52,8.69-8.07.93-1.24,3.41-3.42,8.38-6.52l.31-.31a.3.3,0,0,0-.31-.31c-.32,0-8.38,0-12.11,2.17-.31.31-.62.31-.93.62-1.86,1.24-5.28,3.11-7.45,5.59C451.12,414.34,440.57,423,436.84,425.82Zm-17.07-.93a9.1,9.1,0,0,0-3.1-.93,10.55,10.55,0,0,0,4-2.79A8.25,8.25,0,0,1,419.77,424.89ZM423.19,405a37.49,37.49,0,0,1-.63,9.93,19.06,19.06,0,0,0-4.34.31C419.46,412.48,421.94,407.51,423.19,405Zm-9,13.66c1.86-2.49,5-3.73,9-3.11a11,11,0,0,1-6.83,7.45c-.31,0-.62.31-.93.31a1.14,1.14,0,0,1-.93-.31v-.62h0c-.31-.31-.31-.93-.63-1.24h0l-.31-.31-.31-.31A3.24,3.24,0,0,1,414.19,418.69Zm-7.76,7.13a1.14,1.14,0,0,0-.31-.93h0v-.62a3.26,3.26,0,0,1,1.55-2.79h0a.3.3,0,0,0,.31-.31h0a1.14,1.14,0,0,1,.93-.31c.31,0,.62-.31,1.24-.31h.31a1.14,1.14,0,0,1,.93.31.3.3,0,0,1,.31.31c.31.31.62.31.93.62l.31.31v.31h0a1.61,1.61,0,0,1,.62,1.24h0c0,.31.31.62.31.93h0v.62h0a1.14,1.14,0,0,1-.31.93v.31c-.31.31-.31.63-.62.94h0v.31a.3.3,0,0,0-.31.31h0c-.31.31-.62.62-.93.62s-.93.31-1.24.31h-.93a1.14,1.14,0,0,1-.93-.31h0c-.93-1.24-1.86-1.87-2.17-2.8Zm2.79-15.2c3.41,3.1,4,5.89,2.48,9.62a3.93,3.93,0,0,0-1.86-.31h-.31a2.37,2.37,0,0,0-1.55.62C406.74,417.75,406.12,413.1,409.22,410.62Zm-11.48-6.83a23.92,23.92,0,0,0,1.86,4.65c.93,2.49,2.17,5.59,3.1,7.76-.93-.31-2.48-.62-3.72-.93A35.08,35.08,0,0,1,397.74,403.79Zm-.31,12.41h0c6.51,0,9,3.73,9.62,4.66a5,5,0,0,0-1.56,3.41h0c-.62,0-1.55-.31-2.17,0A14.59,14.59,0,0,1,397.43,416.2Zm5,8.69h0c-.62,0-.93-.62-1.24-.93C401.46,424,401.77,424.58,402.39,424.89Zm-14.28-5c-7.75-3.73-8.69-5.9-9.93-9,0-.31-.31-.62-.31-.93a39,39,0,0,1,11.8,4.65,19,19,0,0,0,1.86,1.24,18.36,18.36,0,0,0,1.86,1.24c2.79,1.56,7.14,6.83,8.07,8.38a5.93,5.93,0,0,0-1.86,3.11C392.77,422.72,390.6,421.17,388.11,419.93Zm14.28,5.58a3.93,3.93,0,0,1,1.86-.31h1.24l.32.93h0l.31.62h0l1.24,1.25c0,.31-.31.31-.31.62-1.24,2.48-2.18,4.34-8.07,5C399.91,428.93,400.84,426.44,402.39,425.51Zm4.35,5v.93a.3.3,0,0,0-.31-.31A1,1,0,0,0,406.74,430.48Zm1.86,11.79h-1.55c-3.42-6.2-9.62-8.69-15.52-10.86-4.66-1.86-6.21-2.17-9.31-3.41a28.61,28.61,0,0,0-2.8-.93c-5-1.56-10.24-3.42-11.48-5.28a19,19,0,0,0-2.79-4c3.41,1.56,7.76,2.8,9.31,2.8,1.55.31,5.27.93,6.52,1.55a79.21,79.21,0,0,1,17.38,8.38c-.31.93-.62,1.86-.93,3.1v.31h.31a13.76,13.76,0,0,0,4-.62,22.83,22.83,0,0,1,1.55,1.86c.31.63.31.63.62.63h0a.31.31,0,0,0,.31-.32v-.31h0v-.31c-.31-.62-.62-1.55-.93-2.17a5.34,5.34,0,0,0,2.49-1.86,1.61,1.61,0,0,1,.62,1.24,8.14,8.14,0,0,0,2.79,5.9,17.48,17.48,0,0,1,1.24,3.72l-1.86.62Zm3.1,0-.93-2.79h.93c.31-.31.31-.62.62-.93v.62C412,439.17,412,440.72,411.7,442.27Zm-.62-3.41c-4.34-3.1-4-7.14-3.1-10.24h.31a1.53,1.53,0,0,0,.93.31h.93a2.79,2.79,0,0,0,1.55-.31c.31,0,.62-.31.93-.31h.31C414.5,432.34,412.94,436.07,411.08,438.86Zm2.17-10.55c.31,0,.31.31,0,0l.31.62C413.56,428.62,413.25,428.62,413.25,428.31Zm1.87,13.34v.62h-2.8a20.88,20.88,0,0,0,.31-3.1l.31-2.17h0c.93-2.18,1.56-4.35.93-6.52h0l.32-1.24a9.43,9.43,0,0,0,3.41,1.86h0C415.43,435.44,415.43,439.79,415.12,441.65Zm2.79-11.48h0c-.93,0-3.72-1.86-4.66-2.79l.62-.63h0v-.31h0l.32-.93v-1.24c4.65.62,7.13,1.86,9,5.59A10.7,10.7,0,0,1,417.91,430.17Zm4.65,12.1h-4.65c.31-5.89,1.86-9.62,2.48-10.24l.62-1.24a6,6,0,0,0,3.11-.93.3.3,0,0,0,.31-.31v-.31c-.31-.62-.93-1.24-1.24-1.86l.31-.32c5-6.51,7.75-9.93,14.27-14-1.86,10.86-4.65,14.28-7.45,16.45C427.53,432.34,423.19,437.62,422.56,442.27Zm52.77,3.42h0c.31.31.62.31.93.62h1.86a6.69,6.69,0,0,1,3.1,2.48l.62.62a6.52,6.52,0,0,0,1.87,1.24,21.36,21.36,0,0,1,2.48.93,10.26,10.26,0,0,1-4,2.49c-.62-2.18-1.55-4.35-3.1-5.59l-.31-.31c-.31,0-.62-.31-.93-.31-.62-.31-.93-.62-1.55-.62h0c-.31,0-.31,0-.31.31s0,.31.31.62a9.79,9.79,0,0,1,3.72,3.1h0a.3.3,0,0,0,.31.31c0,.31.31.31.31.62.31.94.31,1.56.62,2.49a1.86,1.86,0,0,0,.31,1.24,3.94,3.94,0,0,0,1.24,2.17c-3.1-.62-5-1.55-5.89-3.1-.31-.31-.31-.93-.62-1.24a9.84,9.84,0,0,0-1.24-3.42l-.62-.62h-.32s-.31.31,0,.31a4.29,4.29,0,0,1,.63,1.86v.31a4,4,0,0,1,.31,1.87v1.24l.93,1.86h0c.31.31.93.62,1.24.93a16.85,16.85,0,0,1,2.48,1.24c-3.1-.31-5.27-1.24-6.21-4.34a13.83,13.83,0,0,1-.62-4,.3.3,0,0,0-.31-.31c-.31,0-.31,0-.31.31-.31,3.11-.31,5,.62,6.52a4.28,4.28,0,0,0,.93,1.24l.94.93a8.44,8.44,0,0,1-5.28,2.18v-.31a9.2,9.2,0,0,0,.62-5.59,13.43,13.43,0,0,0-.31-1.55c0-.31-.31-.62-.31-.93v-2.18a.3.3,0,0,1,.31-.31.58.58,0,0,0,0-.93v-.31h0A10.47,10.47,0,0,1,475.33,445.69Zm2.79,11.48a1,1,0,0,0-.62-.31,5.67,5.67,0,0,1-1.86-2.48v-.31a6.49,6.49,0,0,0,1.24,1.86l.31.31C477.19,456.55,477.81,456.86,478.12,457.17Zm-17.38-49.66a2.35,2.35,0,0,1,1.24-.62c2.79-1.86,7.76-2.17,10.24-2.17-4.34,2.79-6.51,4.65-7.45,6.21s-6.51,6.51-8.69,7.76c-2.17,1.55-5,3.72-6.51,5-1.25.93-4,2.79-4.35,3.1-1.24.32-6.83,3.42-9.62,5a6.78,6.78,0,0,0-1.55.93c-.31,0-.31.31,0,.62,0,.31.31.31.62,0A.3.3,0,0,0,435,433h0l1.24-.62c2.17-.93,5.9-2.48,7.76-3.1,0,0,14-5.9,23.9-4.35a65.51,65.51,0,0,0,9,.31c-2.17,1.87-8.07,5.28-14.59,4.35a41.37,41.37,0,0,0-9,.31c-1.86.31-3.72.62-5,.93h-.62a2.32,2.32,0,0,0-1.55.31c-.31,0-.31.31-.31.62s0,.31,1.86,0h2.8c.62,0,6.2.31,9,1.55a24,24,0,0,1,8.69,6.21l.93,1.24a38.74,38.74,0,0,0,2.79,3.1c.62.63.93.63,1.24.63h.31a3.43,3.43,0,0,1,1.87.93,14.74,14.74,0,0,0-5,2.48v-2.79c0-.31-.31-.62-.93-1.25l-.93-.93c-.62-.93-5-5.58-7.45-6.82a23.07,23.07,0,0,0-10.86-3.42h-1.87c-4.34,0-12.72,2.48-15.82,3.73-.31,0-.31.31-.31.62s.31.31.62.31c0,0,14-4,24.2,1.24,4.66,2.48,7.76,6.83,9.32,12.41a19,19,0,0,1,0,6.21,59.09,59.09,0,0,1-5.59-4.34s-6.83-10.87-17.38-13.35c-5.28-1.24-10.86,0-16.14,3.41h-3.1c.93-4,2.79-5.89,4-7.76l.31-.31a65.47,65.47,0,0,1,9-8.07c3.11-2.48,14.28-11.17,16.14-13.34C455.46,410.62,458.88,408.75,460.74,407.51Zm210.73-61.76v-1.86H328.53v1.86s-.32,176.6-.32,205.46c0,66.42,58.66,136.87,165.43,198.32l6.2,4,6.52-4c106.46-61.14,165.43-131.9,165.43-198.63C671.79,522.35,671.47,345.75,671.47,345.75Zm-282.11,47.8v-6.83l-7.45,4.65,4.34-8.69-8.38,3.11,5.9-8.38-6.83,1.24,7.45-7.45-9.31.93,7.76-6.21-5.28-.93,6.83-3.41-6.21-2.17,8.07-2.49L381,354.75l6.2-2.17-4-4.35,15.21-.31-5,3.11,5,.31-3.11,4.34,5-.93-.93,3.73,3.41-1.87v2.8l2.79-2.18.32,3.11c-.94,1.55-2.18,4-2.8,5.27-.62-.31-.93-.31-1.24-.62h-.62v19.56c1.86,2.17,5.59,1.86,5.9,1.86a13,13,0,0,1,6.2,1.24h0v.93a7.48,7.48,0,0,0-4.65-1.24h-1.24a14.78,14.78,0,0,1-6.83-2.17V366.54a.3.3,0,0,0-.31-.31c-.31,0-.31,0-.31.31v18.94h0a11.77,11.77,0,0,0,7.45,2.17h1.55a7.48,7.48,0,0,1,4.65,1.24v.62a7.13,7.13,0,0,0-4.34-1.24H408a16.33,16.33,0,0,1-8.07-2.79V366.85a.3.3,0,0,0-.31-.31c-.31,0-.31,0-.31.31v18.94h0c1.86.93,4.65,2.79,8.38,3.1h1.24a6.68,6.68,0,0,1,4.34,1.24v.93a10.35,10.35,0,0,0-5.27-1.55l-3.11-.31a37.2,37.2,0,0,1-6.82-3.1v-18a.3.3,0,0,0-.31-.31c-.31,0-.31,0-.31.31V387c.31,0,4.34,2.79,7.13,3.41l3.11.31a11.17,11.17,0,0,1,5.58,1.55h.31a13.4,13.4,0,0,1,5.28-1.55,13.76,13.76,0,0,0,10.55-3.1V367.17h-.31l-.93.62v-1.25h-.31l-.93.31v-1.24h-.31l-.93.62h0v-.31h-.31a9.83,9.83,0,0,1-4,1.25H421a18.85,18.85,0,0,0-3.41-.32c.62-1.24,1.24-3.1,1.86-4.34h0s.31-.31.31-2.79l2.48,1.55-.31-3.73,4,3.11L424.74,356l5,2.17-3.1-4.34,4.65.62-2.79-3.1,5.28-.93-4-1.87,15.83.31-6.52,4,9.63,3.41-8.38.93,8.69,4-6.83.31,8.38,4.65h-8.69l11.48,6.21-7.14-.93,3.42,5.9-7.76-3.73,5.89,9.62-5.89-3.1,3.1,5.9-5.9-4,3.42,10.24-8.38-5.58,2.48,9.93-5.9-5.59-.93,7.14-4.34-5.59-1.55,6.52-4-4.34-1.86,5-4-4.34-3.1,4.65-2.79-5-4.35,4.34-.93-5.27-4,2.79-.93-4.35-4,3.42.31-5.59Zm38.79-25.14.62-.62V387a13.3,13.3,0,0,1-9.93,2.79,19,19,0,0,0-5.28,1.24v-1.24a7.53,7.53,0,0,1,4.66-1.24h1.24c5-.31,5.59-.93,7.14-1.86.31-.31.93-.62,1.24-.93v-.31Zm-1.86,18.31c-1.55.93-2.17,1.55-6.83,1.86h-1.24a7.53,7.53,0,0,0-4.66,1.24v-.62a9.29,9.29,0,0,1,5.28-1.24h.93a11.4,11.4,0,0,0,6.83-2.17.3.3,0,0,0,.31-.31V367.79l.62-.31V386.1A2.35,2.35,0,0,1,426.29,386.72Zm0-19.24h0v17.69c-.62.62-2.79,1.86-6.52,1.86h-.93a9.29,9.29,0,0,0-5.28,1.24V387c.94-.31,4-1.55,6.83-.93h0a10.7,10.7,0,0,0,5-1.86V366.85l.93-.62Zm-1.24,16.44c-1.55,1.56-4.35,1.56-4.66,1.87a11.07,11.07,0,0,0-6.83.93v-6.83h.31c.94,0,1.56-.93,1.87-1.55.62-1.24,1.24-2.79.93-4l-.62-4c0-.31.62-1.55.93-2.79h0a19.43,19.43,0,0,1,3.41.31,11.18,11.18,0,0,0,4.35-.94C425.05,366.85,425.05,383.92,425.05,383.92Zm-9.62-13.65h0l.62,4.34a4.79,4.79,0,0,1-.62,3.42c-.62.62-.93,1.24-1.56,1.24-.31,0-.31,0-.62-.31a1.86,1.86,0,0,1-.31-1.24v-.62c.31-.31.62-.31,1.25-.31a.3.3,0,0,1,.31.31s.31.31.31,0v-.31l-.62-.62c-.63,0-.94.31-1.25.31,0-.31-.31-.62-.31-1.25-.93-2.48-1.55-8.38-1.55-8.38a.3.3,0,0,0-.31-.31,8.72,8.72,0,0,0-2.48-.31,11.06,11.06,0,0,1-4-.93,44.06,44.06,0,0,1,3.11-5.89l.31-.31h0c2.79-4.35,2.48-6.52,2.48-6.83v-4.35h9a20.05,20.05,0,0,0-.62,5c.93,7.14.62,8.38.62,8.69h0A63.4,63.4,0,0,0,415.43,370.27Zm-2.8,9.31a1,1,0,0,1,.62.31V387a15.7,15.7,0,0,0-6.2-1.24,9.71,9.71,0,0,1-5.59-1.87V365.61a23.45,23.45,0,0,0,5.59,1.87c.62,0,2.79.31,2.79.31,0,1.24.62,6.2,1.55,8.07.31,1.24.62,1.55.62,1.86h0A3.06,3.06,0,0,0,412.63,379.58Zm-3.41-31.66v4.66s.31,2.17-2.48,6.21l-.31.31-.31-3.42-2.8,1.86v-2.48l-2.79,1.55.93-3.1-4,.93,2.48-3.72-3.42-.31,5.28-3.11,7.45.62ZM430,349.79l-4.34.93,2.17,2.48-4-.62,2.48,3.41-3.73-1.55,1.25,3.72-3.42-2.48.31,4-1.55-.93a46.16,46.16,0,0,0-.62-5.28,22,22,0,0,1,.62-5.28v-.31h5.59Zm68.9,398.81-3.1-1.86c-59.9-34.45-104.59-71.7-131.9-109.56l54.31-28.86,80.69,45.62V748.6Zm0-136.25-80.69-45.62L345,605.52c-8.38-18.31-13-36.31-13-54.31V517.07H498.6l.31,95.28Zm0-97.76H332.25v-167H390.6l-9.62.31,4.65,4.66-6.83,2.48,5,2.17-8.07,2.49,6.83,2.48-7.45,3.72,6.21,1.25L372.6,374l9.62-.93-7.76,7.45,7.45-1.24-6.52,9,9.31-3.41-4.65,9.62,8.69-5.59v6.83l4.34-3.42-.31,5.59,4.66-3.72.93,4,4-2.79,1.24,5.9,4.66-4.66,2.79,5.28,3.42-5.28,4.34,4.66,1.86-5,4,4.34,1.24-6.2,4.34,5.89.93-7.44,7.14,6.51-2.48-10.24,7.14,5.9-3.42-10.86,6.83,4.34-3.1-6.52,6.52,3.42-6.21-9.62,7.45,3.72-3.73-6.83L458,374.3l-12.73-6.82h8.69l-8.69-5,7.45-.31-9-4,9-1.24-11.48-4,7.45-4.66-9-.31h59.9l-.62,166.67Zm169.15,0H501.71V413.41H668.06Zm-138.42-167h26.07v64.56H529.64Zm82.87,0h27v64.56h-27Zm-27.63,0H611v64.56H584.88Zm-27.62,0h26.38v64.56H557.26Zm83.8,64.56V347.61h27v64.56Zm-113-64.56v64.56H501.4V347.61ZM504.5,746.74l-3.1,1.86V517.38H667.75v34.14C668.06,639.66,565.64,711.67,504.5,746.74Z"/><path class="cls-4" d="M364.53,313.16V254.81L353,256.06l1.87-7.76,18.93-1.87v66.73Zm95-17.69v17.69h-9.31V295.47H423.81L422.25,288l31-40.65h6.21V288h7.76v7.76H459.5Zm-9.31-31.66c-1.87,3.11-4,5.59-5.9,8.38L432.19,288h18V263.81Zm77.28,51.52L518.16,311c12.72-6.21,22.34-14.9,27-26.38A14.45,14.45,0,0,1,534.61,289c-12.73,0-21.11-9.31-21.11-21.1,0-12.41,9.31-21.42,21.73-21.42,12.1,0,22.34,8.38,22.34,23.9C558.19,287.4,545.16,306,527.47,315.33Zm8.07-60.83c-6.83,0-12.11,5.28-12.11,13,0,7.45,5,13,12.42,13,5.27,0,10.86-2.17,12.72-9.31v-3.1C548.57,260.71,542.36,254.5,535.54,254.5Zm86.28,59.9a31.22,31.22,0,0,1-12.42-2.48l-.93-9.31a24.47,24.47,0,0,0,13,3.72c7.76,0,14-5,14-13a13.38,13.38,0,0,0-13.65-13.66,29.44,29.44,0,0,0-11.49,1.87l.93-33.83h28.87l-1.86,8.07h-18L620,271.57c.94,0,1.87-.31,2.8-.31,12.41,0,22.34,8.38,22.34,21.73C644.78,304.47,637,314.4,621.82,314.4Z"/></svg>