<?xml version="1.0" encoding="UTF-8" standalone="no"?>
<svg xmlns:rdf="http://www.w3.org/1999/02/22-rdf-syntax-ns#" xmlns="http://www.w3.org/2000/svg" enable-background="new 0 0 252 252" xml:space="preserve" height="246.97" viewBox="0 0 246.85306 246.9651" width="246.85" version="1.1" y="0px" x="0px" xmlns:cc="http://creativecommons.org/ns#" xmlns:dc="http://purl.org/dc/elements/1.1/"><g fill="#332064" transform="translate(-2.413 -2.2629)"><path d="m227.69 103.84c3.6674-0.48935 8.7095 1.188 9.5244 7.2958 0.68113 5.0811-2.016 8.6484-6.9198 9.3115-4.9153 0.646-9.2295-2.0992-9.9221-7.2706-0.77828-5.8563 3.5234-8.8336 7.3176-9.3367m1.4434 14.068c4.8136-0.6277 7.4433-3.6565 7.0033-6.9917-0.30856-2.3508-2.0262-4.8364-7.3701-4.1412-4.4594 0.59454-7.6913 3.3935-7.1782 7.3129 0.18515 1.4258 1.3486 4.6272 7.545 3.82"/><path d="m235.83 121.5c1.1966-0.4562 1.4423-0.79921 1.6628-1.5355 0.0937-0.31671 0.096-0.64257 0.096-0.80493 0.008-0.18294 0.0697-0.24811 0.19657-0.24468 0.17828 0.001 0.20114 0.22524 0.19771 0.53395-0.0194 1.0976-0.0983 2.2707-0.10633 2.9899-0.005 0.5088 0.0446 1.4978 0.0309 2.52-0.002 0.2481-0.0446 0.48135-0.20343 0.48021-0.15199-0.005-0.19199-0.13378-0.18971-0.31786 0-0.32471-0.016-0.63228-0.13942-0.80035-0.10862-0.14178-0.25828-0.20466-0.45028-0.21038-0.28799-0.005-0.89027 0.17036-1.6765 0.44934l-9.8592 3.4186v0.0823c2.3622 0.91354 9.3038 3.6713 10.714 4.1778 0.28114 0.10977 0.6137 0.19437 0.80342 0.19666 0.17142 0.005 0.34399-0.0766 0.41485-0.26183 0.0869-0.24582 0.11433-0.54881 0.11433-0.81979 0.007-0.18408 0.024-0.35673 0.176-0.3533 0.176 0.002 0.21485 0.19666 0.21029 0.5854-0.0114 1.0222-0.0846 1.8888-0.0915 2.1552 0 0.34987 0.0492 1.3194 0.04 1.9334 0 0.26297-0.0423 0.42876-0.19657 0.42647-0.152-0.002-0.19428-0.12234-0.18972-0.33272 0.005-0.20237 0.005-0.63228-0.24685-1.0142-0.19199-0.26526-0.55427-0.57397-1.9314-1.1502-2.0228-0.82894-3.1874-1.3926-5.8319-2.544-3.1439-1.3572-5.489-2.3428-6.5656-2.807-1.248-0.56025-1.5886-0.68602-1.5863-0.97414 0.008-0.26526 0.30971-0.38303 1.3234-0.76263l13.284-5.0159z"/><path d="m222.8 130.97c0.54628 0.0377 1.2983 0.46078 1.2388 1.3377-0.0446 0.69974-0.57256 1.2246-1.3314 1.1788-0.7554-0.0469-1.3462-0.58769-1.2937-1.364 0.0526-0.85638 0.78514-1.1868 1.3863-1.1525"/><path d="m152.06 179.98c-7.4044 0.26526-14.072 0.73289-18.989 3.3226-1.2617 0.67115-3.1314 1.5573-3.3199 2.8996 1.2754 0 1.4548-0.71231 2.3565-1.2886 4.2902-2.7532 13.018-3.8223 19.522-3.7536 0.60113 0 3.2811 0.66086 3.2194-0.53853-0.056-0.98672-2.288-0.65972-2.7885-0.64142"/><path d="m137.16 166.35c4.377-0.73862 7.8364-1.3274 12.979-1.7185 0.90054-0.0709 4.1542 0.11891 4.073-0.86095-0.0789-0.88153-2.0537-0.43333-2.1451-0.42876-4.3439 0.34072-8.993 0.57054-12.873 1.611-4.0673 1.0885-8.009 1.5287-9.5472 4.9348 1.8411-0.59684 3.1382-2.1484 5.1473-2.8984 0.6937-0.25725 1.544-0.50765 2.3657-0.63913"/><path d="m131.47 155.83c2.2834-1.9426 5.6833-3.1934 9.8684-3.7605 3.2788-0.44477 7.7987-0.51566 10.833-0.64257 1.1623-0.0492 2.36 0.072 2.36-0.64257 0-1.0279-3.1496-0.66086-3.4388-0.64257-4.0205 0.19437-8.7141 0.40132-12.763 1.5012-2.7634 0.75004-5.5964 1.6076-7.4033 3.1111-0.53828 0.43905-1.5268 1.1536-1.0697 2.0398 0.85941 0.14064 1.1874-0.61627 1.6137-0.96385"/><path d="m131.68 176.43c4.1805-3.142 13.604-4.2956 20.166-4.0726 0.78627 0.0229 1.9382 0.5168 2.4674-0.43105-0.36685-1.1011-2.5108-0.80607-3.6468-0.75005-6.7587 0.32129-13.435 0.7329-17.915 3.4324-1.2423 0.73861-2.9028 1.5481-2.8902 3.1122 0.90855 0.0103 1.2194-0.84037 1.8182-1.2909"/><path d="m149.6 168.82c1.68-0.08 3.8616 0.47336 4.505-0.75576-0.25028-0.89982-1.6697-0.46992-2.3577-0.4299-6.2959 0.39789-14.331 0.65629-19.098 3.0105-1.16 0.57168-2.4628 1.7173-2.6822 3.0082 1.4068-0.0766 1.8708-1.1925 3.0068-1.8305 3.9942-2.2616 10.769-2.7189 16.626-3.0025"/><path d="m149.6 176.01c-6.1062 0.28355-12.853 0.65172-16.951 3.1099-0.97254 0.58426-2.8399 1.691-2.6822 3.007 0.9874-0.072 1.6388-0.9044 2.3599-1.3949 4.6662-3.1866 11.665-3.5479 19.202-3.6473 0.98626-0.0217 2.4685 0.38874 3.0068-0.64829-0.99655-0.99243-3.4971-0.49622-4.9359-0.42647"/><path d="m154.21 155.51c-0.88112-0.93755-3.3348-0.77062-4.7188-0.75004-2.9816 0.0263-5.201 0.57168-7.8318 0.85752-1.6891 0.17608-3.4068 0.25954-4.8273 0.64257-1.3668 0.36702-2.6902 1.029-3.8594 1.6098-1.2365 0.60827-2.8262 1.2177-3.0091 2.5794 1.2388 0.0297 1.8594-0.92841 2.8994-1.5012 4.2902-2.4022 11.424-2.568 17.594-2.8996 1.296-0.0709 3.0822 0.34072 3.7531-0.53853"/><path d="m152.16 158.92c-1.1223-0.08-2.1771 0.17951-3.2228 0.25725-1.9531 0.13835-3.9062 0.30299-5.8467 0.55568-3.4651 0.44477-7.1107 1.0805-10.224 2.7532-1.3211 0.70889-3.0228 1.7265-3.1096 3.2197 1.152 0.0652 1.848-1.0324 2.6811-1.6041 2.5919-1.7859 5.785-2.4891 8.8421-2.9762 1.744-0.27898 3.5051-0.47564 5.2616-0.67687 0.92799-0.0995 4.7805-0.6883 6.0799-0.52251 0.72342 0.20351 1.672 0.15435 1.8034-0.44592-0.22056-0.39331-1.312-0.61627-2.2651-0.56024"/><path d="m120.63 184.48c-1.904-1.1011-3.9702-1.9494-6.2193-2.5714-4.1748-1.1685-8.2067-1.3629-13.088-1.611-1.4103-0.0697-4.1382-0.97643-3.8616 0.965 2.1908 0.41847 4.5508 0.17722 6.865 0.31785 6.0764 0.38875 11.095 1.4269 15.124 3.4381 0.74855 0.37731 1.4743 1.1617 2.3611 0.965 0.39314-0.87353-0.65256-1.1948-1.1817-1.5035"/><path d="m119.78 175.36c-0.86856-0.55224-2.048-1.2142-3.0034-1.6098-4.4982-1.8408-11.531-1.7345-16.842-2.0409-0.89484-0.0514-2.4857-0.5511-2.4674 0.4299 0.008 0.83123 1.8594 0.646 2.5748 0.646 7.7153 0 15.482 0.58083 19.843 3.9732 0.52113 0.40132 0.9497 1.3217 1.8251 0.96271 0.21486-1.0919-1.064-1.81-1.9302-2.361"/><path d="m98.644 155.19c2.2617 0.35673 4.4353 0.23096 6.8661 0.43105 2.6822 0.21495 5.0867 0.77291 7.5073 1.5001 2.6822 0.8015 4.945 1.3778 6.6502 2.4674 0.20686 0.13263 1.2537 1.5298 1.8262 0.965 0.75769-0.76148-1.3245-1.9403-1.5017-2.0409-5.3039-2.9922-12.084-3.573-19.309-4.5026-1.5645-0.20924-3.7633-0.67115-4.1816 0 0.12457 1.2428 1.1966 1.0302 2.1428 1.18"/><path d="m99.182 168.39c2.7965 0.24011 5.7724 0.48022 8.5804 0.53853 4.1199 0.08 8.1712 1.4029 10.834 3.0036 0.92913 0.5511 1.672 1.707 2.8959 1.611 0.16115-0.87239-0.84913-1.4521-1.5005-1.9323-3.8719-2.847-8.833-3.2666-14.911-3.868-2.4308-0.24125-4.7828-0.57968-6.8661-0.64257-0.47428-0.0194-1.2343 0.23896-0.9657 0.7489 0.41256 0.59112 1.288 0.4825 1.9325 0.54081"/><path d="m108.94 151.75c3.7085 0.6197 7.5896 1.5481 10.083 3.3272 0.80226 0.57168 1.1428 1.6613 2.36 1.6121 0.58971-1.1388-0.89483-1.9003-1.8251-2.4697-4.3268-2.6915-10.666-3.7445-17.164-4.402-1.3486-0.13149-5.7313-1.1525-5.4707 0.53852 1.8594 0.6117 3.8982 0.58083 5.9004 0.75119 2.04 0.17151 4.1314 0.31214 6.1164 0.64257"/><path d="m100.15 177.08c7.081 0.08 13.883 0.7569 18.666 3.2174 0.78626 0.40246 1.4994 1.1994 2.4651 1.0725 0.26057-0.92155-0.84912-1.3011-1.3954-1.6098-5.4159-3.1202-13.82-3.9034-22.203-3.86-0.12343 0.0515-0.24342 0.11776-0.32228 0.21381 0 0.24811-0.18629 0.3087-0.10748 0.64485 0.77027 0.77291 1.9062 0.30871 2.8971 0.32129"/><path d="m119.03 163.77c0.7314 0.34072 1.176 1.0393 2.1451 0.86095-0.80455-1.5492-2.9599-2.1701-4.9348-2.9007-3.4514-1.268-7.5918-2.289-11.693-2.4628-0.78514-0.0354-1.5703 0.0423-2.3588 0-1.8137-0.10976-4.6022-1.2977-5.257 0.21381 1.5634 0.83237 3.7976 0.73975 5.7919 0.85981 6.3016 0.35444 11.72 1.3023 16.307 3.4289"/><path d="m105.73 164.63c4.5519 0.30185 8.9392 1.539 12.228 2.8984 1.1885 0.49165 2.1634 1.4532 3.3245 1.5001-0.27542-1.2794-1.7794-1.93-3.0034-2.4697-5.1393-2.2318-10.661-2.7978-17.378-3.2186-1.3508-0.0892-3.1005-0.71232-3.8605-0.32014-0.16 0.0892-0.23314 0.26869-0.21485 0.53852 2.4491 1.1971 5.9084 0.8621 8.9038 1.0713"/><path d="m166.55 147.56c-1.0903-0.4299-2.1851-1.5561-3.4376-2.369-0.34857-0.22524-0.88112-0.37731-1.288-0.63914-0.53142-0.35101-0.69256-0.67001-1.1783-0.75004-1.2525-0.22067-3.4331 0.40818-4.9313 0.52938-1.7691 0.15092-3.5862 0.14063-5.257 0.22066-7.3073 0.34073-13.327 1.5584-18.235 3.8623-2.6297 1.2371-4.5245 2.9099-6.545 4.5071-3.6445-3.6919-8.7141-6.0518-15.016-7.2947-6.3039-1.2623-13.553-1.0565-20.276-2.1575-0.62627 0.0995-0.28456 1.1525-0.64113 1.5115-0.61027 0.0617-0.8937-0.1795-1.5028-0.10633-0.17028 1.1548-1.6445 1.0027-2.5748 1.3949-0.31999 0.46535-0.03656 1.5298-0.42856 1.93-0.71656 0.41961-2.0125 0.26869-2.2537 1.1811 0.96569 13.828 1.1805 28.214 2.1462 42.07 0.13486 1.8762 0.08 3.8154 0.7497 5.5716 10.146-0.67573 23.957-0.62885 33.003 1.2314 4.3348 0.89182 6.9278 2.4617 11.239 1.1194 1.08-0.34186 1.712-0.78777 2.8388-1.4521 2.0491-1.1982 5.177-1.8865 8.1587-2.1804 2.9417-0.29727 6.1782-0.50994 9.0158-0.54767 6.5187-0.072 12.604 0.51909 18.555 0.32929-0.04-15.114-1.2777-32.6-2.1405-47.962m-5.2479-0.60941c0.16-0.24925 0.64456 0.12234 0.86741 0.45277 0.40114 2.5211 0.17485 4.2167 0.36229 6.8019 0.16913 2.4319 0.27313 5.8757 0.45712 8.2654 0.53828 7.0786 0.28343 13.593 0.55999 20.217 0.0423 1.1902 0.11205 2.369 0.11205 3.5421 0 0.60256-0.0869 1.2143-0.0537 1.818 0.0366 0.57168-0.14743 2.4834-0.18513 2.5257-2.6045-0.1212-6.1164-0.19895-9.3095-0.0537-3.5382 0.16693-7.0159 0.2504-10.082 0.53967-1.152 0.10519-3.9919 0.44476-4.1165 0.50079-2.1005 0.40475-3.2411 0.65629-5.3793 1.3046-1.4491 0.43905-3.3885 1.2131-4.7382 1.9071-1.776 0.90669-2.2445 0.95928-2.2422 0.94213 0.34284-1.2726 5.7713-3.4061 6.8044-3.7868 5.7199-2.1004 15.849-3.2208 27.585-2.5874 0.60571-3.294 0.27543-6.851 0.10862-10.407-0.43084-9.02-0.29714-17.849-0.7497-26.831-0.0915-1.7093-0.0469-3.9343 0-5.1508m-35.291 8.1533c0.52456-1.699 4.0834-4.2339 5.6833-5.1497 7.057-4.0224 17.395-3.7022 27.46-4.291 0.25943-0.0217 0.176-0.14292 0.53829-0.10976 0.66856 0.55682 0.33027 1.5401 0.31885 2.2581-0.12686 6.1936 0.2617 12.242 0.53827 18.562 0.31199 7.1643 0.49142 14.49 0.53484 21.784-6.6798 0.21609-13.264 0.23667-19.202 1.18-5.9199 0.9387-10.913 2.927-15.232 5.2618-0.25942-11.794-0.58056-23.116-0.64113-34.877-0.0114-1.6384-0.34171-3.5101 0.001-4.6192m-35.292-7.1906c0.024-0.85295 0.23085-1.8888 0.64113-2.5726 13.348 0.74205 28.195 0.90326 33.578 9.9804 0.15999 12.035 0.55198 26.385 0.42855 38.744-2.3154-0.64486-4.5428-1.8054-7.081-2.5771-4.8079-1.4578-10.896-2.2193-16.947-2.3599-3.0011-0.0709-5.9633 0.0915-8.7964 0-0.8217-1.4201-0.56113-3.6107-0.64227-5.6894-0.16228-4.3345-0.13485-8.183-0.32228-12.446-0.06285-1.3549 0.15657-2.7795-0.10743-3.9743-0.01258-0.97529-0.03086-2.0432-0.06058-2.9293 0.05714-0.38875 0.0011-0.81979-0.06285-1.236-0.01943-0.25382-0.03999-0.44591-0.06399-0.55224-0.0023-0.0194-0.01029-0.0263-0.01371-0.0423-0.0069-0.056-0.01371-0.11663-0.01485-0.17265-0.10057-2.2033-0.01943-4.6615-0.21485-7.1918-0.18857-2.4102-0.39428-4.9142-0.31999-6.9814m-1.9348-1.3926c1.28 0.73404 0.78627 2.7212 0.85941 4.1836 0.18057 3.6428 0.45599 8.1476 0.75084 12.128 0.03885 0.51337-0.05372 1.1479 0.11885 1.651 0.01485 0.80264 0.02857 1.6808 0.04914 2.4891-0.08914 0.61856 0.02057 1.3217 0.04686 1.8717 0.144 2.9613 0.43885 5.9889 0.32342 8.7982-0.17143 4.0772-0.43885 8.7627 0.42628 12.446 10.352-0.50765 22.752 0.0755 30.358 3.6508 0.97484 0.45621 2.1177 0.97644 2.6811 1.8294-1.2525 0.26641-2.2365-0.74318-3.3245-1.1811-3.5314-1.4109-7.8387-1.9323-12.336-2.4697-5.8993-0.7066-12.309-0.7329-18.558-0.53624-1.072-5.7054-0.96569-12.253-0.96569-18.997 0-2.1015-0.22285-7.058-0.21485-7.5096 0.072-2.9407-0.32914-6.2096-0.4297-9.3401-0.05143-1.579-0.04457-3.1808-0.10514-4.7198-0.06285-1.4201-0.50856-3.0494 0.31999-4.2933m-2.1428 49.154c-1.0457-6.8499-0.93941-15.127-1.1805-22.97-0.20571-6.4726-0.86627-13.725-1.1794-20.067-0.04457-0.93756-0.17828-2.4456 0.64227-2.3622 0.79655 0.0846 0.8057 4.7964 0.85712 5.5853 0.224 3.5136 0.39999 7.2089 0.55199 10.754 0.144 4.8879 0.49142 16.435 0.5577 18.149 0.01143 0.23554 0.02514 0.40818 0.04 0.54767 0.13828 3.1648 0.41142 6.3297 0.67427 9.2875 7.8547-0.5957 17.013-0.21038 24.731 0.48021 2.0822 0.28241 3.7576 0.63914 4.9302 0.92841 1.2274 0.34301 2.7611 0.81979 2.7325 1.4909-10.546-1.9231-21.971-2.48-33.357-1.8237m30.755-0.37845c-1.7474-0.44591-3.9908-0.76148-4.9645-0.88154-0.30742-0.0537-0.61141-0.10061-0.90512-0.13606-5.945-0.75118-12.184-0.93984-18.345-0.64371-1.2228 0.0537-3.8513 0.58312-4.6125 0-0.39199-0.30756-0.64113-2.0901-0.7497-3.007-0.27657-2.4034-0.37942-4.801-0.50513-7.1289-0.08-3.8508-0.34856-16.33-0.47999-18.556-0.06399-4.4751-0.26971-8.7238-0.30056-13.808-0.01029-1.1548-0.28799-2.6309 0.10743-3.1111 0.08-0.10062 0.19542-0.16236 0.31999-0.21381h0.21485c0.62741 1.2142 0.5097 2.8081 0.53599 4.291 0.08343 3.9332 0.13371 7.9795 0.42856 11.913 0.34971 4.5975 0.16457 10.889 0.4297 16.42 0.208 4.2808-0.06172 8.5203 0.96569 12.232 10.271-0.35673 23.17-0.88039 31.432 2.6812 0.43657 0.18865 1.2948 0.39903 1.2845 1.077-1.5051 0.38303-3.2331-0.89639-4.857-1.1274m4.4708 2.4479c0.96226-2.7121 7.1393-0.95471 7.9964 0.50079-1.6937 1.1536-6.3667 0.55453-7.9964-0.50079m7.3061-1.0965c-0.16114 0.024-0.32343 0.0354-0.49599 0.0354 1.0114-1.611 3.5474-2.2204 5.2342-2.839 1.9668-0.71918 4.0239-1.404 6.1164-1.6476 6.8364-0.80149 14.274-1.188 21.274-0.70774 0.76343 0.0469 3.0845-0.0366 3.0845-0.0366-0.0114 0.003 0.23656-4.163 0.23656-4.5769 0-13.049-1.384-25.672-1.1828-38.53 0.73484 0.54081 0.47998 1.6682 0.53942 2.4708 0.25714 3.6004 0.53141 7.2055 0.78055 10.805 0.128 1.8946 0.40456 11.838 0.40456 12.268 0 6.2073 0.83084 12.715 0.10748 18.458-5.553 0.11891-11.737-0.42876-17.592-0.10748-0.11543 0.007-0.22171 0.0137-0.33714 0.0206-3.4525 0.21152-6.9141 0.65057-10.261 1.5287-1.4925 0.39103-2.9611 0.87352-4.3805 1.4669-1.2286 0.51794-2.2468 1.2154-3.5279 1.3915m28.692-2.584c-8.1073-0.40475-16.882 0.0252-22.843 2.1427-1.2103 0.42991-2.9176 1.3755-4.1679 1.0965 0.76456-1.0164 2.2891-1.4624 3.3096-1.8465 8.5598-3.2689 21.264-2.0626 31.912-2.1678 0.23429-1.5344 0.25943-3.1854 0.22743-4.7095-0.11544-5.0914-0.59542-17.387-0.56456-18.078 0.0755-1.5676-0.46628-8.3763-0.52914-10.156-0.0537-1.7459-0.11434-3.4895-0.15428-5.2343-0.024-0.88153-0.0492-1.7654-0.0663-2.648-0.006-0.28241 0.13715-2.4125-0.0434-2.5062 0.75998 0.40475 0.5897 1.4692 0.64685 2.1484 0.67769 9.1926 0.82054 19.039 1.4994 28.655 0.30286 4.3699 0.21142 8.7513 0.21142 13.093-2.8925 0.75576-6.1644 0.37617-9.4386 0.21152"/><polygon transform="matrix(1.1428 0 0 1.1434 -18.031 -18.027)" points="66.61 129.7 66.61 136.77 65.039 136.77 65.039 129.7 62.513 129.7 62.513 128.54 69.134 128.54 69.134 129.7"/><polygon transform="matrix(1.1428 0 0 1.1434 -18.031 -18.027)" points="76.96 135.61 76.96 136.77 71.396 136.77 71.395 128.54 76.829 128.54 76.829 129.7 72.966 129.7 72.966 131.94 76.584 131.94 76.584 133.1 72.966 133.1 72.966 135.61"/><path d="m78.454 133.84-0.12571-0.016v-0.12692-0.14406l0.11314-0.024c1.1463-0.25268 1.8948-1.0164 1.9005-2.2136 0-1.8614-1.576-2.3565-3.2274-2.3782h-3.9771v9.4087h1.7965v-3.9034h2.3462c0.82512 0.0446 0.95884 0.90211 1.0103 1.4246 0.08914 0.83466 0.18057 1.6636 0.33828 2.4788h1.9302c-0.30971-0.63113-0.37028-1.5904-0.45599-2.1346-0.2-1.38-0.14285-2.1953-1.6491-2.3713m-1.6343-0.72832h-1.744-0.14171v-2.847h1.888c0.94055 0.001 1.6011 0.44019 1.5897 1.3789 0.01143 0.92841-0.63313 1.4658-1.592 1.4681"/><path d="m88.753 133.84-0.12571-0.0149v-0.12806-0.14292l0.11199-0.024c1.1474-0.25154 1.8948-1.0164 1.9005-2.2136 0-1.8591-1.576-2.3565-3.2262-2.3793h-3.9771v9.4087h1.7931v-3.9057h2.3497c0.82284 0.0446 0.95884 0.90212 1.0103 1.4269 0.08914 0.83351 0.18057 1.6636 0.33828 2.4788h1.9291c-0.30971-0.63342-0.37028-1.5916-0.45713-2.1347-0.19885-1.3789-0.14285-2.1941-1.6468-2.3713m-1.6354-0.72718h-1.7451-0.144v-2.847h1.8914c0.94055 0.001 1.6011 0.44019 1.5897 1.3789 0.01257 0.92956-0.63199 1.4658-1.592 1.4681"/><path d="m95.934 128.94-3.3988 9.4087h1.6788l0.7257-2.0523h4.0411l0.69942 2.0523h1.7897l-3.2685-9.4087h-2.2674zm2.6194 6.029h-3.1759l1.5211-4.4202h0.10405 0.128l1.3645 4.235 0.05831 0.18523z"/><path d="m107.08 132.86c-0.7977-0.18408-1.8777-0.33271-1.8822-1.5058 0.005-0.95585 0.88226-1.3915 1.6868-1.3938 1.0091-0.0183 1.6331 0.51451 1.7417 1.4658h1.7234c-0.0743-1.7711-1.4114-2.6732-3.1976-2.6858-1.9531 0.0103-3.8811 0.9467-3.8834 3.0562-0.0149 1.5858 1.7394 2.1964 3.1005 2.5326 0.78626 0.21152 2.2937 0.26869 2.3234 1.5756-0.0149 1.1697-1.2366 1.4292-2.0754 1.4303-1.0891-0.001-1.7725-0.72146-1.7748-1.7562v-0.0423h-1.8285v0.009c0.0126 2.2478 1.4331 2.9899 3.5759 3.0116 2.0582-0.0126 4.0262-0.80264 4.0308-3.0951 0.0194-1.8042-2.0411-2.2216-3.5405-2.6023"/><rect height="9.4087" width="1.7942" y="128.94" x="121.12"/><path d="m131.49 133.84-0.12571-0.0149v-0.12692-0.14406l0.11433-0.024c1.1463-0.25268 1.8948-1.0164 1.9028-2.2147 0-1.8602-1.5794-2.3553-3.2274-2.377h-3.9759v9.4087h1.7977v-3.9057h2.3462c0.8217 0.0469 0.95656 0.9044 1.0103 1.4269 0.0892 0.83466 0.18056 1.6636 0.33713 2.4788h1.9291c-0.31086-0.63113-0.37028-1.5881-0.45714-2.1346-0.20342-1.38-0.14743-2.1953-1.6514-2.3725m-1.6365-0.72718h-1.7382-0.14285v-2.8493h1.8834c0.94398 0.002 1.6034 0.44248 1.592 1.3812 0.0126 0.92841-0.6297 1.4681-1.5942 1.4681"/><path d="m141.36 133.84-0.12686-0.0149v-0.12692-0.14406l0.11544-0.024c1.1428-0.25268 1.8902-1.0142 1.8948-2.2136 0-1.8614-1.5737-2.3565-3.2251-2.3782h-3.9782v9.4087h1.7977v-3.9034h2.3462c0.82855 0.0446 0.96226 0.90211 1.0114 1.4269 0.0869 0.83351 0.17714 1.6636 0.33713 2.4765h1.928c-0.30971-0.63228-0.36456-1.5904-0.45371-2.1324-0.20227-1.3846-0.14514-2.1975-1.6468-2.3748m-1.6365-0.72718h-1.7428-0.14399v-2.847h1.8914c0.93598 0.001 1.5977 0.43905 1.5863 1.3789 0.0114 0.92956-0.63427 1.4658-1.5908 1.4681"/><path d="m148.51 128.94-3.4011 9.4087h1.6811l0.72456-2.0546h4.0445l0.69942 2.0546h1.7851l-3.2662-9.4087h-2.2674zm2.6205 6.029h-3.1771l1.5234-4.4202h0.10164 0.12457l1.3657 4.235 0.0617 0.18523z"/><path d="m159.31 128.94c-0.0251 0-0.0537 0-0.0835 0.001h-3.1599v9.4087h3.1565 0.0846c2.9234-0.0206 4.6536-1.4246 4.6719-4.7061-0.0172-3.2803-1.7497-4.6832-4.6696-4.7038m2.2365 6.9745c-0.41371 0.65858-1.1714 1.1125-2.4045 1.1125h-0.0137-0.048-1.072-0.14514v-6.7584h1.2057c0.0252-0.002 0.0492-0.002 0.0686-0.002 1.2377-0.005 1.9977 0.44934 2.4114 1.1114 0.41713 0.65857 0.50055 1.4921 0.50398 2.2673-0.001 0.77635-0.088 1.6099-0.50627 2.2696"/><rect height="9.4087" width="1.7942" y="128.94" x="166.66"/><polygon transform="matrix(1.1428 0 0 1.1434 -18.031 -18.027)" points="167.26 135.61 167.26 133.1 170.88 133.1 170.88 131.94 167.26 131.94 167.26 129.7 171.12 129.7 171.12 128.54 165.69 128.54 165.69 136.77 171.25 136.77 171.25 135.61"/><polygon transform="matrix(1.1428 0 0 1.1434 -18.031 -18.027)" points="179.21 135.11 179.19 135.14 179.04 135.31 175.76 128.54 173.26 128.54 173.26 136.77 174.71 136.77 174.71 129.82 174.75 129.79 174.89 129.62 178.29 136.77 180.67 136.77 180.67 128.54 179.21 128.54"/><polygon transform="matrix(1.1428 0 0 1.1434 -18.031 -18.027)" points="186.68 136.77 186.68 129.7 189.2 129.7 189.2 128.54 182.58 128.54 182.58 129.7 185.1 129.7 185.1 136.77"/><path d="m125.84 37.857c48.62 0 88.038 39.431 88.038 88.073 0 48.647-39.417 88.08-88.038 88.08-48.62 0-88.037-39.433-88.037-88.08 0-48.642 39.417-88.073 88.037-88.073m0 2.4571c-47.188 0-85.58 38.409-85.58 85.616 0 47.211 38.392 85.62 85.58 85.62 47.19 0 85.581-38.409 85.581-85.62 0-47.207-38.391-85.616-85.581-85.616"/><path d="m125.84 34.423c50.546 0 91.517 40.994 91.517 91.558 0 50.57-40.971 91.559-91.517 91.559-50.539 0-91.512-40.99-91.512-91.559 0-50.564 40.974-91.558 91.512-91.558m0-1.1182c-51.075 0-92.63 41.576-92.63 92.678 0 51.103 41.555 92.678 92.63 92.678 51.078 0 92.635-41.572 92.635-92.678 0-51.101-41.556-92.678-92.635-92.678"/><path d="m125.84 6.0909c66.058 0 119.6 53.572 119.6 119.65 0 66.087-53.543 119.66-119.6 119.66-66.052 0-119.6-53.571-119.6-119.66 0-66.079 53.547-119.65 119.6-119.65m0-3.828c-32.966 0-63.961 12.843-87.274 36.168-23.313 23.322-36.153 54.328-36.153 87.309 0 32.984 12.84 63.995 36.151 87.32 23.312 23.32 54.307 36.166 87.274 36.166 32.972 0 63.967-12.843 87.277-36.166 23.309-23.323 36.151-54.334 36.151-87.32 0-32.985-12.84-63.993-36.151-87.312-23.31-23.326-54.3-36.169-87.27-36.169"/><path d="m9.4894 125.74c0-64.29 52.091-116.4 116.35-116.4 64.263 0 116.35 52.111 116.35 116.4s-52.088 116.41-116.35 116.41c-64.258 0-116.35-52.119-116.35-116.41m1.1188 0c0 31.836 12.895 60.658 33.749 81.521 20.856 20.865 49.66 33.77 81.481 33.77 31.824 0 60.63-12.905 81.483-33.77 20.856-20.863 33.75-49.685 33.75-81.521 0-31.837-12.895-60.654-33.75-81.518-20.85-20.86-49.66-33.762-81.48-33.762-31.823 0-60.627 12.902-81.483 33.765-20.854 20.864-33.749 49.682-33.749 81.516"/><path d="m45.362 178.74c0.03886 0.35558-0.01943 0.45963-0.42856 0.70545-1.0148 0.62199-2.1691 1.2211-2.4754 1.3812-0.29142 0.15093-0.51999 0.21839-0.60913 0.0755-0.10057-0.15436 0.06285-0.27441 0.20914-0.36131 0.23885-0.14177 0.58513-0.44934 0.85027-0.73289 1.1394-1.2142 1.0103-2.5531 0.34628-3.645-0.94969-1.5813-2.5497-1.6739-3.5302-1.0839-0.90741 0.54653-1.5988 1.3332-1.9245 3.5124l-0.17942 1.2188c-0.42171 2.8893-1.3131 4.3448-2.8091 5.2457-2.0388 1.2348-4.4788 0.50651-5.9599-1.9426-0.69141-1.1491-0.95198-1.9929-1.0937-2.5383-0.06171-0.17722-0.05486-0.30299 0.07085-0.37959 0.23885-0.14407 0.82398-0.39217 2.2628-1.2737 0.40913-0.24353 0.59199-0.27898 0.67884-0.14177 0.07428 0.12348-0.008 0.24125-0.22742 0.37731-0.17142 0.10404-0.69027 0.54195-0.9497 1.1982-0.19085 0.47335-0.44113 1.3252 0.24571 2.4674 0.78855 1.3023 2.0628 1.6122 3.1748 0.94557 0.8537-0.51795 1.2583-1.3149 1.544-3.4758l0.08914-0.7306c0.40114-3.1465 1.2217-4.6764 2.9817-5.7397 1.072-0.65172 2.5851-1.0336 4.2159-0.2927 1.1303 0.5168 1.8834 1.4109 2.4502 2.337 0.61484 1.0267 0.96112 1.8957 1.0674 2.8733"/><path d="m30.06 171.39c-2.9862 1.3743-3.5371 1.6293-4.1485 1.9597-0.64913 0.34986-0.90055 0.68716-0.80913 1.1399 0.03543 0.2321 0.128 0.48364 0.22971 0.70888 0.09371 0.19094 0.104 0.31786-0.05829 0.39103-0.11543 0.0572-0.22514-0.072-0.36114-0.37616-0.32571-0.71232-0.80912-1.9151-1.0583-2.4582-0.21714-0.46192-0.78284-1.5413-1.1097-2.249-0.11428-0.24125-0.14285-0.40818-0.024-0.45848 0.15542-0.072 0.248 0.0183 0.33485 0.20694 0.08571 0.18409 0.17257 0.32358 0.31542 0.53052 0.33028 0.45621 0.7337 0.45163 1.44 0.17379 0.64684-0.25382 1.1943-0.50079 4.1816-1.882l3.4582-1.5973c1.9062-0.8701 3.4605-1.5938 4.2673-2.0546 0.50742-0.29842 0.80112-0.5934 0.61942-1.1914-0.08-0.2767-0.22971-0.7066-0.36228-0.98215-0.09142-0.20924-0.07771-0.32586 0.01943-0.37274 0.14285-0.0617 0.26742 0.0606 0.36685 0.26412 0.56342 1.2245 1.0457 2.4319 1.2754 2.935 0.20571 0.43562 0.80341 1.5767 1.1463 2.3267 0.11199 0.24811 0.11428 0.40361-0.024 0.46535-0.09714 0.0469-0.19085-0.006-0.29485-0.22181-0.13142-0.28584-0.27314-0.49736-0.38856-0.64371-0.24685-0.33386-0.64227-0.2927-1.232-0.0869-0.86627 0.28927-2.4182 1.0039-4.3256 1.8797l-3.4582 1.5927z"/><path d="m30.596 147.29c0.56113-0.16693 0.60799-0.15779 0.81941 0.0354 1.0903 1.0633 1.8925 2.9293 2.3485 4.4637 1.4343 4.8273 0.30514 9.8215-5.4136 11.525-3.3211 0.98558-6.129 0.04-7.801-1.4063-1.7645-1.5355-2.4319-3.2506-2.9291-4.9062-0.39999-1.3583-0.66856-3.1683-0.7017-3.5856-0.04228-0.43905-0.12342-1.1628-0.23542-1.6293-0.048-0.24125 0.02057-0.30299 0.16685-0.34644 0.22742-0.0697 0.84798-0.10519 3.4422-0.87124 0.33142-0.096 0.45028-0.0709 0.49599 0.088 0.04571 0.14063-0.048 0.20466-0.21142 0.27669-0.45371 0.19895-1.0914 0.49393-1.52 1.18-0.48685 0.78664-0.96912 2.648-0.30856 4.8719 0.32114 1.0908 0.83427 2.4971 2.4422 3.5238 1.3097 0.80721 3.0719 1.0565 5.6193 0.30299 4.4582-1.3332 6.9964-5.0228 5.7576-9.1778-0.15314-0.50879-0.35428-1.2062-0.72456-1.6121-0.23542-0.24811-0.52799-0.25039-0.87884-0.1452l-1.9474 0.57854c-1.0423 0.31442-1.8285 0.54767-2.4457 0.75462-0.69484 0.22752-0.97598 0.50079-0.92798 1.1902 0.0046 0.17836 0.08572 0.51794 0.16571 0.79006 0.05371 0.17951 0.048 0.30642-0.07543 0.34872-0.16685 0.0492-0.24914-0.0777-0.33371-0.35329-0.30171-1.0336-0.61142-2.2867-0.78627-2.8824-0.18171-0.60598-0.55313-1.6304-0.74856-2.2822-0.07657-0.25611-0.07657-0.40475 0.08914-0.45277 0.128-0.0366 0.20114 0.0709 0.24571 0.20695 0.04571 0.15778 0.10743 0.28812 0.21828 0.51108 0.26171 0.50308 0.67427 0.59569 1.4045 0.40018 0.62742-0.16694 1.4571-0.4139 2.4948-0.72147l2.2788-0.67572z"/><path d="m21.159 142.65c-3.2525 0.48136-3.8548 0.56711-4.5313 0.70774-0.71884 0.14864-1.0526 0.40247-1.096 0.8621-0.032 0.24354-0.01371 0.5088 0.02171 0.75233 0.02972 0.20123 0.0034 0.33043-0.16571 0.35559-0.12914 0.0183-0.19771-0.13721-0.24457-0.45963-0.112-0.78206-0.23657-2.0661-0.32228-2.6572-0.07314-0.50651-0.31542-1.6956-0.42742-2.4742-0.03885-0.26183-0.01828-0.42648 0.10743-0.44706 0.17257-0.024 0.23657 0.0869 0.26514 0.2927 0.02972 0.20123 0.072 0.35673 0.15086 0.59569 0.18857 0.54196 0.5737 0.64829 1.3303 0.58083 0.6937-0.0583 1.2914-0.15664 4.5462-0.62885l3.7668-0.54538c2.0754-0.30071 3.7656-0.55796 4.6742-0.77291 0.57027-0.14521 0.93027-0.33844 0.92798-0.96157 0-0.29042-0.02285-0.7489-0.06286-1.0553-0.03542-0.22409 0.01143-0.33043 0.12-0.35101 0.14742-0.0206 0.23428 0.1292 0.26971 0.35673 0.19542 1.3492 0.32342 2.6343 0.40456 3.1877 0.06628 0.46534 0.31771 1.7368 0.43656 2.5451 0.03771 0.2664-0.0069 0.41733-0.15542 0.43791-0.10972 0.0194-0.18628-0.056-0.22057-0.29499-0.04228-0.30413-0.11886-0.54653-0.19085-0.71918-0.14514-0.3956-0.52913-0.46191-1.1588-0.43333-0.9097 0.0286-2.6057 0.27212-4.6822 0.58083l-3.7633 0.54538z"/><path d="m23.731 129.6c2.7691-0.0926 4.2616-0.13949 4.6376-0.5854 0.31085-0.35673 0.44685-0.89297 0.39656-2.4994-0.03429-1.0931-0.08229-1.8911-0.68227-2.3851-0.28685-0.24696-0.89941-0.47106-1.3131-0.49736-0.19542-0.0137-0.32571-0.0503-0.33142-0.21495-0.0034-0.14178 0.10286-0.16579 0.36342-0.17608 0.23885-0.007 1.8605 0.0869 2.4925 0.22753 0.48456 0.10976 0.59313 0.21038 0.62742 1.2806 0.048 1.4829 0.03657 2.5486 0.04571 3.4815-0.01485 0.91698-0.0091 1.6624 0.01371 2.5074 0.008 0.21952 0.02286 0.67115 0.05829 1.1674 0.016 0.4745 0.07657 1.005 0.08914 1.4143 0.0057 0.26412-0.05372 0.41618-0.20685 0.4219-0.10286 0.007-0.17028-0.0823-0.18057-0.32586-0.008-0.30985-0.06172-0.55453-0.1097-0.73861-0.10171-0.40475-0.58056-0.49279-1.2091-0.55682-0.91084-0.0743-2.6171-0.0217-4.609 0.0435l-3.8056 0.12005c-3.2879 0.10062-3.8948 0.12234-4.5816 0.18294-0.73713 0.0652-1.0765 0.23782-1.2057 0.92727-0.03886 0.16693-0.05372 0.41161-0.04342 0.67801 0.0069 0.22639-0.03543 0.34873-0.18628 0.35559-0.152 0.003-0.19885-0.13721-0.20914-0.44591-0.02743-0.96043-0.0057-2.2604-0.02057-2.815-0.01485-0.49965-0.12914-1.9906-0.15771-2.7955-0.008-0.28584 0.03315-0.42876 0.184-0.43791 0.152-0.007 0.19771 0.1212 0.20685 0.36016 0.0069 0.22753 0.03772 0.55682 0.08914 0.80836 0.12571 0.54767 0.50056 0.70316 1.2594 0.71917 0.69027 0.0217 1.2994 0 4.5828-0.1029l3.8056-0.11891z"/><path d="m24.121 116.38c2.7599 0.26412 4.2411 0.40475 4.6696 0.008 0.35771-0.31214 0.55885-0.83352 0.71084-2.4274 0.10743-1.0759 0.16228-1.8866-0.37028-2.4491-0.25485-0.27213-0.83541-0.57855-1.2377-0.65515-0.19428-0.0366-0.32114-0.10062-0.30399-0.26412 0.01258-0.14292 0.12343-0.14978 0.38514-0.12691 0.23542 0.0229 1.8354 0.32128 2.4468 0.5511 0.46056 0.16693 0.55884 0.28355 0.45599 1.3423-0.14514 1.4715-0.29028 2.5371-0.39771 3.4541-0.13257 0.91927-0.22742 1.6522-0.30171 2.4857-0.02629 0.23439-0.06857 0.68145-0.09371 1.1708-0.04686 0.4722-0.05143 1.0119-0.09142 1.42-0.02743 0.26183-0.104 0.40018-0.25599 0.38875-0.11314-0.0126-0.16914-0.0983-0.14285-0.34416 0.02972-0.30642 0.01029-0.5671-0.01258-0.75119-0.05029-0.41389-0.51428-0.56482-1.1257-0.70545-0.89712-0.18751-2.5977-0.35101-4.5816-0.5431l-3.7873-0.36587c-3.2765-0.31557-3.8788-0.37388-4.5713-0.40247-0.73827-0.0263-1.0971 0.10291-1.3131 0.76148-0.05943 0.15664-0.10514 0.40247-0.13028 0.67344-0.02171 0.2241-0.07657 0.34187-0.22514 0.32929-0.15314-0.0183-0.18285-0.16579-0.15314-0.48021 0.09257-0.95585 0.28228-2.2398 0.33485-2.7898 0.04686-0.49051 0.12571-1.9895 0.20228-2.7944 0.02972-0.2847 0.08685-0.42648 0.23657-0.40704 0.152 0.0137 0.18057 0.14292 0.15885 0.38531-0.02171 0.23211-0.032 0.56139-0.01143 0.80722 0.05257 0.56139 0.40685 0.75919 1.1531 0.87353 0.68684 0.10633 1.2891 0.16578 4.5622 0.47907l3.7908 0.37616z"/><path d="m30.168 108.44c-0.52799-0.0972-1.2205-0.6037-1.0594-1.4738 0.13028-0.69059 0.72113-1.1376 1.4685-0.99815 0.74627 0.13835 1.2663 0.74776 1.1188 1.5115-0.15657 0.84609-0.92912 1.0816-1.528 0.96043"/><path d="m31.819 98.085c-2.4217 1.2954-4.881 1.0039-6.8604 0.30413-1.392-0.47678-3.6571-1.7196-4.8079-4.2167-0.8617-1.8705-1.0388-3.9972-0.032-6.8853 0.42285-1.2051 0.75198-1.8911 1.1851-2.7452 0.36114-0.70088 0.75998-1.26 1.0251-1.8259 0.09485-0.20581 0.22285-0.24697 0.34628-0.20581 0.16343 0.05945 0.38742 0.20123 1.088 0.4905 0.66399 0.2664 1.7908 0.64943 2.1885 0.83008 0.29942 0.12234 0.44685 0.21952 0.38856 0.39446-0.056 0.15435-0.232 0.1372-0.52227 0.03773-0.63884-0.19894-1.4388-0.19552-2.1394 0.10176-0.93827 0.39103-2.016 1.7196-2.6411 3.5055-0.58399 1.6887-0.51999 2.9442 0 4.0887 0.87427 1.8934 2.6845 2.9407 4.6685 3.6302 4.8593 1.691 8.4924-0.98558 9.3952-3.5879 0.59884-1.731 0.76341-2.8493 0.096-3.9503-0.27314-0.46306-0.77827-0.92727-1.1234-1.1319-0.30285-0.17265-0.37142-0.24125-0.32228-0.3956 0.05029-0.13606 0.21142-0.12348 0.37028-0.0686 0.24799 0.08575 1.9451 0.93756 2.5679 1.3778 0.31542 0.21724 0.38971 0.327 0.41828 0.70545 0.05714 0.89868-0.31314 2.4159-0.74627 3.6576-0.92684 2.6583-2.3085 4.6844-4.5428 5.8895"/><path d="m31.338 81.546c-3.2102-1.8374-6.1999-6.2348-3.1279-11.588 2.5451-4.434 6.857-5.6425 11.151-3.1683 4.2959 2.4651 6.057 7.2626 3.4594 11.797-2.9428 5.1165-8.1621 4.8662-11.482 2.959m7.2901-11.865c-4.2091-2.4068-8.1381-1.611-9.8158 1.3206-1.176 2.0466-1.3154 5.0742 3.3519 7.7543 3.9062 2.2398 8.1827 1.9666 10.147-1.4589 0.71313-1.252 1.7394-4.4957-3.6834-7.6159"/><path d="m46.351 61.808c2.1428 1.7493 3.2994 2.6846 3.8776 2.5966 0.47428-0.06631 0.9257-0.38188 1.9371-1.6316 0.68684-0.83923 1.1725-1.4761 1.0468-2.2444-0.06399-0.36931-0.37256-0.93641-0.66399-1.236-0.14285-0.14178-0.216-0.25726-0.11428-0.38303 0.096-0.10976 0.18971-0.0606 0.38856 0.10405 0.18514 0.14978 1.3508 1.2886 1.7382 1.8122 0.28914 0.39903 0.30971 0.54881-0.36342 1.3755-0.93941 1.1525-1.6423 1.9494-2.24 2.648-0.62513 0.69631-1.1028 1.2577-1.6365 1.9083-0.13942 0.18065-0.42628 0.53509-0.72227 0.92841-0.30056 0.36245-0.60227 0.80493-0.86055 1.1308-0.16685 0.20809-0.31085 0.27555-0.42742 0.18408-0.08343-0.0686-0.08114-0.17836 0.07314-0.37617 0.19428-0.23668 0.31656-0.45163 0.39999-0.62542 0.19314-0.37388-0.11086-0.74776-0.54628-1.2108-0.64684-0.65629-1.9657-1.7322-3.5108-2.9865l-2.9519-2.4045c-2.5474-2.0741-3.0171-2.4617-3.5839-2.8676-0.59542-0.43105-0.96569-0.51794-1.5074-0.09147-0.144 0.10062-0.31771 0.27784-0.48228 0.48707-0.14514 0.18065-0.25485 0.24925-0.37256 0.15321-0.11543-0.09604-0.06056-0.24239 0.13485-0.48136 0.60913-0.74433 1.4788-1.7139 1.8274-2.1415 0.30971-0.3796 1.2091-1.5904 1.7177-2.209 0.17828-0.22181 0.30399-0.30985 0.41942-0.21266 0.11657 0.09604 0.07085 0.21838-0.08343 0.40932-0.14171 0.17036-0.33028 0.44134-0.45256 0.65515-0.26514 0.5088-0.08229 0.86667 0.47199 1.3755 0.51313 0.46192 0.98284 0.85524 3.5359 2.9293l2.9508 2.4045z"/><path d="m55.315 52.078c1.9017 2.0077 2.9325 3.0882 3.5131 3.0756 0.47656-0.008 0.9737-0.26183 2.1291-1.3663 0.79313-0.74776 1.3623-1.3126 1.3314-2.0981-0.016-0.37388-0.25371-0.97872-0.50513-1.3046-0.11657-0.15435-0.17714-0.28241-0.05715-0.39332 0.104-0.10748 0.19428-0.0343 0.36799 0.15207 0.16685 0.17608 1.1828 1.4486 1.4937 2.0215 0.23542 0.4299 0.23771 0.57511-0.54399 1.3114-1.0686 1.021-1.8765 1.7208-2.5634 2.3496-0.69598 0.6037-1.2503 1.0931-1.8628 1.6739-0.16343 0.1635-0.49028 0.47335-0.83313 0.82551-0.34171 0.32243-0.70513 0.72146-1.0023 1.0084-0.19314 0.18865-0.34056 0.23782-0.44685 0.1212-0.07429-0.07546-0.05829-0.18522 0.12-0.35101 0.22057-0.21381 0.37142-0.41161 0.47428-0.57168 0.23771-0.34301-0.01371-0.76034-0.38514-1.2771-0.55084-0.72604-1.7234-1.9723-3.1005-3.4072l-2.6137-2.7704c-2.2628-2.3908-2.6834-2.823-3.1885-3.2997-0.53142-0.5088-0.89141-0.64829-1.4903-0.29499-0.14857 0.08347-0.34628 0.24011-0.53828 0.4299-0.15885 0.15207-0.27771 0.20695-0.38399 0.09719-0.10629-0.10748-0.02857-0.24239 0.19428-0.46078 0.70056-0.65972 1.688-1.5024 2.0868-1.8911 0.35656-0.33729 1.4034-1.4098 1.9817-1.9712 0.21257-0.19437 0.34399-0.26183 0.44685-0.15092 0.10629 0.10633 0.04686 0.22296-0.13485 0.39332-0.16571 0.15893-0.38742 0.40361-0.53256 0.6037-0.33028 0.46078-0.192 0.83694 0.29599 1.4178 0.44685 0.53509 0.86284 0.97186 3.1256 3.3558l2.6217 2.7715z"/><path d="m64.63 50.384c-0.33714-0.43105-0.5257-1.268 0.16571-1.8088 0.55656-0.43791 1.2983-0.38989 1.7611 0.2058 0.47428 0.59226 0.47199 1.388-0.13714 1.8763-0.68227 0.53281-1.4171 0.20009-1.7897-0.27326"/><path d="m74.355 38.184c-0.08685 0.05031-0.10286 0.10519-0.07657 0.23896l0.50056 3.2517c0.08 0.57054 0.23771 1.0839 0.36342 1.3092 0.184 0.34186 0.48228 0.49965 1.0388 0.1978l0.26628-0.14521c0.21828-0.11777 0.29714-0.10862 0.35656 0.0057 0.08229 0.14864-0.0057 0.24582-0.20685 0.3533-0.57484 0.31099-1.3817 0.67916-1.9417 0.98444-0.20114 0.11205-1.1611 0.70202-2.1028 1.2097-0.23657 0.12691-0.36342 0.14749-0.44456 0.0011-0.06285-0.11662-0.0091-0.19437 0.13486-0.27098 0.16228-0.08575 0.40342-0.24468 0.53484-0.34072 0.77256-0.57168 0.7657-1.4018 0.61027-2.5486l-1.95-14.404c-0.08457-0.66315-0.09142-0.94213 0.09371-1.0359 0.15885-0.09033 0.36228 0.02401 0.78056 0.36359 1.0023 0.81064 8.0993 7.002 10.829 9.2635 1.6171 1.3412 2.2834 1.3263 2.7119 1.212 0.30057-0.08575 0.58627-0.21381 0.80113-0.33158 0.14285-0.07546 0.24457-0.10748 0.31542 0.02515 0.08458 0.14978 0.92112-0.25611-0.72913 0.63914-0.64341 0.34987-1.9691 1.069-3.4285 1.8145-0.33371 0.15664-0.55884 0.27326-0.63084 0.13949-0.06399-0.11662-0.0091-0.18865 0.16457-0.30871 0.10514-0.10405 0.14171-0.34415-0.07543-0.51909l-3.637-3.254c-0.089-0.073-0.163-0.08-0.255-0.035l-4.0239 2.185zm3.1736-2.9453c0.08456-0.05031 0.072-0.11662 0.02629-0.16922l-4.1725-3.8051c-0.05943-0.06746-0.128-0.15435-0.19085-0.12691-0.05371 0.02973-0.03658 0.14864-0.01485 0.22982l0.88455 5.5819c0.02286 0.08575 0.06742 0.13377 0.13828 0.09376l3.3291-1.8042z"/><path d="m85.723 21.026c-0.05257-0.36359 0.0034-0.58883 0.16228-0.638 0.15657-0.04688 0.30628 0.01715 0.73027 0.47221l9.017 9.9484 1.616-13.47c0.05031-0.37731 0.09833-0.57282 0.27428-0.62656 0.17486-0.05717 0.35886 0.11434 0.55199 0.5248l5.8033 12.189c0.5897 1.2474 0.97483 1.7825 1.6194 1.7848 0.62742 0.0069 1.0262-0.09718 1.28-0.17836 0.17599-0.05145 0.32113-0.0766 0.35657 0.04688 0.0537 0.16693-0.16344 0.29956-0.43543 0.38646-0.49028 0.15207-3.2148 0.94785-4.0193 1.1365-0.45942 0.10176-0.59542 0.07203-0.63541-0.04916-0.0297-0.10176 0.0274-0.18751 0.14399-0.29499 0.10748-0.07661 0.08-0.36473-0.18399-0.92155l-4.0411-8.7033-0.07661 0.02172-1.3142 10.716c-0.14172 1.1194-0.18172 1.3354-0.36114 1.3869-0.176 0.05945-0.5017-0.29041-1.0091-0.80836-0.76684-0.8095-3.3131-3.4712-3.7302-3.9755-0.31542-0.38188-2.3062-2.6149-3.4856-3.9389l-0.07543 0.0263 1.5668 8.5318c0.08 0.38417 0.144 0.66086 0.248 0.99358 0.12685 0.38989 0.4377 0.49279 0.79427 0.47335 0.38399-0.0263 0.66399-0.09604 0.85941-0.15664 0.15886-0.04916 0.30514-0.04916 0.33828 0.05031 0.05715 0.18522-0.10171 0.28012-0.40228 0.37731-0.81713 0.25726-1.7211 0.46992-2.072 0.58311-0.37485 0.12463-2.1577 0.85866-2.9165 1.1937-0.18628 0.08118-0.18171 0.02401-0.24-0.16236-0.02857-0.09833 0.27542-0.27212 0.56913-0.44934 0.14514-0.0869 0.8057-0.35787 1.0788-0.5168 0.50856-0.29384 0.41256-1.1456 0.28914-1.8774l-2.3005-14.076z"/><path d="m118.72 20.669c0.0572-0.0057 0.11433-0.05602 0.1029-0.16922l-0.0492-0.45048c-0.35314-3.2689-0.41599-3.8703-0.53256-4.5517-0.12343-0.73518-0.31885-1.0588-1.0183-1.1331-0.1657-0.0263-0.51313-0.01029-0.7977 0.01829-0.22628 0.02401-0.35312-0.0023-0.36799-0.15321-0.0172-0.15207 0.12-0.21266 0.408-0.24468 1.1028-0.11891 2.3931-0.19552 2.9508-0.25497 0.4857-0.05145 1.7668-0.25497 2.5645-0.33615 0.28801-0.03087 0.43429-0.0046 0.45143 0.14749 0.0149 0.14521-0.10405 0.20695-0.34971 0.22867-0.16114 0.02058-0.34056 0.0606-0.58399 0.13149-0.54056 0.1635-0.66512 0.54424-0.62742 1.3103 0.0377 0.6883 0.10291 1.2886 0.46056 4.5643l0.41029 3.7868c0.21827 1.9757 0.39885 3.6816 0.60226 4.5906 0.12457 0.6037 0.29714 1.061 0.92456 1.0805 0.28685 0.01029 0.7417 0.0046 1.048-0.0263 0.22285-0.02515 0.33027 0.02858 0.34171 0.13263 0.0229 0.15092-0.13486 0.23439-0.38171 0.26183-1.3234 0.14063-2.624 0.10519-3.1954 0.16922-0.47313 0.04802-1.7508 0.25497-2.5508 0.3453-0.28457 0.03201-0.43427-0.01829-0.45142-0.16807-0.0126-0.10862 0.0652-0.18408 0.30743-0.21381 0.30856-0.03087 0.54627-0.10176 0.73026-0.16579 0.4-0.1292 0.45257-0.60941 0.46171-1.2428 0.006-0.91583-0.17257-2.5085-0.38971-4.4877l-0.21142-1.8923c-0.009-0.08804-0.072-0.1212-0.13486-0.11662l-7.8078 0.85066c-0.056 0.008-0.11887 0.03659-0.10748 0.14521l0.20571 1.8923c0.21371 1.9769 0.40685 3.4324 0.61142 4.3436 0.12685 0.5934 0.29713 1.0588 0.92112 1.0782 0.29142 0.01143 0.74855 0.0057 1.0526-0.02744 0.22514-0.02287 0.3337 0.02973 0.34628 0.13492 0.016 0.15207-0.14057 0.23325-0.38628 0.25726-1.3246 0.14406-2.6251 0.21952-3.1965 0.2847-0.46857 0.04802-1.7417 0.37274-2.5611 0.46078-0.26286 0.03316-0.42056-0.01715-0.43543-0.16807-0.0137-0.10405 0.0652-0.17722 0.31086-0.20695 0.30856-0.03087 0.54628-0.1029 0.72684-0.16579 0.39999-0.13034 0.44913-0.60941 0.46056-1.2531 0.005-0.90669-0.18628-2.4834-0.40456-4.4614l-0.41028-3.7891c-0.35771-3.2734-0.42284-3.8714-0.53827-4.5586-0.12115-0.72946-0.32-1.0542-1.0068-1.1319-0.17028-0.02172-0.51885-0.0057-0.80798 0.02401-0.22514 0.02401-0.35314-0.0034-0.37028-0.1555-0.0149-0.14978 0.12228-0.21038 0.40571-0.24239 1.112-0.11891 2.4068-0.19552 2.9565-0.26069 0.48455-0.0526 1.7702-0.26183 2.5622-0.34415 0.28342-0.02744 0.43998-0.0023 0.45485 0.15207 0.016 0.15092-0.0983 0.20924-0.35428 0.2321-0.16228 0.02172-0.34057 0.05945-0.57943 0.13606-0.53941 0.16579-0.66512 0.54424-0.62512 1.3011 0.0366 0.69974 0.0995 1.3023 0.4537 4.5734l0.0537 0.45163c0.009 0.10405 0.0732 0.14292 0.13371 0.13377l7.8136-0.84723z"/><path d="m127.49 19.674c0.21143-3.2906 0.24914-3.8886 0.25372-4.5826 0.006-0.7409-0.13372-1.0919-0.79542-1.292-0.16342-0.05259-0.51541-0.09604-0.79884-0.11091-0.22627-0.01486-0.34742-0.06746-0.33599-0.21724 0.0114-0.14978 0.15428-0.18866 0.45941-0.16579 0.55886 0.03659 1.1463 0.09375 1.6617 0.1292 0.5257 0.05374 1.0034 0.10519 1.2903 0.12234 0.65141 0.04574 4.7348 0.30756 5.1267 0.30871 0.39771-0.01715 0.72228-0.03544 0.89027-0.07089 0.10062-0.01601 0.22743-0.07203 0.33257-0.06288 0.0983 0.0046 0.11542 0.08918 0.10736 0.19894-0.0114 0.14978-0.12457 0.40018-0.25484 1.3926-0.0309 0.2161-0.13601 1.1617-0.19429 1.4143-0.0286 0.10748-0.0755 0.23325-0.21485 0.22639-0.14285-0.01029-0.18172-0.11891-0.17028-0.31214 0.0149-0.15207 0.0194-0.52023-0.072-0.7832-0.11433-0.39789-0.30171-0.67458-1.3222-0.87124-0.34286-0.06746-2.4948-0.24925-2.9051-0.27555-0.10976-0.0046-0.152 0.05717-0.16342 0.2058l-0.34742 5.4664c-0.0149 0.15092 0.001 0.23782 0.12343 0.24811 0.45712 0.02744 2.8125 0.18522 3.2834 0.16922 0.49256-0.01715 0.81484-0.0606 1.0126-0.26412 0.15315-0.15893 0.24343-0.26412 0.34285-0.25497 0.08 0.0023 0.13828 0.05145 0.13372 0.17836-0.0114 0.12691-0.11434 0.4745-0.26515 1.5687-0.0492 0.42762-0.16685 1.292-0.17371 1.4441-0.0114 0.17494-0.024 0.40932-0.20799 0.39903-0.14856-0.01029-0.18057-0.09719-0.17371-0.20695-0.002-0.21724 0.0126-0.49736-0.0343-0.78663-0.0686-0.43905-0.34513-0.77977-1.0914-0.91355-0.38627-0.0686-2.4171-0.21953-2.9165-0.25268-0.0983-0.0091-0.12457 0.07546-0.136 0.20924l-0.10519 1.7059c-0.0515 0.72946-0.19657 2.7212-0.21828 3.3512-0.0537 1.4887 0.25028 1.8362 2.3531 1.9689 0.52912 0.03773 1.3863 0.09147 1.9417-0.13149 0.54742-0.22753 0.8217-0.66887 1.0228-1.5413 0.056-0.23325 0.1029-0.31786 0.24456-0.30642 0.16457 0.01143 0.15429 0.17951 0.13828 0.39789-0.0332 0.49393-0.28913 1.9529-0.41713 2.3793-0.17943 0.54881-0.36227 0.53738-1.1394 0.48593-1.5428-0.10062-2.6708-0.2161-3.5451-0.2927-0.88226-0.10062-1.5154-0.1635-2.1302-0.20123-0.23199-0.01715-0.68227-0.04459-1.1703-0.05488-0.47085-0.02858-1.008-0.02287-1.4194-0.04916-0.26171-0.01486-0.40684-0.09147-0.39542-0.24239 0.008-0.1029 0.0972-0.16693 0.3417-0.14635 0.30629 0.01715 0.55314-0.01029 0.74742-0.04002 0.41256-0.05945 0.54513-0.52595 0.66513-1.1548 0.15886-0.89525 0.27199-2.6011 0.39999-4.5917l0.24114-3.7948z"/><path d="m139.63 20.79c0.57141-3.2346 0.67655-3.836 0.75198-4.5197 0.0869-0.73632-0.007-1.1113-0.64685-1.3755-0.152-0.06974-0.49141-0.15207-0.77712-0.20352-0.22742-0.03659-0.34399-0.10519-0.31429-0.25154 0.0252-0.14978 0.176-0.16579 0.48572-0.10976 1.0651 0.18751 2.3337 0.47907 2.7531 0.55339 0.68798 0.12348 2.2388 0.33043 2.8742 0.43905 1.264 0.22982 2.6034 0.60255 3.5496 1.5824 0.50057 0.50194 1.1177 1.7391 0.8617 3.1683-0.27771 1.5767-1.168 2.9087-3.5188 4.2945 1.3782 2.7143 2.4377 4.8559 3.3976 6.3891 0.90855 1.4383 1.7222 1.7299 2.008 1.8534 0.21485 0.08232 0.39542 0.13835 0.55198 0.16579 0.16229 0.02401 0.232 0.11205 0.21486 0.21495-0.0309 0.16922-0.176 0.18637-0.42399 0.14406l-1.9177-0.3453c-1.1291-0.1978-1.624-0.40132-2.0914-0.78892-0.78284-0.64257-1.3817-1.7859-2.2148-3.6279-0.59885-1.3103-1.2777-2.9259-1.4857-3.2975-0.0755-0.14406-0.19428-0.18866-0.33484-0.21838l-1.7542-0.35216c-0.10062-0.02058-0.17143 0.01029-0.19199 0.13835l-0.0515 0.3007c-0.35428 1.9814-0.64798 3.6633-0.70742 4.5837-0.0412 0.62771-0.0114 1.1194 0.58057 1.3114 0.29371 0.10062 0.73255 0.22067 0.97597 0.26183 0.16 0.03087 0.23658 0.10633 0.21485 0.21152-0.0286 0.15092-0.18399 0.19094-0.44684 0.14406-1.1668-0.21038-2.6537-0.53738-2.9577-0.59455-0.39313-0.06974-1.6674-0.2321-2.4902-0.37845-0.25827-0.04802-0.38742-0.14063-0.35999-0.28584 0.0172-0.10748 0.11194-0.15893 0.352-0.11548 0.31313 0.05603 0.55998 0.05831 0.74626 0.04345 0.41713-0.01029 0.60456-0.45963 0.79427-1.0622 0.25486-0.88268 0.55314-2.5634 0.91084-4.5277l0.66171-3.7457zm2.0822 2.1084c-0.04 0.23439-0.0137 0.33615 0.11886 0.4219 0.39656 0.2241 0.99541 0.39446 1.4994 0.4825 0.80455 0.14864 1.0846 0.11091 1.5028-0.10519 0.68684-0.35673 1.4434-1.2405 1.7588-2.9876 0.53942-3.0208-1.2114-4.2373-2.4045-4.4465-0.50285-0.09261-0.87198-0.13263-1.0811-0.10862-0.14857 0.01601-0.20572 0.09604-0.23886 0.26526l-1.1554 6.4783z"/><path d="m151.54 33.317c-0.26628-0.24468-0.29485-0.36245-0.14743-0.82551 0.35885-1.1285 0.83656-2.345 0.9577-2.664 0.11885-0.30642 0.25599-0.51108 0.40799-0.46192 0.1737 0.05831 0.13256 0.24697 0.08 0.41047-0.0846 0.26755-0.14285 0.72146-0.15885 1.1091-0.0515 1.6556 0.92226 2.5886 2.1382 2.9727 1.7657 0.56025 3.0274-0.42076 3.3725-1.5207 0.31658-1.0027 0.32686-2.05-0.87311-3.9069l-0.66285-1.0233c-1.5954-2.4651-1.8777-4.1413-1.3508-5.8106 0.72227-2.2764 3.0422-3.3238 5.7587-2.4639 1.2788 0.40704 2.0331 0.87467 2.4948 1.1811 0.17028 0.09833 0.24571 0.18751 0.20228 0.33386-0.0823 0.26412-0.35885 0.84037-0.87084 2.4457-0.14285 0.45506-0.25485 0.60598-0.4057 0.55682-0.136-0.04573-0.16114-0.19208-0.08-0.44134 0.0606-0.18294 0.16685-0.85066-0.0743-1.5161-0.17028-0.49393-0.53827-1.2874-1.8148-1.6899-1.4525-0.46306-2.6125 0.14635-3.0102 1.3766-0.29942 0.95128-0.0777 1.8145 1.1406 3.629l0.408 0.61284c1.768 2.6274 2.1588 4.3185 1.5405 6.2793-0.37714 1.1994-1.2651 2.4777-2.9828 3.0048-1.1817 0.34872-2.3428 0.18751-3.3759-0.14521-1.1417-0.3613-1.9702-0.78778-2.6937-1.4429"/><path d="m170.06 24.699-2.8217-1.1822c-1.1097-0.44706-1.5977-0.55339-2.0754-0.24811-0.32343 0.21038-0.52914 0.40475-0.63199 0.54996-0.11205 0.13835-0.20228 0.19552-0.31428 0.14749-0.12913-0.06403-0.12343-0.17951-0.024-0.39789 0.14742-0.31442 1.3097-1.954 1.4205-2.0935 0.17028-0.22867 0.27543-0.32014 0.38971-0.27441 0.152 0.0686 0.24799 0.34873 0.69484 0.60026 0.52685 0.311 1.2148 0.67001 1.8297 0.9467l7.417 3.3501c0.60914 0.26526 1.0434 0.39446 1.344 0.47907 0.30628 0.07089 0.46971 0.0949 0.54742 0.12806 0.12799 0.0606 0.0949 0.18637-0.0412 0.4825-0.18284 0.41275-0.85026 1.7505-1.08 2.2593-0.10633 0.19666-0.19657 0.29384-0.31428 0.24468-0.15428-0.06631-0.14742-0.18522-0.024-0.49165l0.0766-0.2241c0.19542-0.52709-0.0652-1.3034-1.7108-2.0992l-2.3371-1.1239-3.6434 8.0916c-0.82055 1.8168-1.5177 3.3706-1.8057 4.2579-0.19771 0.57968-0.28799 1.0713 0.24571 1.3972 0.24114 0.16007 0.63885 0.3876 0.91998 0.51223 0.20114 0.09147 0.26513 0.19094 0.22743 0.29156-0.0629 0.13606-0.24343 0.12806-0.44457 0.03201-1.24-0.55339-2.3897-1.1388-2.9096-1.3823-0.44342-0.19894-1.64-0.66658-2.3954-1.0027-0.23771-0.11205-0.34742-0.22867-0.28342-0.36473 0.0457-0.09947 0.14286-0.12348 0.36913-0.02515 0.27428 0.12577 0.53028 0.19208 0.71427 0.22753 0.408 0.08918 0.71428-0.29499 1.0263-0.84838 0.47085-0.78206 1.1714-2.3405 1.9897-4.1538l3.6445-8.0859z"/><path d="m169.71 39.757c0.25256-0.47907 0.94626-0.9993 1.7257-0.58311 0.6137 0.327 0.87655 1.021 0.52228 1.6865-0.35314 0.68144-1.0788 1.0039-1.7748 0.64028-0.75884-0.40132-0.75198-1.2085-0.47313-1.7436"/><path d="m187.39 32.421c0.27428-0.25383 0.49028-0.33386 0.62284-0.23782 0.12686 0.09719 0.16344 0.25726 0.0423 0.86438l-2.8102 13.135 11.879-6.5492c0.33942-0.18408 0.51999-0.26183 0.6697-0.14521 0.14857 0.11091 0.11771 0.35216-0.10519 0.75005l-6.5073 11.835c-0.66628 1.2097-0.87542 1.8282-0.49599 2.3519 0.35656 0.52137 0.67084 0.78092 0.89484 0.9387 0.14742 0.11205 0.24799 0.21495 0.17028 0.319-0.10062 0.1372-0.34285 0.0423-0.57599-0.12806-0.40913-0.30871-2.6457-2.0558-3.2605-2.5989-0.35656-0.32243-0.4217-0.44934-0.33713-0.55339 0.064-0.0869 0.17142-0.08804 0.33028-0.05717 0.12114 0.04116 0.33485-0.14521 0.63199-0.67801l4.705-8.3683-0.0675-0.04574-9.4695 5.1874c-0.97828 0.53281-1.1771 0.62885-1.32 0.5168-0.14971-0.11548-0.0583-0.58426 0.0675-1.2943 0.19656-1.0976 0.87541-4.7221 1.0377-5.3532 0.11886-0.47221 0.77256-3.4015 1.1657-5.128l-0.0652-0.05145-6.0067 6.2645c-0.26399 0.28698-0.44685 0.50079-0.66513 0.77749-0.248 0.32472-0.14743 0.64028 0.08 0.92155 0.25257 0.28927 0.46971 0.48479 0.63427 0.60484 0.12915 0.09719 0.21714 0.21952 0.15658 0.30528-0.11886 0.15778-0.28801 0.07889-0.53599-0.1029-0.70056-0.51794-1.3977-1.1228-1.6914-1.348-0.3097-0.2321-1.1428-0.76491-1.6708-1.1639-0.16457-0.12463-0.26856-0.2584-0.152-0.41275 0.0663-0.08689 0.18857-0.05031 0.35086 0.07546 0.1337 0.09719 0.24914 0.18408 0.53255 0.31786 0.5417 0.24354 1.1783-0.33958 1.6971-0.86667l10.068-10.082z"/><path d="m198.49 55.217c-0.0686-0.07432-0.12914-0.07775-0.25142-0.02172l-3.0342 1.2794c-0.53599 0.21038-0.98512 0.48478-1.1725 0.65743-0.28572 0.26183-0.36686 0.58883 0.0583 1.0668l0.21143 0.22639c0.16342 0.17836 0.17257 0.25268 0.0789 0.34072-0.12571 0.11777-0.24458 0.05374-0.392-0.11434-0.44685-0.48593-1.0023-1.1822-1.4285-1.6487-0.152-0.1635-0.96684-0.96042-1.6857-1.7459-0.18515-0.19437-0.23429-0.30985-0.10748-0.43219 0.0938-0.08461 0.18285-0.0526 0.29257 0.06746 0.12457 0.13606 0.33484 0.33272 0.46284 0.43791 0.73941 0.60484 1.5394 0.39789 2.6148-0.02515l13.496-5.3864c0.62741-0.24239 0.88341-0.31214 1.0286-0.16464 0.12 0.14063 0.0652 0.35673-0.16571 0.8518-0.54742 1.1651-4.8296 9.5642-6.3587 12.753-0.90169 1.8888-0.72226 2.544-0.51541 2.9327 0.15886 0.2664 0.35314 0.50994 0.5177 0.69173 0.11205 0.11662 0.16571 0.21038 0.0537 0.311-0.12686 0.11319-0.28114 0.008-0.79199-0.54881-0.50285-0.54538-1.5165-1.651-2.5977-2.8881-0.23542-0.29499-0.40455-0.47907-0.29027-0.57854 0.0949-0.08575 0.18628-0.05945 0.33713 0.08118 0.12914 0.07317 0.37256 0.05145 0.50056-0.20009l2.2651-4.3105c0.0492-0.10519 0.0389-0.1818-0.0263-0.25497l-3.0994-3.3775zm3.6296 2.3576c0.0686 0.07432 0.12686 0.04459 0.16457-0.01486l2.6902-4.9748c0.0492-0.07089 0.11544-0.16236 0.0755-0.20924-0.0423-0.04802-0.152-0.0034-0.22971 0.04573l-5.1988 2.2033c-0.0755 0.04345-0.11079 0.09947-0.0537 0.16007l2.552 2.7898z"/><path d="m202.51 68.118c-0.0686-0.35559-0.0126-0.46878 0.37713-0.74662 0.98284-0.67801 2.0925-1.348 2.3931-1.5264 0.27657-0.16808 0.50514-0.25726 0.59885-0.11777 0.10633 0.14978-0.0446 0.27898-0.18514 0.37502-0.22743 0.16121-0.55541 0.48479-0.79884 0.78092-1.0583 1.2886-0.84341 2.6172-0.12228 3.6622 1.0628 1.5195 2.6628 1.5092 3.5976 0.85524 0.87769-0.60941 1.5085-1.4303 1.6914-3.629l0.10291-1.2291c0.232-2.9144 1.0331-4.418 2.4754-5.4207 1.9531-1.3572 4.4285-0.77749 6.0662 1.5618 0.75998 1.0999 1.0708 1.9323 1.2514 2.4548 0.0743 0.17608 0.08 0.3007-0.0492 0.39103-0.2297 0.15893-0.78626 0.44934-2.1759 1.4063-0.38628 0.26869-0.56457 0.32243-0.66057 0.1818-0.0755-0.11777-0.007-0.24125 0.20457-0.38874 0.16001-0.10748 0.64799-0.57626 0.86742-1.2451 0.16342-0.49736 0.35884-1.3503-0.408-2.4537-0.8617-1.2405-2.1634-1.4738-3.2171-0.72832-0.8217 0.56025-1.1748 1.388-1.32 3.565l-0.04 0.72718c-0.19657 3.1717-0.9257 4.753-2.6114 5.9169-1.0263 0.72604-2.5131 1.2028-4.1896 0.56596-1.1474-0.45277-1.9691-1.2829-2.5897-2.1804-0.68798-0.97529-1.096-1.8237-1.2582-2.7784"/><path d="m207.99 76.201c-0.024-0.36016 0.0377-0.46649 0.45714-0.69745 1.0354-0.57397 2.2148-1.1262 2.5291-1.2829 0.29142-0.14406 0.53028-0.2058 0.60686-0.05945 0.0892 0.16693-0.0697 0.27898-0.21943 0.36702-0.24685 0.13149-0.59884 0.42076-0.87427 0.69288-1.1828 1.1719-1.1051 2.5108-0.48913 3.6325 0.90283 1.6144 2.496 1.7676 3.4891 1.2131 0.93485-0.51794 1.6491-1.2691 2.0514-3.4404l0.21942-1.2108c0.53943-2.8721 1.4834-4.2933 3.0125-5.1497 2.0834-1.1479 4.4948-0.32014 5.8776 2.1827 0.64685 1.1617 0.8777 2.0249 1.0114 2.5668 0.0514 0.18294 0.0446 0.30185-0.0926 0.37502-0.25142 0.13606-0.83541 0.36473-2.3108 1.188-0.41143 0.22982-0.59427 0.26183-0.67656 0.11777-0.0697-0.12577 0.0171-0.24125 0.24113-0.36816 0.16914-0.09261 0.70742-0.51337 0.99313-1.1639 0.21142-0.46649 0.48684-1.3069-0.16342-2.4697-0.74056-1.3309-1.9988-1.6899-3.1314-1.061-0.87199 0.48021-1.3063 1.2634-1.6674 3.4187l-0.12 0.72c-0.51427 3.1328-1.3954 4.6329-3.1919 5.6231-1.0937 0.6117-2.6205 0.9387-4.2273 0.13263-1.1051-0.5591-1.8331-1.4761-2.3565-2.4285-0.58171-1.0462-0.9017-1.9208-0.96912-2.8984"/><path d="m213.45 83.575c0.49028-0.22181 1.3566-0.21038 1.7188 0.58998 0.29256 0.64143 0.0709 1.3492-0.61027 1.6636-0.69827 0.31099-1.4708 0.12463-1.792-0.58197-0.35541-0.79006 0.136-1.4189 0.68342-1.6716"/><path d="m218.7 92.232c-1.6022 0.52709-2.0628 0.95356-2.0845 1.3892-0.024 0.36931 0.0709 0.74662 0.16571 1.061 0.0675 0.22296 0.0583 0.35673-0.0652 0.3956-0.16686 0.04917-0.26057-0.11548-0.34399-0.39675-0.38514-1.2726-0.56-2.0821-0.68571-2.4548-0.0469-0.17836-0.39542-1.0805-0.70284-2.1072-0.0732-0.25611-0.10747-0.43905 0.0777-0.49393 0.12-0.04002 0.19657 0.06632 0.25828 0.26183 0.0766 0.25726 0.21143 0.59912 0.37256 0.84952 0.32685 0.47221 0.94513 0.36588 2.7554-0.16922l12.312-3.5433c0.41256-0.12577 0.71656-0.15321 0.77484 0.04345 0.0675 0.21381-0.14743 0.47335-0.41485 0.92041-0.19657 0.31442-2.6662 4.3311-4.7988 8.1133-1.0011 1.7688-3.1794 5.3315-3.4056 5.7683l0.0286 0.0983 9.2352-3.0208c1.2605-0.40361 1.5965-0.69745 1.6605-1.2394 0.0366-0.33158-0.10634-0.79807-0.18742-1.0736-0.072-0.23782-0.0354-0.33272 0.0869-0.37159 0.16342-0.05031 0.25257 0.16007 0.34171 0.45734 0.30971 1.0187 0.52913 1.986 0.65713 2.3965 0.0697 0.21495 0.35885 0.95356 0.6537 1.9048 0.0743 0.25726 0.11433 0.45735-0.0492 0.5088-0.12114 0.0412-0.22514-0.0629-0.29942-0.29499-0.0595-0.19666-0.11079-0.35558-0.24457-0.57282-0.32914-0.49622-0.81369-0.52138-1.9782-0.19094l-13.129 3.7582c-0.45257 0.1372-0.6617 0.11319-0.71427-0.0697-0.0675-0.21495 0.0869-0.51794 0.25257-0.80492 0.87084-1.619 2.8194-4.9565 4.3245-7.6514 1.5828-2.8218 3.5119-5.7957 3.7953-6.2679l-0.0171-0.05945-8.6318 2.8561z"/><path d="m225.51 144.64c0.024-0.10061-0.0137-0.14749-0.12914-0.21495l-2.7942-1.7425c-0.48456-0.31443-0.96341-0.52252-1.216-0.5774-0.3817-0.0812-0.6994 0.0412-0.83426 0.654l-0.0652 0.30299c-0.0503 0.24811-0.10748 0.30185-0.23543 0.27098-0.16685-0.0389-0.17943-0.17493-0.13599-0.39332 0.14056-0.64028 0.3897-1.4864 0.52798-2.1164 0.0434-0.21724 0.22285-1.3354 0.45256-2.3805 0.0572-0.26183 0.12686-0.36816 0.29142-0.33501 0.128 0.0286 0.15429 0.11891 0.12114 0.27898-0.0423 0.17723-0.0789 0.46307-0.0983 0.62771-0.0709 0.95356 0.56114 1.4921 1.5314 2.1198l12.183 7.9315c0.55999 0.37388 0.7657 0.54538 0.71885 0.74661-0.0332 0.17494-0.248 0.2584-0.77828 0.35216-1.2708 0.22524-10.595 1.5676-14.085 2.1598-2.0662 0.34644-2.4857 0.86896-2.6856 1.2634-0.12457 0.28812-0.21029 0.58082-0.26515 0.82207-0.0332 0.1635-0.0755 0.26183-0.22285 0.22525-0.168-0.0377-0.17143-0.22525-0.0114-0.96843 0.15428-0.72261 0.47541-2.1872 0.85941-3.7868 0.10062-0.35673 0.15543-0.5934 0.30286-0.56025 0.13027 0.0263 0.15198 0.11663 0.12798 0.31672 0.0126 0.14749 0.176 0.33043 0.45257 0.28355l4.8262-0.63114c0.11433-0.0126 0.16799-0.0675 0.18742-0.16693l0.97484-4.482zm0.16571 4.3334c-0.0229 0.10519 0.0389 0.13834 0.10519 0.13034l5.6136-0.67573c0.0915-0.008 0.20114-0.002 0.21371-0.0594 0.0137-0.0617-0.0869-0.12806-0.16228-0.16922l-4.8033-2.9682c-0.0835-0.0423-0.15199-0.032-0.168 0.0503l-0.79883 3.6919z"/><path d="m219.03 158.77c-1.5726-0.60941-2.1965-0.57625-2.4937-0.25268-0.25028 0.27669-0.41599 0.62885-0.54742 0.93184-0.08 0.20923-0.17142 0.30299-0.28913 0.2584-0.16229-0.0709-0.13486-0.25497-0.0194-0.51909 0.50285-1.2394 0.87541-1.9689 1.0263-2.3302 0.0709-0.16922 0.69484-1.5984 0.95197-2.6332 0.22743-0.92384 0.19543-0.35788 0.28-0.0583 0.024 0.0892 0.11194-0.13148 0.0606 0.24583-0.0286 0.21495-0.32114 0.99586-0.35084 1.2943-0.0412 0.55682 0.50398 0.8781 2.2354 1.6133l11.764 5.0537c0.39769 0.1635 0.65369 0.335 0.57712 0.5248-0.088 0.21038-0.41828 0.27212-0.90855 0.44706-0.35428 0.11891-4.8045 1.6647-8.8444 3.246-1.8948 0.73175-5.833 2.1095-6.2833 2.3039l-0.04 0.0937 9.0581 3.5101c1.2228 0.4825 1.6777 0.46878 2.0651 0.096 0.23885-0.23211 0.42628-0.68831 0.5337-0.96043 0.0983-0.23096 0.184-0.27898 0.304-0.23324 0.16228 0.0709 0.0937 0.28698-0.0217 0.58197-0.40686 0.981-0.83999 1.8762-1.0126 2.2719-0.08 0.20923-0.32457 0.95242-0.70628 1.882-0.10062 0.24926-0.19886 0.43334-0.3577 0.36359-0.11886-0.0457-0.13029-0.1898-0.0389-0.41275 0.0789-0.18751 0.14287-0.33958 0.17486-0.59569 0.0583-0.59684-0.29485-0.92841-1.4114-1.404l-12.525-5.4127c-0.43998-0.18065-0.59427-0.32929-0.51884-0.50194 0.0857-0.21495 0.40113-0.35215 0.70855-0.46649 1.6937-0.69974 5.3142-2.0569 8.1873-3.1763 3.0182-1.1868 6.3793-2.2616 6.9061-2.4536l0.024-0.0595-8.4878-3.2483z"/><path d="m205.22 182.43c-0.50055-0.30642-0.52455-0.34644-0.52341-0.63685 0.0686-1.5252 0.91426-3.3672 1.7508-4.7392 2.6296-4.2933 7.0936-6.7893 12.185-3.6633 2.9554 1.8099 4.1291 4.5243 4.1668 6.7413 0.0389 2.3473-0.78398 3.98-1.688 5.455-0.73485 1.2108-1.904 2.6183-2.1897 2.9259-0.29942 0.32128-0.78626 0.86667-1.056 1.2577-0.14057 0.19551-0.24342 0.18865-0.36571 0.10976-0.20571-0.12234-0.64227-0.55796-2.9474-1.9757-0.29828-0.18294-0.3577-0.28927-0.27313-0.4299 0.0766-0.12463 0.19428-0.10291 0.35313-0.0286 0.45257 0.21038 1.0937 0.48021 1.8925 0.33958 0.90856-0.16121 2.6182-1.0405 3.8285-3.023 0.5897-0.97071 1.2948-2.2902 0.97713-4.1733-0.26743-1.5127-1.2605-2.9968-3.5314-4.3882-3.9736-2.4251-8.4101-1.8408-10.668 1.8545-0.28 0.45163-0.66055 1.0736-0.71313 1.6179-0.0332 0.33729 0.16914 0.55681 0.48685 0.74432l1.7348 1.0679c0.91884 0.56483 1.6114 0.99359 2.1851 1.324 0.63428 0.35901 1.024 0.38074 1.5131-0.11434 0.12342-0.11891 0.31885-0.41047 0.47313-0.654 0.0983-0.15664 0.19428-0.23896 0.30399-0.17379 0.15085 0.0926 0.11433 0.23439-0.0377 0.47678-0.55314 0.92384-1.2914 1.9872-1.608 2.5223-0.33599 0.53852-0.84227 1.5001-1.2057 2.0809-0.13486 0.22524-0.24914 0.32585-0.39199 0.23439-0.11656-0.0652-0.0915-0.19209-0.0137-0.31786 0.0835-0.1372 0.14286-0.26869 0.23314-0.50765 0.2-0.53052-0.0114-0.89525-0.64112-1.308-0.54171-0.35787-1.2846-0.81064-2.2045-1.3766l-2.0251-1.2417z"/><path d="m204.35 183.78c0.43542 0.32014 0.83884 1.0828 0.3097 1.7951-0.4217 0.55567-1.1508 0.69859-1.7542 0.24925-0.60799-0.45277-0.81713-1.228-0.34514-1.8511 0.52456-0.69402 1.3108-0.55682 1.7897-0.19323"/><path d="m67.679 202.18c0.25256-0.27212 0.45713-0.36587 0.5977-0.27669 0.12914 0.0892 0.176 0.24811 0.09028 0.86895l-2.0274 13.214 11.409-7.1998c0.33142-0.19323 0.51085-0.28356 0.66627-0.17722 0.14971 0.10176 0.13257 0.34758-0.06399 0.75462l-5.7702 12.134c-0.59542 1.2268-0.77027 1.8625-0.36456 2.3679 0.39314 0.48936 0.72113 0.72718 0.94055 0.87696 0.15428 0.10176 0.26171 0.19666 0.19085 0.30414-0.096 0.14063-0.33485 0.064-0.57484-0.0938-0.4217-0.28241-2.7485-1.8946-3.3908-2.3976-0.37028-0.29156-0.4377-0.4139-0.36342-0.52252 0.05714-0.0869 0.16228-0.0972 0.31542-0.0709 0.128 0.0343 0.33142-0.16693 0.59313-0.72489l4.1908-8.5775-0.07085-0.0435-9.0924 5.6997c-0.95541 0.58312-1.1451 0.68945-1.2994 0.58883-0.15428-0.10176-0.08914-0.57168-0.0023-1.2954 0.13714-1.0942 0.5977-4.7358 0.72227-5.3704 0.09943-0.48707 0.57256-3.4232 0.8617-5.1691l-0.06971-0.04-5.6033 6.5583c-0.24799 0.30642-0.41599 0.53166-0.61142 0.82093-0.22514 0.34073-0.10972 0.64257 0.13828 0.90783 0.25828 0.27327 0.48228 0.45392 0.65599 0.5694 0.13486 0.0903 0.22742 0.2058 0.17142 0.29499-0.11086 0.16007-0.28228 0.096-0.53713-0.0709-0.72456-0.48022-1.4537-1.0428-1.76-1.244-0.32228-0.21038-1.1783-0.6986-1.7222-1.061-0.17257-0.11434-0.28685-0.24239-0.17942-0.40475 0.06172-0.0892 0.18285-0.0572 0.35656 0.0572 0.136 0.0892 0.25257 0.16578 0.54399 0.28584 0.55542 0.21495 1.152-0.40475 1.6388-0.95814l9.4204-10.606z"/><path d="m81.134 217.64c1.2491-3.023 1.4811-3.5833 1.7028-4.2362 0.24228-0.68945 0.22171-1.0668-0.34171-1.4669-0.13371-0.10519-0.4457-0.26069-0.71427-0.36245-0.21028-0.0869-0.30399-0.17265-0.24685-0.30985 0.05372-0.14292 0.20457-0.12577 0.49028-0.0114 1.0023 0.41389 2.1668 0.96728 2.6948 1.1914 0.5817 0.24011 1.8 0.67115 2.9382 1.1388 2.3554 0.97757 5.5153 2.2822 6.6353 5.4047 0.51085 1.4304 0.72456 3.4484-0.25942 5.8094-1.0354 2.512-2.8239 4.0075-4.3508 4.7061-1.2548 0.57282-3.8033 1.1697-7.3027-0.27784-0.67313-0.28127-1.4297-0.66315-2.1188-1.0199-0.69484-0.35673-1.3291-0.68144-1.8045-0.88268-0.20114-0.0835-0.62627-0.26068-1.0868-0.42647-0.43199-0.1818-0.93484-0.34301-1.312-0.49736-0.25485-0.10291-0.36114-0.21496-0.30285-0.35673 0.04342-0.10062 0.14171-0.12463 0.37256-0.0377 0.28228 0.12348 0.52799 0.1715 0.7097 0.20923 0.41028 0.0743 0.68341-0.32128 0.99998-0.8701 0.44228-0.79806 1.0914-2.369 1.8445-4.203l1.4525-3.501zm1.4583 3.1728c-0.87312 2.1015-1.4925 3.645-1.6274 4.0281-0.18171 0.5088-0.4777 1.3172-0.41828 1.603 0.09485 0.47106 0.65484 1.2005 2.1497 1.8168 1.9245 0.79121 3.3759 0.93184 4.9382 0.36473 1.6605-0.5934 2.7851-2.2467 3.6342-4.2922 1.0411-2.5314 0.71541-4.5734 0.24342-5.7271-1.0171-2.4685-3.0719-3.6027-4.5485-4.2087-0.37599-0.15892-1.0971-0.39331-1.28-0.37159-0.208 0.008-0.30856 0.0835-0.39542 0.30757-0.29828 0.66543-1.0137 2.3988-1.6594 3.9686l-1.0365 2.5108z"/><path d="m97.59 232.22c-1.5885-2.2158-1.6194-4.6866-1.2-6.7367 0.29485-1.4292 1.2343-3.836 3.5416-5.288 1.7314-1.101 3.8045-1.547 6.7896-0.93069 1.2388 0.25268 1.9622 0.48936 2.856 0.81178 0.74056 0.26412 1.3417 0.58426 1.9291 0.76949 0.21256 0.0697 0.27199 0.18636 0.24685 0.31442-0.0377 0.16693-0.14971 0.40589-0.33943 1.1434-0.18514 0.6803-0.40227 1.8488-0.53027 2.2639-0.0835 0.30642-0.15886 0.46535-0.33828 0.43105-0.16114-0.0309-0.16572-0.20809-0.10747-0.49965 0.11422-0.65972 0.0114-1.4532-0.37257-2.1026-0.51313-0.88268-1.9542-1.7688-3.7953-2.1507-1.7428-0.35901-2.9828-0.12577-4.0433 0.52938-1.7542 1.1114-2.5428 3.0345-2.9645 5.0822-1.0411 5.0159 2.0708 8.2562 4.7485 8.8039 1.7817 0.37388 2.9108 0.38532 3.9096-0.4219 0.4297-0.327 0.81255-0.88267 0.97255-1.252 0.12456-0.327 0.18628-0.40246 0.34741-0.36816 0.13601 0.0309 0.14743 0.18751 0.11544 0.3533-0.0572 0.25611-0.67428 2.0432-1.0194 2.7223-0.17829 0.33386-0.28115 0.41733-0.64914 0.49736-0.87311 0.17494-2.4262 0.0103-3.7062-0.25382-2.7405-0.56711-4.913-1.6785-6.3907-3.7182"/><path d="m115.63 235.6c-1.9588-1.9037-2.4342-4.3333-2.3828-6.4154 0.032-1.4692 0.51885-3.996 2.5337-5.8449 1.4982-1.3915 3.4582-2.2021 6.5084-2.1289 1.2697 0.024 2.0228 0.12577 2.9599 0.27784 0.77256 0.12462 1.4171 0.33271 2.0377 0.41504 0.22285 0.0286 0.30285 0.13606 0.30057 0.26754-0.002 0.17608-0.0709 0.43219-0.13371 1.1765-0.0537 0.7146-0.0583 1.898-0.10976 2.3245-0.0251 0.32814-0.0709 0.4985-0.25713 0.49393-0.17144 0-0.21257-0.17608-0.20343-0.4825-0.005-0.67001-0.25257-1.4189-0.74741-2.0009-0.6537-0.76605-2.232-1.38-4.1176-1.4269-1.7771-0.0389-2.9565 0.40475-3.8742 1.2417-1.528 1.4109-1.9588 3.4495-2.0114 5.5384-0.11657 5.1223 3.5154 7.7486 6.2582 7.8092 1.8182 0.0423 2.9256-0.14406 3.7691-1.1125 0.35542-0.40475 0.63541-1.0244 0.72456-1.4052 0.0709-0.34186 0.1109-0.42762 0.27542-0.4219 0.1497 0.002 0.19199 0.15092 0.18513 0.32243-0.002 0.25954-0.30514 2.1255-0.52456 2.8527-0.10748 0.36244-0.18742 0.47564-0.54056 0.61513-0.82512 0.32357-2.3862 0.44248-3.6925 0.40475-2.7965-0.0595-5.137-0.76148-6.9576-2.5005"/><path d="m132.97 235.78c-2.2182-1.5813-3.0628-3.9126-3.3234-5.9786-0.18629-1.4498-0.0812-4.0326 1.6331-6.157 1.2765-1.603 3.0948-2.6926 6.1107-3.0814 1.2617-0.1635 2.0205-0.17379 2.9737-0.16579 0.78626 0.008 1.464 0.12234 2.0731 0.10976 0.22514-0.008 0.32 0.0858 0.33714 0.21496 0.024 0.16693-0.007 0.43562 0.0469 1.1834 0.0492 0.71231 0.21714 1.8785 0.232 2.313 0.0206 0.32814 0.005 0.50422-0.17599 0.52252-0.16457 0.024-0.22057-0.13721-0.26172-0.4402-0.10633-0.66315-0.46627-1.3766-1.048-1.8625-0.7577-0.66772-2.4182-1.0427-4.2845-0.80378-1.7622 0.22753-2.8525 0.84609-3.6433 1.8157-1.2926 1.619-1.4171 3.6976-1.1543 5.7694 0.64456 5.0857 4.6365 7.1369 7.3598 6.7893 1.7931-0.2321 2.8685-0.58654 3.5474-1.6727 0.304-0.4482 0.48456-1.1114 0.51771-1.5001 0.0137-0.34644 0.0469-0.43791 0.208-0.45506 0.14056-0.0206 0.19771 0.12577 0.22285 0.29042 0.0286 0.25497 0.0251 2.1484-0.0823 2.8996-0.056 0.37617-0.12343 0.49736-0.45028 0.69059-0.77027 0.44477-2.2982 0.78664-3.5862 0.95471-2.7805 0.36245-5.1953 0.0114-7.2524-1.4361"/><path d="m153.98 224.81c0.90284 0.83923 5.6388 5.6013 6.3142 6.125 0.45257 0.36816 0.81942 0.53395 1.3771 0.56139 0.36572 0.0137 0.60685-0.0332 0.78285-0.0835 0.13942-0.0354 0.26857-0.024 0.30284 0.0972 0.0343 0.15321-0.10061 0.25383-0.31885 0.311l-0.58627 0.16693c-0.4697 0.12691-2.0274 0.55224-3.5611 0.92727-0.5177 0.1189-0.68569 0.1189-0.72454-0.024-0.032-0.12234 0.048-0.21266 0.21141-0.29956 0.0938-0.0514 0.12114-0.25954-0.0892-0.48936-1.6422-1.7402-3.3279-3.4907-4.6628-4.8033l-1.5646 5.7637c-0.10747 0.38646-0.11999 0.72946-0.0377 0.94899 0.0709 0.18294 0.29257 0.26183 0.47999 0.25497 0.12228-0.0137 0.30399-0.0389 0.46398-0.0869 0.11205-0.0309 0.24914-0.002 0.28229 0.12234 0.0389 0.14635-0.0835 0.22525-0.33828 0.29385l-0.35657 0.096c-0.11542 0.0297-1.3771 0.30985-1.872 0.44705-0.38172 0.0995-1.3246 0.42534-1.6377 0.5168l-0.33484 0.0938c-0.19428 0.0537-0.31885 0.0229-0.35657-0.10748-0.0343-0.12805 0.0743-0.22066 0.23657-0.26183 0.13485-0.0423 0.42398-0.1452 0.69256-0.3087 0.52226-0.32015 0.79197-0.81979 1.1988-1.9975l2.2148-6.7024-5.0102-4.9931c-0.69713-0.69631-1.3108-1.0702-2.0605-1.1114-0.34742-0.0172-0.66627 0.0297-0.87656 0.0812-0.11885 0.0377-0.21142-0.009-0.25371-0.15207-0.0297-0.12691 0.0915-0.20809 0.35657-0.2744 0.47542-0.13035 2.0914-0.50194 3.0148-0.75348 0.27314-0.072 1.36-0.43676 2.0834-0.64028 0.28114-0.0812 0.40457-0.0709 0.45257 0.08 0.0343 0.14292-0.0709 0.2161-0.25028 0.26755-0.11543 0.0309-0.36228 0.11891-0.50513 0.22296-0.15772 0.10862-0.176 0.2744-0.14743 0.39331 0.0377 0.12692 0.18285 0.34987 0.36571 0.54539 1.304 1.4338 2.6068 2.7098 3.7519 3.9103 0.32342-1.0645 1.3531-4.4545 1.4903-5.1086 0.0789-0.34072 0.0503-0.69059 0.005-0.85638-0.0423-0.1452-0.224-0.26983-0.4377-0.28355-0.21142-0.007-0.49942 0.0697-0.65255 0.10976-0.1223 0.0354-0.25028 0.024-0.288-0.12119-0.0332-0.11891 0.088-0.21953 0.36456-0.2927 0.77141-0.21153 1.6125-0.37274 1.9851-0.47793 0.40228-0.10633 1.192-0.39217 1.9154-0.59683 0.22742-0.0595 0.37942-0.0332 0.41257 0.088 0.0332 0.12692-0.0663 0.22067-0.26515 0.28241-0.20341 0.0549-0.42398 0.16122-0.68112 0.319-0.41942 0.24468-0.65142 0.93299-0.99084 2.0112l-1.8948 5.7888z"/><path d="m168.44 219.46c1.0263 0.69745 6.4044 4.7164 7.1519 5.144 0.50627 0.2927 0.88798 0.40475 1.4537 0.34872 0.35656-0.0446 0.59313-0.12119 0.75655-0.19551 0.13372-0.0583 0.26171-0.0663 0.31085 0.048 0.0606 0.14292-0.0652 0.26297-0.26857 0.35673l-0.55884 0.24125c-0.44456 0.19894-1.9268 0.85638-3.3919 1.4486-0.49256 0.19323-0.65713 0.22067-0.7177 0.0778-0.0492-0.1132 0.0183-0.21496 0.16915-0.32929 0.0789-0.0606 0.0743-0.26755-0.16686-0.46306-1.8777-1.4841-3.8011-2.9705-5.3096-4.0704l-0.71427 5.9329c-0.0469 0.39561-0.0103 0.7329 0.10519 0.93985 0.10291 0.16693 0.32343 0.21266 0.50857 0.17836 0.12114-0.0309 0.29256-0.088 0.44456-0.15435 0.11542-0.0492 0.25256-0.0389 0.30513 0.08 0.0595 0.13721-0.0572 0.23554-0.29828 0.34187l-0.33713 0.14749c-0.10748 0.0469-1.3188 0.51337-1.7851 0.72261-0.35656 0.15092-1.2525 0.61055-1.5497 0.74433l-0.3177 0.1372c-0.18058 0.0777-0.30743 0.064-0.35657-0.0526-0.0492-0.11891 0.0354-0.22525 0.18743-0.29385 0.12571-0.0594 0.40341-0.19666 0.64341-0.39903 0.46857-0.39789 0.66971-0.93299 0.89369-2.1552l1.2068-6.9585-5.6867-4.203c-0.79313-0.59226-1.456-0.8701-2.2011-0.80264-0.3417 0.0412-0.66055 0.13148-0.8457 0.21609-0.11193 0.0492-0.21485 0.0252-0.27998-0.11776-0.0492-0.12349 0.0652-0.22067 0.3097-0.32129 0.45142-0.19437 1.9931-0.80035 2.8708-1.1857 0.2617-0.11548 1.288-0.64143 1.976-0.94785 0.2617-0.11319 0.39771-0.12692 0.45484 0.0103 0.0572 0.14063-0.0354 0.22867-0.20342 0.30185-0.11543 0.0537-0.34628 0.17607-0.46856 0.30413-0.14057 0.14063-0.14057 0.30185-0.0892 0.41961 0.0515 0.11777 0.23429 0.32015 0.43999 0.48479 1.4994 1.228 2.9759 2.2959 4.3005 3.3135 0.15772-1.1068 0.67771-4.6043 0.7177-5.2789 0.0286-0.34187-0.0594-0.67687-0.11999-0.8358-0.0652-0.14749-0.26285-0.24468-0.47543-0.22181-0.22056 0.0229-0.48455 0.13606-0.62969 0.20809-0.11544 0.0515-0.24114 0.0595-0.30286-0.0812-0.0526-0.11548 0.0492-0.2321 0.30971-0.34301 0.73828-0.31785 1.5474-0.60483 1.9017-0.76147 0.37028-0.16465 1.1188-0.5614 1.808-0.87353 0.20457-0.0938 0.36228-0.0938 0.41484 0.0263 0.0514 0.12234-0.0354 0.23096-0.22056 0.31214-0.18742 0.0835-0.39314 0.2241-0.62056 0.41619-0.37713 0.30985-0.50513 1.0199-0.68913 2.1358l-1.0354 6.0072z"/><path d="m173.85 211.09c-1.0377-0.75691-1.4548-0.77406-2.2-0.55339-0.30513 0.0915-0.57712 0.26984-0.71427 0.35673-0.1577 0.096-0.24228 0.0732-0.31085-0.0354-0.0892-0.14292 0.0846-0.28127 0.34857-0.45049 0.9234-0.58311 1.9291-1.1491 2.5359-1.5321 0.44228-0.27441 1.2274-0.85752 2.0925-1.404 0.21371-0.1292 0.42056-0.20924 0.50056-0.0869 0.0835 0.1292 0.002 0.22753-0.15543 0.32586-0.27314 0.17837-0.53027 0.35902-0.59885 0.5511-0.0629 0.16922-0.0286 0.33729 0.072 0.50079 0.15198 0.23439 0.63084 0.64257 1.288 1.1456l8.2021 6.3754 0.0675-0.0423c-0.52684-2.4742-1.9897-9.7563-2.3371-11.212-0.0583-0.30299-0.1657-0.61399-0.26513-0.78206-0.0938-0.14178-0.25486-0.24468-0.44228-0.1978-0.25714 0.056-0.52227 0.20351-0.75427 0.343-0.15656 0.0983-0.30399 0.16808-0.38742 0.0389-0.0915-0.14292 0.0412-0.27784 0.36914-0.4825 0.86855-0.54767 1.6251-0.95585 1.848-1.1034 0.30172-0.18522 1.072-0.75004 1.592-1.0748 0.22056-0.14063 0.3817-0.18979 0.46627-0.0686 0.08 0.12806 0.005 0.22982-0.17828 0.33729-0.16685 0.10748-0.53142 0.34187-0.70285 0.75577-0.11885 0.30985-0.18285 0.78091 0.088 2.2433 0.40457 2.1347 0.55884 3.4072 1.0548 6.2416 0.56913 3.358 1.016 5.854 1.2057 7.0054 0.22742 1.3377 0.30971 1.6933 0.0629 1.8431-0.22742 0.14978-0.49142-0.0469-1.3565-0.69059l-11.391-8.3477z"/><polygon transform="matrix(1.1428 0 0 1.1434 -18.031 -18.027)" points="54.728 187.66 61.647 185.34 58.459 191.91"/><polygon transform="matrix(1.1428 0 0 1.1434 -18.031 -18.027)" points="190.35 195.09 186.98 188.62 193.97 190.74"/><g transform="matrix(1.1428 0 0 1.1434 -18.031 -18.027)"><path d="m187.9 93.894c0.854 1.51 1.024 3.285 1.024 3.285-13.953-2.723-27.797-5.553-41.479-8.541 0.049-0.517 0.141-0.979 0.461-1.221 13.494 2.003 26.691 4.286 39.994 6.477"/><path d="m187.14 106.19c-1.03 2.112-2.024 2.581-2.024 2.581-13.22-5.529-25.695-10.842-38.709-16.566-0.041-0.517 0.366-1.071 0.655-0.939 13.445 4.889 26.907 9.762 40.078 14.924"/><path d="m181.98 83.568c0.195 0.04 1.143 1.205 1.801 2.629-11.477-0.056-24.506-0.556-35.871-1.033v-1.22c6.758-0.212 15.658-0.376 23.371-0.376h5.537c1.651 0 4.82-0.07 5.162 0"/><path d="m178.42 113.89c-0.188 0.274-1.993 1.361-3.01 1.596-0.494 0.109-3.192-1.963-3.943-2.439-8.791-5.741-18.45-11.758-26.844-17.459 0.227-0.345 0.297-0.846 0.656-1.033 9.832 5.327 19.641 11.201 29.19 16.803 1.347 0.78 2.723 1.632 3.951 2.532"/><path d="m175.04 75.215c0.492-0.086 2.371 1.799 2.621 2.441-4.896 0.836-9.957 1.486-15.01 2.158-5.054 0.664-10.123 1.408-15.119 1.783-0.009-0.398-0.147-0.657-0.088-1.126 8.496-1.759 19.117-3.77 27.596-5.256"/><path d="m167.72 68.45c1.009 0.453 2.004 1.109 2.533 1.697-1.875 0.875-3.926 1.431-5.904 2.064-5.922 1.877-11.951 3.832-18.029 5.632-0.229-0.305-0.468-0.603-0.555-1.033 0.633-0.743 1.729-0.892 2.619-1.22 6.023-2.244 19.336-7.14 19.336-7.14"/><path d="m165.46 117.87c-0.658 0.321-1.924 0.477-2.803 0.618-0.326 0.046-2.048-1.721-2.729-2.347-5.897-5.491-12.102-11.834-17.738-17.177 0.107-0.523 0.516-0.735 0.843-1.032h0.188c5.459 4.967 11.162 9.73 16.701 14.682 1.821 1.619 3.934 3.41 5.538 5.256"/><path d="m160.21 63.224c0.75 0.142 2.184 0.994 2.716 1.573-6.147 3.3-12.367 6.531-18.49 9.855-0.508-0.22-0.829-0.61-1.032-1.126 2.493-1.713 5.365-3.247 8.354-5.077 2.775-1.689 8.452-5.225 8.452-5.225"/><path d="m152.8 59.354c0.994 0.218 1.783 0.648 2.619 1.031-1.32 1.088-2.221 1.972-3.371 2.91-3.37 2.729-6.85 5.601-10.418 8.259-0.299-0.303-0.711-0.484-0.844-0.938 3.786-3.973 8.017-7.501 12.014-11.262"/><path d="m154.01 119.57c-0.806 0.29-2.722 0.415-2.722 0.415-0.463-0.321-1.33-1.502-1.774-2.16-3.654-5.342-7.854-11.099-11.171-16.331 0.164-0.399 0.617-0.509 1.023-0.657 3.922 4.396 7.394 9.34 11.075 14.08 1.201 1.524 2.394 3.05 3.569 4.653"/><path d="m144.72 56.537c0.963 0.133 1.839 0.359 2.533 0.75-2.869 3.794-5.795 7.532-8.821 11.162-0.472-0.173-0.854-0.454-1.126-0.837 2.322-3.84 4.834-7.492 7.414-11.075"/><path d="m144.71 120.24c-0.83 0.281-1.76 0.383-2.809 0.398-2.589-5.889-5.343-11.615-7.688-17.74 1.212-0.953 1.753 0.596 2.34 1.69 2.745 5.147 5.632 10.717 8.157 15.652"/><path d="m137.54 54.808c0.828 0.071 1.346 0.18 1.924 0.509-1.299 3.708-3.161 7.649-4.787 11.357-0.549-0.023-0.562-0.282-0.993-0.415 1.07-4.027 2.344-7.861 3.856-11.451"/><path d="m136.08 120.93c-0.688 0.171-1.549 0.202-2.44 0.187-1.329-5.646-2.659-11.302-3.661-17.27 0.282-0.016 0.557-0.211 0.75-0.188 0.823 0.095 1.379 3.325 1.598 4.131 1.22 4.332 2.744 9.104 3.753 13.14"/><path d="m131.51 53.995c0.642-0.047 1.785 0.015 2.293 0.298-0.791 3.776-1.791 7.766-2.785 11.349-0.414-0.086-0.898-0.094-1.223-0.282 0.301-3.81 1.684-11.185 1.715-11.365"/><path d="m127.99 53.838c-0.166 3.411-0.477 7.704-0.916 11.146-0.398-0.039-0.97 0.087-1.219-0.094-0.274-3.341-0.398-7.642-0.407-11.053 0.609-0.116 1.664-0.147 2.542 0.001"/><path d="m127.18 104.22c0.351 5.633 0.695 11.507 0.844 17.084-0.656 0.163-1.884 0.132-2.534 0-0.009-5.672 0.087-11.607 0.274-16.99 0.188-0.296 1.102-0.235 1.416-0.094"/><path d="m123.13 65.173c-0.328 0.233-0.924 0.188-1.502 0.188-0.844-3.449-1.846-7.752-2.604-11.107 0.735-0.133 1.502-0.203 2.354-0.188 0.579 3.472 1.361 7.43 1.752 11.107"/><path d="m120.69 104.22c0.047-0.548 1.088-0.234 1.314-0.093-0.9 5.726-1.65 11.615-2.714 17.177-0.665 0.077-1.635 0.038-2.354-0.095 1.11-5.819 2.408-11.436 3.754-16.989"/><path d="m118.92 65.829c-0.282 0.228-0.696 0.312-1.135 0.375-1.876-3.355-3.965-6.946-5.6-10.527 0.578-0.267 1.595-0.556 1.784-0.47 0.351 0.149 4.153 8.284 4.951 10.622"/><path d="m116.66 103.09c0.484-0.016 0.751 0.18 1.041 0.377-2.473 5.92-4.999 11.778-7.705 17.456-0.782-0.008-1.51-0.054-2.159-0.195 1.831-4.442 4.2-8.705 6.383-13.038 0.782-1.565 1.455-3.301 2.44-4.6"/><path d="m114.4 67.519c-0.211 0.469-0.75 0.618-1.22 0.846-3.168-3.184-6.039-6.665-8.823-10.231 0.885-0.579 1.878-0.752 1.878-0.752 0.454 0.283 1.768 1.729 2.252 2.348 2.01 2.548 4.263 5.443 5.913 7.789"/><path d="m112.34 100.93c0.462 0.071 0.821 0.242 1.032 0.563-0.813 1.721-2.104 3.144-3.191 4.693-3.191 4.528-6.179 9.394-9.668 13.798-0.859 0.094-1.696 0.039-2.69-0.243 4.67-6.373 9.628-12.655 14.517-18.811"/><path d="m109.52 98.399c0.345 0.094 0.524 0.352 0.751 0.562-0.484 1.063-1.485 1.791-2.252 2.628-5.311 5.741-10.99 11.49-16.52 17.177-1.057 0.094-2.387-0.109-3.215-0.406 0 0 0.852-1.01 1.243-1.377 6.461-6.015 13.195-12.46 19.711-18.49 0.01-0.079 0.314-0.289 0.282-0.094"/><path d="m110.46 70.147c-0.102 0.547-0.656 0.648-1.032 0.938-4.544-3.058-8.769-6.437-13.046-9.761 0.453-0.471 1.282-1.221 1.971-1.221 0.626 0 1.682 1.158 2.346 1.689 1.55 1.236 2.863 2.378 4.318 3.567 1.017 0.83 4.608 3.903 5.443 4.788"/><path d="m107.36 73.526c0.117 0.422-0.423 0.93-0.751 1.219-5.968-2.979-11.787-6.107-17.739-9.104 0.531-0.758 1.588-1.479 2.347-1.688 5.466 3.104 10.895 6.249 16.143 9.573"/><path d="m106.8 95.489c0.328 0.203 0.602 0.461 0.751 0.844-2.189 2.035-20.071 14.174-25.999 18.397-0.752 0.531-2.691 1.808-2.691 1.808-0.884-0.164-2.244-0.704-2.933-1.111 7.337-5.21 15.292-9.894 22.894-14.963 2.597-1.736 5.366-3.317 7.978-4.975"/><path d="m105.39 76.998c-0.085 0.398-0.32 0.674-0.469 1.033-7.932-1.744-15.964-4.187-23.842-6.288 0.432-1.01 1.66-1.831 2.16-2.16 7.579 2.269 15.041 4.67 22.151 7.415"/><path d="m104.36 92.485c0.697-0.273 1.049 0.321 1.22 1.127-11.936 4.888-38.356 16.104-38.356 16.104-1.565-0.915-2.27-2.386-2.27-2.386 12.961-5.146 26.516-9.815 39.406-14.845"/><path d="m103.61 88.355c0.102 0.352 0.376 0.595 0.282 0.938-0.188 0.696-3.731 1.143-4.881 1.408-11.842 2.745-24.521 5.812-36.168 8.307 0.109-1.11 0.829-2.494 1.525-3.324 13.212-2.533 25.843-4.99 39.242-7.329"/><path d="m103.8 80.848c-0.079 0.57-0.289 1.023-0.563 1.406-9.801-1.023-19.664-2.064-29.191-3.096 0.556-0.994 1.299-1.62 2.16-2.441 0 0 19.201 2.785 27.594 4.131"/><path d="m103.05 84.695c0.171 0.196 0.062 0.688 0.094 1.032-1.4 0.484-2.958 0.305-4.411 0.376-10.113 0.478-20.854 1.306-31.021 1.58 0.367-1.057 1.134-1.909 1.83-2.612 10.379-0.187 22.886-0.595 33.508-0.376"/></g><path d="m145.12 81.173c-0.94854-0.61284-4.3245-1.7825-4.9576-2.2044-0.62971-0.42076 0-0.87696 0-0.87696s3.7885-2.4216 4.2765-2.9476c0.49142-0.5248 0.2617-0.73861-0.16-0.8781-0.42171-0.14178-5.209-0.95242-5.6422-1.1376-0.59085-0.25268-0.54514-0.86095-0.40457-1.1068 0.13942-0.24582 2.3131-4.2442 2.5257-4.8776 0.21028-0.63228-0.13943-0.84037-0.24571-0.9467-0.10518-0.10519-0.63199 0.07089-0.94626 0.10633-0.31657 0.03316-3.7816 1.6693-4.1691 1.7299-0.54742 0.08461-0.83884-0.08461-0.75884-0.54767 0.0446-0.2321 0.33485-4.5163 0.30171-5.4618-0.0366-0.94785-0.8777-0.49165-0.94741-0.35216-0.0709 0.14063-1.6822 1.1925-1.9657 1.5081-0.27885 0.31671-1.7188 1.6842-2.208 1.8591-0.4937 0.17494-0.4217 0.07089-0.70284-0.21038-0.27885-0.28012-2.384-4.6318-2.8045-5.0514-0.42171-0.42076-1.0171-0.09719-1.0171 0.04345 0 0.14063-2.2811 4.4111-2.4548 4.6924-0.17486 0.27898-0.52571 0.38417-0.94742 0.17265-0.42056-0.20924-3.8571-2.8756-4.4182-3.1202-0.56113-0.24468-0.77256 0.38646-0.77256 0.56139s0.42285 4.8421 0.42285 5.1211c0 0.28012 0.13829 0.70317-0.14056 0.87925-0.28229 0.17493-0.73713 0.0343-0.94741 0.0343s-5.505-1.7196-5.9964-1.6144c-0.49141 0.10633-0.38513 0.59569-0.35085 0.80721 0.0354 0.21152 3.0856 4.6661 3.2262 4.841 0.14056 0.17493 0.17485 0.52595-0.0354 0.80721-0.21142 0.28012-0.70055 0.28012-0.70055 0.28012l-4.9782 0.59569c-1.648 0.319-0.34056 1.3114-0.34056 1.3114s3.1999 2.0832 4.0399 2.6092c0.84113 0.52595 0.33143 0.98786 0.15543 1.2337-0.17485 0.24468-3.5062 2.6309-4.417 3.6485-0.91312 1.0187 0.13942 1.2989 0.49028 1.2989 0.35085 0 4.6993-0.35101 5.4696-0.4562 0.77369-0.10633 0.80684 0.63114 0.63313 0.9467-0.176 0.31671-1.9508 3.3512-2.7359 4.7004-0.76684 1.3183 0.31427 1.3675 0.83998 1.2989 0.52684-0.07089 4.4902-1.4052 5.3313-1.5092 0.84227-0.10633 0.87541 0.49165 0.83999 0.77291-0.0354 0.28127-0.66627 3.7548-0.70056 5.192-0.0354 1.4384 0.91198 0.70088 1.088 0.70088 0.17372 0 3.7508-3.19 4.3473-3.6462 0.59656-0.45734 1.1577-0.24697 1.4034 0.24468 0.24571 0.4905 2.5599 4.1744 2.9816 4.7004 0.41942 0.52595 0.80456 0.31442 1.0514 0.06974 0.24571-0.24468 1.5428-4.5243 1.8217-5.0845 0.28113-0.56025 0.59656-0.41961 0.87884-0.21038 0.28114 0.20924 3.5051 2.4902 4.4902 3.0871 0.98056 0.59569 0.94627-0.49165 0.94627-0.66772 0-0.17494-0.73713-4.2442-0.77371-5.0159-0.032-0.77177 0.77371-0.59569 0.77371-0.59569s4.2433 0.77063 5.2948 0.84151c1.0537 0.07089 0.77254-0.94785 0.77254-0.94785s-2.9794-3.9286-3.2262-4.418c-0.24342-0.49164 0.14171-0.67001 0.52571-0.70088 0.59541-0.04916 4.681-0.80721 5.5644-0.97643 0.74513-0.13835 0.85485-0.82551 0.37371-1.1331m-9.3861 4.3779c-4.0639 5.6871-13.321 6.3571-18.285 1.6041-2.0491-1.9689-3.7782-5.1085-3.7416-8.8794 0.0354-4.1195 1.8971-6.9185 3.8491-8.6655 1.7108-1.5413 3.7405-2.6206 6.8433-2.9945 6.1107-0.73861 10.291 2.5566 12.296 6.3125 2.1394 4.0029 1.4548 9.2441-0.96112 12.623"/></g></svg>
