<?xml version="1.0" encoding="utf-8"?>
<!-- Generator: Adobe Illustrator 19.0.0, SVG Export Plug-In . SVG Version: 6.00 Build 0)  -->
<svg version="1.1" id="Layer_1" xmlns="http://www.w3.org/2000/svg" xmlns:xlink="http://www.w3.org/1999/xlink" x="0px" y="0px"
	 viewBox="-283.4 544.4 440.9 209.2" style="enable-background:new -283.4 544.4 440.9 209.2;" xml:space="preserve">
<style type="text/css">
	.st0{fill:#2F854C;}
	.st1{fill:#FFFFFF;}
</style>
<g>
	<rect x="-283.4" y="544.4" class="st0" width="209.1" height="209.2"/>
	<rect x="-51.6" y="544.4" class="st0" width="209.1" height="209.2"/>
	<path class="st1" d="M-157,710.1v-44.6h24.7v47c0,3.3,0.8,5.7,2.3,7.1c1.5,1.4,3.6,2.1,6.1,2.1c2.6,0,4.6-0.7,6.2-2.1
		c1.6-1.4,2.4-3.8,2.4-7.1v-47h24.6v44.6c0,5.3-0.8,9.8-2.4,13.6c-1.6,3.7-3.8,6.7-6.7,9.1c-2.9,2.3-6.4,4-10.5,5.1
		c-4.1,1.1-8.6,1.6-13.5,1.6c-4.8,0-9.3-0.5-13.4-1.6c-4.1-1.1-7.6-2.8-10.5-5.1c-2.9-2.3-5.2-5.4-6.8-9.1
		C-156.2,719.9-157,715.4-157,710.1z M-200.6,721.3c0,0.5,0.2,0.7,0.7,0.7c0.4,0,0.5-0.2,0.5-0.7c0.6-4.7,1.5-9.8,2.5-15.4
		c1-5.6,2-11,3-16.3c1-5.3,2-10.1,2.9-14.4c0.9-4.3,1.6-7.5,2.1-9.7h23.1v72h-13.9v-60.6c0-0.4-0.3-0.5-0.7-0.5
		c-0.3,0-0.4,0.2-0.4,0.5c-0.6,2.8-1.2,6-1.8,9.5c-0.6,3.5-1.4,7.6-2.4,12.3c-0.9,4.7-2,10.2-3.4,16.5c-1.3,6.3-2.9,13.7-4.6,22.2
		h-14.4c-1.8-8.4-3.3-15.6-4.5-21.7c-1.3-6.1-2.3-11.4-3.3-16.1c-0.9-4.6-1.7-8.7-2.5-12.3c-0.7-3.6-1.4-7.1-2.1-10.5
		c0-0.4-0.2-0.5-0.7-0.5c-0.3,0-0.4,0.2-0.4,0.5v60.6h-12.7v-72h23.2c0.4,1.6,0.8,3.6,1.3,6.1c0.5,2.5,1.1,5.3,1.7,8.3
		c0.6,3.1,1.2,6.4,1.9,9.9c0.6,3.5,1.3,7.1,1.9,10.7c0.6,3.6,1.2,7.2,1.8,10.7C-201.5,714.8-201,718.2-200.6,721.3z M-268.5,665.6
		h7.1v66.7h20.5v5.3h-27.6V665.6z"/>
	<polygon class="st1" points="-36.3,653.2 -36.3,637.9 -33.4,637.9 -33.4,651 -25.8,651 -25.8,653.2 	"/>
	<path class="st1" d="M-15.4,653.5c-3.3,0-6.4-1.2-6.4-6.4v-9.2h2.9v9.4c0,2.4,1.2,4.1,3.5,4.1c2.3,0,3.5-1.5,3.5-4.1v-9.4h2.9v9.2
		C-9.1,652-12.2,653.5-15.4,653.5z"/>
	<path class="st1" d="M1.2,640.1h-1.6V651h1.6c3.2,0,5-1.4,5-5.6C6.2,641.9,4.5,640.1,1.2,640.1z M1.3,653.2h-4.6v-15.3h4.6
		c5.4,0,7.9,3.1,7.9,7.5C9.2,650.5,6.3,653.2,1.3,653.2z"/>
	<polygon class="st1" points="29,653.2 26,653.2 23,642.5 20,653.2 17,653.2 12.4,637.9 15.5,637.9 18.7,649.9 21.6,639.2 
		24.6,639.2 27.6,649.9 30.7,637.9 33.6,637.9 	"/>
	<rect x="38" y="637.9" class="st1" width="2.9" height="15.3"/>
	<path class="st1" d="M53.6,653.5c-4.7,0-7.4-3.2-7.4-8.1c0-5.3,3.9-7.8,7.4-7.8c2.5,0,4.1,0.8,5.2,1.7l-1.2,2.1
		c-0.8-0.9-2-1.8-4-1.8c-2.6,0-4.5,2.3-4.5,5.8c0,3.6,1.9,6,4.6,6c1.6,0,2.5-0.4,2.8-0.7v-3.9h-3.4v-2.1h6.2v7.3
		C57.9,652.9,56.2,653.5,53.6,653.5z"/>
	<rect x="63.2" y="645.4" class="st1" width="6" height="1.9"/>
	<polygon class="st1" points="-22.4,681.3 -22.9,669.7 -26.8,679.2 -29.4,679.2 -33.4,669.7 -33.8,681.3 -36.6,681.3 -35.7,666 
		-32.2,666 -28,676.2 -24,666 -20.4,666 -19.6,681.3 	"/>
	<path class="st1" d="M-8.3,668.9l-2.4,6.7h4.8L-8.3,668.9z M-3.8,681.3l-1.3-3.7h-6.3l-1.4,3.7h-3l6.1-15.3h3l6.1,15.3H-3.8z"/>
	<polygon class="st1" points="13.4,681.3 9.3,675.1 5,681.3 1.6,681.3 7.5,673.4 2.1,666 5.6,666 9.4,671.7 13.1,666 16.5,666 
		11.1,673.4 17,681.3 	"/>
	<rect x="21.2" y="666" class="st1" width="2.9" height="15.3"/>
	<polygon class="st1" points="44,681.3 43.5,669.7 39.6,679.2 37,679.2 33,669.7 32.6,681.3 29.8,681.3 30.7,666 34.2,666 
		38.4,676.2 42.4,666 46,666 46.9,681.3 	"/>
	<rect x="52.6" y="666" class="st1" width="2.8" height="15.3"/>
	<polygon class="st1" points="72,681.3 72,679 64.4,679 64.4,666 61.6,666 61.6,681.3 	"/>
	<rect x="76.9" y="666" class="st1" width="2.8" height="15.3"/>
	<path class="st1" d="M91.5,668.9l-2.4,6.7h4.8L91.5,668.9z M96,681.3l-1.3-3.7h-6.3l-1.4,3.7h-3l6.1-15.3h3l6.1,15.3H96z"/>
	<polygon class="st1" points="112.5,681.3 106.1,669.9 106.1,681.3 103.3,681.3 103.3,666 107,666 113.4,677.4 113.4,666 116.2,666 
		116.2,681.3 	"/>
	<path class="st1" d="M132.5,677.1c0-2.3-1.4-3.4-3.1-4.1l-3-1.3c-0.9-0.4-1.9-0.9-1.9-2c0-0.9,0.8-1.9,2.5-1.9c1.9,0,3,0.8,3.9,1.9
		l1.2-1.9c-1.1-1.3-3-2.1-5.1-2.1c-2.5,0-5.4,1.4-5.4,4.4c0,1.9,1.3,3.1,2.9,3.8l3,1.3c1.2,0.5,2.1,1.1,2.1,2.3c0,1-0.9,2.1-2.8,2.1
		c-2,0-3.2-0.9-4.3-2.1l-1.2,1.9c0.7,0.9,2.5,2.3,5.5,2.3C131.3,681.6,132.5,678.6,132.5,677.1z"/>
	<rect x="136.2" y="673.5" class="st1" width="6" height="1.9"/>
	<path class="st1" d="M-30.1,709.7c-3.3,0-6.4-1.2-6.4-6.4v-9.2h2.8v9.4c0,2.4,1.2,4.1,3.5,4.1c2.3,0,3.5-1.5,3.5-4.1v-9.4h2.8v9.2
		C-23.8,708.2-26.9,709.7-30.1,709.7z"/>
	<polygon class="st1" points="-8.7,709.4 -15.1,698 -15.1,709.4 -17.9,709.4 -17.9,694.1 -14.2,694.1 -7.8,705.5 -7.8,694.1 
		-5,694.1 -5,709.4 	"/>
	<rect x="1.1" y="694.1" class="st1" width="2.9" height="15.3"/>
	<polygon class="st1" points="16.9,709.4 13.9,709.4 7.8,694.1 11,694.1 15.5,706.5 19.9,694.1 23,694.1 	"/>
	<polygon class="st1" points="27.2,709.4 27.2,694.1 37.5,694.1 37.5,696.3 30.1,696.3 30.1,700.4 37,700.4 37,702.5 30.1,702.5 
		30.1,707.1 37.8,707.1 37.8,709.4 	"/>
	<path class="st1" d="M48,696.3h-2.5v4.4H48c2.2,0,2.7-1.1,2.7-2.3C50.8,697.2,49.9,696.3,48,696.3z M51.6,709.4l-3.1-4.6
		c-0.8-1.2-1.5-2-2.2-2h-0.7v6.6h-2.8v-15.3h5.9c2.7,0,5.1,1.4,5.1,4.3c0,2.9-2.6,4-3.9,4.1c0.4,0.3,1,1,1.2,1.3l4,5.6L51.6,709.4
		L51.6,709.4z"/>
	<path class="st1" d="M63.5,709.7c-3,0-4.8-1.4-5.5-2.2l1.2-1.9c1.1,1.2,2.4,2.1,4.3,2.1c1.9,0,2.8-1.1,2.8-2.1
		c0-1.2-0.9-1.8-2.1-2.3l-3-1.3c-1.6-0.7-2.9-1.9-2.9-3.8c0-2.9,2.9-4.4,5.4-4.4c2,0,4,0.8,5.1,2.1l-1.2,1.9c-0.9-1.1-2-1.9-3.9-1.9
		c-1.7,0-2.5,1-2.5,1.9c0,1.1,1,1.6,1.9,2l3,1.3c1.7,0.7,3.1,1.8,3.1,4.1C69.4,706.7,68.1,709.7,63.5,709.7z"/>
	<rect x="74.5" y="694.1" class="st1" width="2.9" height="15.3"/>
	<polygon class="st1" points="89.6,696.4 89.6,709.4 86.8,709.4 86.8,696.4 81.6,696.4 81.6,694.1 94.8,694.1 94.8,696.4 	"/>
	<path class="st1" d="M106.7,692.7c-0.8,0-1.5-0.7-1.5-1.5c0-0.8,0.7-1.5,1.5-1.5s1.5,0.7,1.5,1.5
		C108.2,692,107.5,692.7,106.7,692.7z M104.5,696.9l-2.4,6.7h4.8L104.5,696.9z M102.4,692.7c-0.8,0-1.5-0.7-1.5-1.5
		c0-0.8,0.7-1.5,1.5-1.5c0.8,0,1.5,0.7,1.5,1.5C103.9,692,103.3,692.7,102.4,692.7z M109.1,709.4l-1.3-3.7h-6.3l-1.4,3.7h-3
		l6.1-15.3h3l6.1,15.3H109.1z"/>
	<polygon class="st1" points="122.5,696.4 122.5,709.4 119.7,709.4 119.7,696.4 114.5,696.4 114.5,694.1 127.7,694.1 127.7,696.4 	
		"/>
	<polygon class="st1" points="-22.4,737.5 -22.9,725.9 -26.8,735.4 -29.4,735.4 -33.4,725.9 -33.8,737.5 -36.6,737.5 -35.7,722.2 
		-32.2,722.2 -28,732.3 -24,722.2 -20.4,722.2 -19.6,737.5 	"/>
	<path class="st1" d="M-5.8,720.8c-0.8,0-1.5-0.7-1.5-1.5c0-0.8,0.7-1.5,1.5-1.5c0.8,0,1.5,0.7,1.5,1.5
		C-4.3,720.1-5,720.8-5.8,720.8z M-10,720.8c-0.8,0-1.5-0.7-1.5-1.5c0-0.8,0.7-1.5,1.5-1.5s1.5,0.7,1.5,1.5
		C-8.5,720.1-9.2,720.8-10,720.8z M-7.7,737.8c-3.3,0-6.4-1.2-6.4-6.4v-9.2h2.8v9.4c0,2.4,1.2,4.1,3.5,4.1c2.3,0,3.5-1.5,3.5-4.1
		v-9.4h2.8v9.2C-1.4,736.2-4.6,737.8-7.7,737.8z"/>
	<polygon class="st1" points="13.6,737.5 7.2,726.1 7.2,737.5 4.4,737.5 4.4,722.2 8.2,722.2 14.6,733.6 14.6,722.2 17.4,722.2 
		17.4,737.5 	"/>
	<path class="st1" d="M29.9,737.8c-5,0-7.3-3.8-7.3-8.1c0-4.1,2.8-7.8,7.3-7.8c2.2,0,3.9,0.7,5.1,1.9l-1.1,2.1c-0.9-1-1.7-2-3.9-2
		c-2.6,0-4.3,2.5-4.3,5.7c0,3.2,1.9,6,4.4,6c1.8,0,3-0.6,4.3-2l1.1,2.2C33.6,737.3,32.3,737.8,29.9,737.8z"/>
	<polygon class="st1" points="49.5,737.5 49.5,730.6 42.7,730.6 42.7,737.5 39.8,737.5 39.8,722.2 42.7,722.2 42.7,728.5 
		49.5,728.5 49.5,722.2 52.4,722.2 52.4,737.5 	"/>
	<polygon class="st1" points="58.4,737.5 58.4,722.2 68.7,722.2 68.7,724.4 61.3,724.4 61.3,728.4 68.1,728.4 68.1,730.6 
		61.3,730.6 61.3,735.2 69,735.2 69,737.5 	"/>
	<polygon class="st1" points="83.1,737.5 76.7,726.1 76.7,737.5 73.9,737.5 73.9,722.2 77.6,722.2 84,733.6 84,722.2 86.8,722.2 
		86.8,737.5 	"/>
</g>
</svg>
