<svg xmlns="http://www.w3.org/2000/svg" viewBox="0 0 400 303"><g fill="none" stroke-width="2"><path stroke="#818080" d="M227.63 26.2c-.88-5.39-4.22-9.6-10.22-9.13q-.49.04-.67-.42c-2.36-6.07-5.47-10.74-12.58-11.51q-13.54-1.47-17.67 11.1-.35 1.06-1.56.84c-5.66-1-9.65 4.06-10.39 9.1q-.08.57-.64.49c-40.08-5.4-56.48 39.69-60.57 70.34-3.04 22.67-2.59 45.05.19 67.69 6.02 49.16 30.31 109.41 83.03 124.98a1.85 1.82 78.2 0 1 .9.6q1.7 2.08 4.08 3.32a.68.67-53.4 0 0 .78-.12l3.74-3.6a1.16 1.07-73.9 0 1 .46-.28c44.68-13.42 69.89-59.93 78.81-102.29q9.16-43.42 4.95-84.74c-3.28-32.2-19.26-81.97-62.02-75.91q-.53.07-.62-.46" vector-effect="non-scaling-stroke"/><path stroke="#674d02" d="M205.57 72.86a.36.36 0 0 0 .32-.51c-4.96-10.42-7.06-49.96 10.67-51.04 4.18-.25 6.96 1.83 8.23 5.69q.09.27.38.26.15-.01.33 0 .36.01.3-.34-1.52-8.65-10.19-7.91-.49.04-.61-.45-2.91-11.96-13.83-11.67c-7.29.2-11.95 4.59-13.15 11.67a.66.65 8.5 0 1-.72.53q-8.77-1.02-10.68 7.36a.63.63 0 0 0 .42.73l.33.11q.55.18.74-.37 2.62-7.65 10.94-5.33c7.16 1.99 8.88 10.43 10.18 16.62q3.62 17.32-2.01 34.33-.12.35.25.35l8.1-.03" vector-effect="non-scaling-stroke"/><path stroke="#674d02" d="M190.42 71.88c-5.97 2.3-13.39 1.94-19.36-.16-10.25-3.6-10.47-29.37 4.7-26.53a.71.71 0 0 0 .64-1.19c-11.99-12.5-28.72-1.2-35.76 10.81q-.24.41-.08.85c3.89 11.05 18.15 20.48 28.4 25.64q.86.43 1.62-.15c5.73-4.42 15.49-6.91 22.42-7.63q1.04-.11 1.52-1.03c6.11-11.63 4.93-31.5-.22-43.29q-2.51-5.74-8.29-5.73-4.59.02-5.71 4.2a.72.71-69.2 0 0 .36.81q18.06 9.33 16.69 29.17c-.29 4.19-2.51 12.53-6.93 14.23M232.51 71.49c-6.36 3.06-15.49 2.54-21.79-.43q-.47-.22-.73-.66c-8.89-14.67-4.54-34.4 12-41.59a1.2 1.2 0 0 0 .63-1.55c-1.89-4.57-6.67-4.93-10.23-2.72-3.64 2.25-5.2 7.37-6.18 11.65-3.03 13.24-2.39 24.15 2.1 36.52a1.06 1.04 82.4 0 0 .89.69q12.79 1.2 23.74 7.87.44.27.9.04c10.57-5.33 24.5-14.7 28.56-25.84a1 .98-51.9 0 0-.1-.9c-7.54-11.75-23.39-22.89-36.14-10.59a.54.53 23.8 0 0 .36.92c4.08.11 8.51-.41 10.56 4.45 2.84 6.76 3.22 18.41-4.57 22.14" vector-effect="non-scaling-stroke"/><path stroke="#674d02" d="M138.81 53.25c6.58-10.33 21.22-21.75 34.16-14.93 10.81 5.7 15.69 24.55 4.12 32.21q-.77.51.14.61 6.78.77 13.11-1.59.51-.19.78-.66 9.82-16.78-2.11-31.2c-7.68-9.28-19.55-10.72-30.73-7.98-10.57 2.6-19.68 10.18-25.66 19.2q-.37.57.19.94l5.31 3.54a.5.49 33.2 0 0 .69-.14M225.65 70.29c-7.88-4.65-7.68-15.39-4.04-22.74 10.44-21.13 33.52-8.71 42.24 5.49q.36.58.94.22l5.38-3.43q.51-.33.17-.83c-10.3-14.95-29.09-25.93-47.3-18.15-13.72 5.86-19.71 22.99-12.26 36.25 2.47 4.39 10.46 4.74 14.76 3.87q.94-.19.11-.68" vector-effect="non-scaling-stroke"/><path stroke="#674d02" d="M174.98 47.22c3.59 7.36 2.9 13.36.59 20.98q-.17.58.35.29c7.57-4.03 6.47-15.17 2.5-21.37q-.24-.37-.68-.37h-2.47q-.52 0-.29.47M226.37 67.99q1.43 1 .8-.63-3.96-10.27.85-20.02.19-.39-.23-.5c-1.85-.49-3.17-.24-4.12 1.59-3.17 6.1-3.74 15.02 2.7 19.56" vector-effect="non-scaling-stroke"/><path stroke="#674d02" d="M170.3 66.44a2.49 2.48 81.8 0 1-2.23-1.67l-1.41-4.14a.22.21 36.5 0 0-.42.06q-.08 4.52 2.88 7.83a2.26 2.26 0 0 0 3.55-.23q4.63-6.76 2.31-15.32c-2.5-9.27-8.48-5.52-8.5 1.19a.26.26 0 0 0 .5.1l1.52-3.62a1.97 1.96-75 0 1 2.05-1.19c5.23.62 4.87 17.22-.25 16.99M232.55 66.39c-5.37-.37-5.22-15.86-.61-16.81 2.74-.56 3.07 2.72 3.95 4.38a.45.45 0 0 0 .84-.3c-.5-2.53-1.92-6.14-4.93-6.46a1.12 1.12 0 0 0-.9.3c-4.88 4.64-4.27 13.61-1.73 19.13 3.26 7.1 7.51-1.98 7.48-5.24a.34.34 0 0 0-.65-.12l-1.5 3.88a1.95 1.94-77.4 0 1-1.95 1.24" vector-effect="non-scaling-stroke"/><path stroke="#674d02" d="M170.61 51.07q-.17-.07-.32.01-.76.41-1.15 1.49a1.51 1.05-31.5 0 0 2.59.15q.48-.93-1.12-1.65M137.15 55.04l-5.54-3.83a.64.63-57.1 0 0-.9.2c-9.97 16.91-14.8 37.19-16.42 56.51a.66.65-85.6 0 0 .6.71l6.92.54q.46.03.5-.43c1.32-17.96 5.74-37.47 14.95-53.16a.41.39-57.4 0 0-.11-.54M231.49 53.02q2.33.73 2.02-1.23a.89.89 0 0 0-1.15-.71q-1.36.43-1.1 1.68.04.2.23.26M270.96 51.5l-5 3.4a.51.5 58.2 0 0-.15.67c9.06 16.13 13.24 34.56 14.77 52.88q.05.63.68.58l6.7-.52q.55-.04.51-.59-1.31-18.09-6.77-35.36c-1.63-5.16-5.03-15.14-9.65-20.9q-.47-.58-1.09-.16" vector-effect="non-scaling-stroke"/><path stroke="#674d02" d="M171.025 60.806a2.86 1.08 92.9 0 0 1.224-2.801 2.86 1.08 92.9 0 0-.934-2.911 2.86 1.08 92.9 0 0-1.224 2.801 2.86 1.08 92.9 0 0 .934 2.911M232.96 60.3l.02-4.8a.24.24 0 0 0-.24-.25h-.15a1.87 1.86.3 0 0-1.88 1.85v1.56a1.87 1.86.3 0 0 1.86 1.87h.15a.24.24 0 0 0 .24-.23M166.94 82.43c-10.82-5.89-21.8-13.66-27.59-24.63q-.29-.56-.65-.04-2.19 3.21-3.38 6.07-9.21 22.17-10.76 45.73-.07.98.86 1.32 9.19 3.28 18.96 3.87a1.17 1.16-79.6 0 0 1.19-.83q5.8-18.81 21.43-30.68a.48.48 0 0 0-.06-.81M235.68 83.05c11.64 8.71 16.76 18.05 21.79 31.11q.19.49.71.47c4.65-.14 16.39-1.3 19.88-4.42a1.02 1 67.6 0 0 .34-.84c-1.63-18.06-5.52-35.42-13.99-51.63a.36.35 44.8 0 0-.63 0c-5.75 10.93-17.35 19.24-28.05 24.77a.32.32 0 0 0-.05.54" vector-effect="non-scaling-stroke"/><path stroke="#674d02" d="M171.712 63.268a1.22 1.15-12.4 0 0-1.439-.861 1.22 1.15-12.4 0 0-.945 1.385 1.22 1.15-12.4 0 0 1.439.861 1.22 1.15-12.4 0 0 .945-1.385M233.59 63.62a.7.7 0 0 0-.56-1.12h-1q-.68 0-.78.68-.16 1.11 1.1 1.47a.6.59 25.5 0 0 .64-.22l.6-.81M220.71 78.03q-19.14-5.65-38.29 0-1.19.35.03.57c5.53 1 11.53 2.82 16.67 3.03q8.82.36 17.34-2.42c1.19-.38 2.95-.2 4.25-.54a.34.33 45.5 0 0 0-.64" vector-effect="non-scaling-stroke"/><path stroke="#674d02" d="M259.3 147.26c1.24-22.7-6.98-56.29-31.53-65.06q-5.31-1.9-9.71-.88c-7.46 1.72-13.64 3.41-20.85 2.52-5.26-.65-11.39-3.02-16.11-2.65q-7.51.59-14.63 5.82c-17.72 13.03-22.99 36.46-22.72 57.16.59 44.26 19.99 89.72 57.27 115.17q.43.29.87.01 5.64-3.62 10.59-8.11c30.06-27.19 44.65-63.96 46.82-103.98M121.61 110.86l-6.89-.52q-.55-.04-.59.5c-1.52 19.95-.16 40.32 2.77 60.56q.17 1.14 1.25.77l5.44-1.84q.43-.15.41-.61-.25-4.27-.78-8.5-3.13-24.95-1.25-49.94a.39.39 0 0 0-.36-.42M280.97 111.37c.96 21.41.7 38.17-2.1 57.77a1.28 1.27-77 0 0 .86 1.39l5.28 1.7q.75.25.87-.53c3.11-19.98 4.5-40.54 2.91-60.75q-.04-.54-.59-.52l-6.7.36q-.56.03-.53.58" vector-effect="non-scaling-stroke"/><path stroke="#674d02" d="M262.15 134.44c4.84-6.44 16.12-5.58 17.07 3.5q.01.06.07.07.03 0 .05-.01.33-.06.33-.07l-.69-25.06q-.01-.57-.55-.37-9.48 3.68-19.71 3.91-.56.01-.41.55 2.48 8.85 2.95 18.02a.36.36 0 0 0 .71.05q.02-.12.06-.32.03-.15.12-.27M124.05 113.01c-.66 11.39-1.66 25 .09 36.16q.01.08.1.08h.28q.18 0 .17-.18-.37-5.67-.37-11.38c-.01-9.08 12.23-9.25 16.63-3.01q.48.69.55-.15.75-8.86 2.98-17.48.14-.56-.43-.58-10.02-.4-19.38-3.87-.59-.21-.62.41" vector-effect="non-scaling-stroke"/><path stroke="#674d02" d="M137.32 133.68q-6.63-3.7-11.17 2.06a.84.78-28.6 0 0-.18.53l.1 8.49q.01.78.58.23 5.33-5.17 12.06-1.68.55.29.55-.33c.03-2.68.87-7.72-1.94-9.3M265.98 133.48c-3.08 2.16-2.56 6.16-2.13 9.48q.06.48.49.25 4.62-2.48 9.47-.37c1.03.45 1.63 1.43 2.64 2.02q.61.36.57-.35c-.12-2.55.52-5.92-.13-8-1.38-4.39-7.48-5.43-10.91-3.03" vector-effect="non-scaling-stroke"/><path stroke="#302209" d="m273.75 148 .51-2.76a.21.21 0 0 0-.17-.24l-5.58-1.01a2.2 1.57 10.3 0 0-2.45 1.15l-.01.08a2.2 1.57 10.3 0 0 1.88 1.94l5.58 1.01a.21.21 0 0 0 .24-.17M135.98 146.94q.05.14.09.28a.18.18 0 0 0 .3.06q1.15-1.24.22-2.73-.29-.46-.83-.41l-5.31.51a.71.69-80 0 0-.56.4l-1.33 2.78a.49.49 0 0 0 .69.63q2.99-1.81 6.52-1.68.16 0 .21.16" vector-effect="non-scaling-stroke"/><path stroke="#674d02" d="m263.38 151.33-.18 3.57q-.03.67.57.39 6.41-2.96 10.76 2.13.72.85 1.11-.19c2.63-6.95-6.39-9.92-11.5-7.11a1.46 1.45 77.2 0 0-.76 1.21M138.89 150.04c-5.8-2.75-13.32.02-11.6 7.62a.46.46 0 0 0 .81.19q4.41-5.41 10.96-2.58a.53.53 0 0 0 .74-.53l-.34-3.9q-.05-.56-.57-.8" vector-effect="non-scaling-stroke"/><path stroke="#302209" d="M264.22 158.49a1.06 1.05 10.8 0 0 1.04 1.52q3.46-.29 6.69 1.1a.9.89-.9 0 0 1.17-1.2c-1.56-3.33-6.77-5.69-8.9-1.42M138.3 157.53c-3.42-1.56-8.96-1.35-8.11 3.72q.11.62.64.28 3.07-1.98 6.9-1.75a1.18 1.18 0 0 0 .57-2.25" vector-effect="non-scaling-stroke"/><path stroke="#674d02" d="m262.26 163.3-.78 4.16q-.11.55.45.5c5.15-.48 9.16-.98 11.18 4.77a.27.27 0 0 0 .53-.05l.82-5.45q.07-.49-.18-.9-3.85-6.26-11-4.17a1.47 1.46-3.3 0 0-1.02 1.14M140.01 162.39q-7.15-2.35-11.12 3.8-.3.47-.23 1.02l.61 4.77a.36.36 0 0 0 .68.12c2.54-5.07 6.2-4.59 11.09-4.12q.6.06.49-.53l-.78-4.21a1.11 1.09-86.5 0 0-.74-.85" vector-effect="non-scaling-stroke"/><path stroke="#302209" d="M140.15 171.17q-2.53-1.63-4.53-1.17c-1.74.41-3.36 1.34-3.37 3.38a1.21 1.21 0 0 0 1.98.94q2.32-1.91 5.36-1.58a.86.85-25.4 0 0 .56-1.57M262.42 171.74a.41.4 18.2 0 0 .33.64q3.96-.01 7.02 2.35a.46.46 0 0 0 .73-.31c.56-4.77-5.1-6.78-8.08-2.68" vector-effect="non-scaling-stroke"/><path stroke="#674d02" d="m135.81 206.04 8.98 19.87a.92.91-19.8 0 0 1.08.5q8.37-2.32 13.64-9.21.22-.29.07-.62l-7.32-16.23a.11.11 0 0 0-.21.01c-1.73 6.73-10.12 10.67-15.71 5.63" vector-effect="non-scaling-stroke"/><path stroke="#302209" d="M136.34 205.99q-5.61-16.42-8.7-33.61-.09-.55-.36-.05-.23.42-.15.87 2.74 16.48 8.68 32.84" vector-effect="non-scaling-stroke"/><path stroke="#956e0a" d="M136.34 205.99q.39 0-.53.05" vector-effect="non-scaling-stroke"/><path stroke="#674d02" d="m136.66 230.35 5.3-3.13q.54-.32.26-.88-12.37-25.06-17.3-52.6-.1-.55-.63-.38l-5.95 1.89q-.6.19-.5.81 4.69 28.08 17.02 53.74a1.29 1.28 61.8 0 0 1.8.55M278.2 173.89q-.4.59-.53 1.29-4.99 26.83-17.15 51.24-.25.5.23.77l5.92 3.41a.92.92 0 0 0 1.29-.4q12.41-25.81 17.23-54.08a.81.81 0 0 0-.56-.91l-5.38-1.68q-.66-.21-1.05.36M142.55 175.24c-4.51-1.24-8.18-.46-10.63 3.55-1.32 2.16-.66 4.2.24 6.37q.27.66.67.07 3.91-5.88 10.8-4.09.54.14.43-.4l-.93-4.88q-.1-.49-.58-.62M260.07 175.69l-1.32 4.85a.38.38 0 0 0 .45.47q6.8-1.48 10.88 4.04.46.61.76-.09c3.18-7.21-3.49-11.67-10.06-9.98a1 1 0 0 0-.71.71" vector-effect="non-scaling-stroke"/><path stroke="#302209" d="m259.69 185.26 7.6 2.92a.2.2 0 0 0 .26-.12l.06-.16a4.11 3.59 21 0 0-2.55-4.82l-.3-.12a4.11 3.59 21 0 0-5.12 1.88l-.06.16a.2.2 0 0 0 .11.26M136.89 186.38l.19.73a.43.43 0 0 0 .7.22q2.25-1.89 5.24-2.1a.59.59 0 0 0 .28-1.08c-3.57-2.33-8.05-.94-8.08 3.74q0 .5.37.16.69-.63.67-1.58a.32.32 0 0 1 .63-.09" vector-effect="non-scaling-stroke"/><path stroke="#674d02" d="M145.22 187.67q-7.32-1-10.59 5.49-.26.51-.08 1.06l1.49 4.76a.44.44 0 0 0 .74.17q4.46-4.59 10.87-4.12.8.06.54-.69l-2.01-5.88q-.24-.69-.96-.79M256.73 188.46l-2.14 6.38a.41.41 0 0 0 .45.53q6.68-1.09 10.99 3.85.42.49.72-.08c1.48-2.82 2.54-5.33.63-7.81q-3.8-4.97-9.8-3.64-.64.14-.85.77" vector-effect="non-scaling-stroke"/><path stroke="#302209" d="M267.43 203.9a4.25.47 108.1 0 0 1.767-3.894 4.25.47 108.1 0 0 .873-4.186 4.25.47 108.1 0 0-1.767 3.894 4.25.47 108.1 0 0-.873 4.186" vector-effect="non-scaling-stroke"/><path stroke="#302209" d="M265.06 200.3c-3-4.54-15.49-5.26-12.11 1.44a.34.34 0 0 0 .65-.19c-.63-6.2 5.72-4 9.06-2.7q.46.17.76.57c1.88 2.52 2.61 5.47-1.24 6.56q-.31.08-.36.37-.09.55.44.41c2.98-.77 4.64-3.67 2.8-6.46" vector-effect="non-scaling-stroke"/><path stroke="#674d02" d="M262.25 202.44a1.25 1.24 90 0 1-1.33 1.34q-2.42-.18-4.36-1.54a1.08 1.06-64.2 0 1-.4-1.18q.43-1.44 1.67-1.27.45.07.59-.37.11-.34.01-.44a1.95 1.95 0 0 0-3.33.78c-1.05 3.78 4.92 5.28 7.44 4.91a1.71 1.7 75.4 0 0 1.34-2.29q-1-2.64-3.6-3.07a.35.34-34.4 0 0-.13.68q1.94.39 2.1 2.45M141.44 203.81c-1.58-2.13.42-4.13 2.6-4.11q.21.01.21-.2 0-.13.01-.27a.33.32-12.1 0 0-.47-.3l-3.5 1.78a1.95 1.95 0 0 0-.49 3.13c2.26 2.21 5.44-.24 7.7-1.35a1.82 1.81-50.6 0 0-.33-3.38l-1.15-.31a.35.35 0 0 0-.26.64q1.44.82.85 2.64a.91.91 0 0 1-.55.59l-3.58 1.43a.88.88 0 0 1-1.04-.29" vector-effect="non-scaling-stroke"/><path stroke="#674d02" d="M266.15 206.04c-4.94 4.25-13.34.95-15.11-5.18a.35.35 0 0 0-.66-.05l-7.03 15.35q-.23.51.09.98c3.26 4.79 8.64 8.14 13.88 9.37q.6.13.87-.41 4.86-9.58 8.55-19.65.49-1.34-.59-.41" vector-effect="non-scaling-stroke"/><path stroke="#302209" d="M143.76 206.02q-5.2 1.18-6.26-3.91-.1-.48-.44-.13-.27.29-.12.83 1.49 5.36 6.94 3.66a.23.23 0 0 0-.12-.45M260.78 206.29q-1.5-.95-3.21-.86-.53.03-.11.36 1.42 1.13 3.12 1.15 1.23.02.2-.65" vector-effect="non-scaling-stroke"/><path stroke="#674d02" d="M256.53 228.16q-8.49-2.2-13.98-9.05-.63-.78-1.12.09-10.37 18.5-26.07 32.72a.84.83 61.4 0 0-.24.83q2.27 8.51 10.22 12.24a1.25 1.21-45.8 0 0 1.1-.03q2.28-1.2 5.05-3.73 15.5-14.15 25.23-32.65a.29.29 0 0 0-.19-.42M146.47 228.9c6.81 12.89 17.55 27.63 29.58 36.04a1.07 1.05-38.3 0 0 1.01.11q8.24-3.44 10.74-12.02a1 .98-61.4 0 0-.29-1.01q-15.63-14.31-26.1-32.73-.36-.64-.84-.08-5.58 6.54-13.81 9-.56.17-.29.69" vector-effect="non-scaling-stroke"/><path stroke="#674d02" d="M136.73 233.18c7.69 14.99 18.96 29.7 32.34 39.84a.56.56 0 0 0 .77-.1l4.4-5.47q.33-.42-.08-.76-18.99-15.66-30.28-37.58-.25-.48-.72-.21l-6.23 3.57a.53.53 0 0 0-.2.71M233.22 272.97a.38.38 0 0 0 .52.06c13.7-10.44 24.43-24.55 32.48-39.67a.78.78 0 0 0-.3-1.05l-6.15-3.57a.58.58 0 0 0-.81.24q-11.2 22.04-30.3 37.7-.42.34-.08.75l4.64 5.54M189.76 253.95a.29.29 0 0 0-.46.15q-2.51 8.45-10.38 12.33-.62.31-.05.71 6.94 4.82 15.04 7.13.81.23 1.53-.21 6.29-3.88 12.59.19a1.08 1.06-36.3 0 0 .91.13q8.05-2.41 14.98-7.17.56-.39-.04-.71-7.63-4.01-10.23-12.28-.16-.49-.57-.18l-11.1 8.22q-.5.37-1 0l-11.22-8.31M171.63 274.77q10.76 7.81 23.39 11.98a.38.37 87.1 0 0 .46-.51q-1.95-4.26-1.42-8.97.07-.62-.53-.78-9.16-2.58-16.86-8.15-.42-.3-.75.09l-4.43 5.27a.74.74 0 0 0 .14 1.07M209.24 277.06c.07 3.73-.26 5.7-1.57 9.3q-.2.54.35.36 12.55-4.14 23.28-11.86a.73.73 0 0 0 .14-1.07l-4.53-5.36q-.37-.45-.84-.09-7.4 5.56-16.33 8.05-.51.14-.5.67" vector-effect="non-scaling-stroke"/><path stroke="#674d02" d="M206.8 275.37q-5.82-3.81-10.93.52-.45.39-.48.99-.46 8.45 5.44 14.3.66.66 1.34.01 5.96-5.77 5.61-14.09-.05-1.12-.98-1.73M214.06 18.72c-.77-5.84-5.62-11.54-11.94-7.75q-.42.26-.86.04c-6.55-3.3-11.64 1.15-12.28 7.63a.13.12-78.3 0 0 .08.13q9.2 3.18 10.88 9.88a1.57 1.57 0 0 0 3.01.1q2.27-6.94 8.76-9.09c.6-.2 1.39-.03 1.93-.24q.48-.18.42-.7" vector-effect="non-scaling-stroke"/><path stroke="#674d02" d="M201.14 15.15c-2.25-5.57-7.96-2.85-9.45 1.61q-.16.49.33.64 6.48 1.97 9.2 8.13a.31.31 0 0 0 .56.01q2.94-6.22 9.5-8.28.2-.07.14-.27-1.87-5.95-7.81-4.58a1.11 1.1-83.1 0 0-.71.56l-1.14 2.21q-.34.67-.62-.03M255.2 122.79c-3.01-16.25-13.83-36.84-31.91-39.4q-2.56-.36-5.98.53c-11.88 3.1-19.56 2.67-31.86-.07-3.42-.76-8.17-.79-10.91.45-24.78 11.23-30.19 42.71-28.73 66.79 2.38 39.35 20.08 83.87 55.04 105.7a1.39 1.38 44.5 0 0 1.49-.01c41.27-26.92 61.6-86.96 52.86-133.99" vector-effect="non-scaling-stroke"/><path stroke="#4d0101" d="M202.51 254.28c25.67-16.15 43.66-49.87 49.41-79.1 5.27-26.78 6.92-56.99-11.57-79.5-5.58-6.8-14.43-12.17-23.31-9.81q-7.23 1.93-14.68 2.2c-5.46.2-11.53-1.44-17.21-2.37-21.83-3.57-33.77 25.05-36.63 41.55q-2.16 12.52-.44 29.77c3.51 35.25 17.92 67.76 44.48 91.43q3.9 3.48 8.2 5.88a1.73 1.73 0 0 0 1.75-.05" vector-effect="non-scaling-stroke"/><path stroke="#cc8080" d="m201.12 153.78 15.04 77.51a1.6 1.6 0 0 0 3.13.04q11.74-52.89 23.43-106.08c.83-3.81.97-5.98 5.01-6.53a.75.74 85.3 0 0 .64-.76l-.06-4.25a.47.47 0 0 0-.47-.46h-16.93a.66.66 0 0 0-.66.66v3.83q0 .59.57.72c4.3 1 5.76 1.23 4.56 6.38q-7.51 32.4-14.61 63.43-.56 2.44-1.07-.01l-17.43-83.5a1.2 1.19 13.1 0 0-.44-.7q-1.07-.79-1.87-.18-.35.28-.42.72l-13 84.16a.22.22 0 0 1-.43.02q-7.45-31.5-14.73-63.21c-.79-3.42-.98-6.9 3.45-7.08q.67-.03.67-.7v-3.9q0-.61-.61-.61l-19.13-.04q-.51-.01-.51.5v4.31a.75.74 4.6 0 0 .63.73q2.87.43 3.3 2.28 12.65 53.92 25 107.91.42 1.82 1.05 2.89a1.7 1.7 0 0 0 3.15-.61l11.85-77.46q.39-2.58.89-.01" vector-effect="non-scaling-stroke"/></g><path fill="#fff" d="M0 0h400v303H0V0Zm227.63 26.2c-.88-5.39-4.22-9.6-10.22-9.13q-.49.04-.67-.42c-2.36-6.07-5.47-10.74-12.58-11.51q-13.54-1.47-17.67 11.1-.35 1.06-1.56.84c-5.66-1-9.65 4.06-10.39 9.1q-.08.57-.64.49c-40.08-5.4-56.48 39.69-60.57 70.34-3.04 22.67-2.59 45.05.19 67.69 6.02 49.16 30.31 109.41 83.03 124.98a1.85 1.82 78.2 0 1 .9.6q1.7 2.08 4.08 3.32a.68.67-53.4 0 0 .78-.12l3.74-3.6a1.16 1.07-73.9 0 1 .46-.28c44.68-13.42 69.89-59.93 78.81-102.29q9.16-43.42 4.95-84.74c-3.28-32.2-19.26-81.97-62.02-75.91q-.53.07-.62-.46Z"/><path fill="#020101" d="M228.25 26.66c42.76-6.06 58.74 43.71 62.02 75.91q4.21 41.32-4.95 84.74c-8.92 42.36-34.13 88.87-78.81 102.29a1.16 1.07-73.9 0 0-.46.28l-3.74 3.6a.68.67-53.4 0 1-.78.12q-2.38-1.24-4.08-3.32a1.85 1.82 78.2 0 0-.9-.6c-52.72-15.57-77.01-75.82-83.03-124.98-2.78-22.64-3.23-45.02-.19-67.69 4.09-30.65 20.49-75.74 60.57-70.34q.56.08.64-.49c.74-5.04 4.73-10.1 10.39-9.1q1.21.22 1.56-.84 4.13-12.57 17.67-11.1c7.11.77 10.22 5.44 12.58 11.51q.18.46.67.42c6-.47 9.34 3.74 10.22 9.13q.09.53.62.46Zm-22.68 46.2a.36.36 0 0 0 .32-.51c-4.96-10.42-7.06-49.96 10.67-51.04 4.18-.25 6.96 1.83 8.23 5.69q.09.27.38.26.15-.01.33 0 .36.01.3-.34-1.52-8.65-10.19-7.91-.49.04-.61-.45-2.91-11.96-13.83-11.67c-7.29.2-11.95 4.59-13.15 11.67a.66.65 8.5 0 1-.72.53q-8.77-1.02-10.68 7.36a.63.63 0 0 0 .42.73l.33.11q.55.18.74-.37 2.62-7.65 10.94-5.33c7.16 1.99 8.88 10.43 10.18 16.62q3.62 17.32-2.01 34.33-.12.35.25.35l8.1-.03Zm-15.15-.98c-5.97 2.3-13.39 1.94-19.36-.16-10.25-3.6-10.47-29.37 4.7-26.53a.71.71 0 0 0 .64-1.19c-11.99-12.5-28.72-1.2-35.76 10.81q-.24.41-.08.85c3.89 11.05 18.15 20.48 28.4 25.64q.86.43 1.62-.15c5.73-4.42 15.49-6.91 22.42-7.63q1.04-.11 1.52-1.03c6.11-11.63 4.93-31.5-.22-43.29q-2.51-5.74-8.29-5.73-4.59.02-5.71 4.2a.72.71-69.2 0 0 .36.81q18.06 9.33 16.69 29.17c-.29 4.19-2.51 12.53-6.93 14.23Zm42.09-.39c-6.36 3.06-15.49 2.54-21.79-.43q-.47-.22-.73-.66c-8.89-14.67-4.54-34.4 12-41.59a1.2 1.2 0 0 0 .63-1.55c-1.89-4.57-6.67-4.93-10.23-2.72-3.64 2.25-5.2 7.37-6.18 11.65-3.03 13.24-2.39 24.15 2.1 36.52a1.06 1.04 82.4 0 0 .89.69q12.79 1.2 23.74 7.87.44.27.9.04c10.57-5.33 24.5-14.7 28.56-25.84a1 .98-51.9 0 0-.1-.9c-7.54-11.75-23.39-22.89-36.14-10.59a.54.53 23.8 0 0 .36.92c4.08.11 8.51-.41 10.56 4.45 2.84 6.76 3.22 18.41-4.57 22.14Zm-93.7-18.24c6.58-10.33 21.22-21.75 34.16-14.93 10.81 5.7 15.69 24.55 4.12 32.21q-.77.51.14.61 6.78.77 13.11-1.59.51-.19.78-.66 9.82-16.78-2.11-31.2c-7.68-9.28-19.55-10.72-30.73-7.98-10.57 2.6-19.68 10.18-25.66 19.2q-.37.57.19.94l5.31 3.54a.5.49 33.2 0 0 .69-.14Zm86.84 17.04c-7.88-4.65-7.68-15.39-4.04-22.74 10.44-21.13 33.52-8.71 42.24 5.49q.36.58.94.22l5.38-3.43q.51-.33.17-.83c-10.3-14.95-29.09-25.93-47.3-18.15-13.72 5.86-19.71 22.99-12.26 36.25 2.47 4.39 10.46 4.74 14.76 3.87q.94-.19.11-.68Zm-50.67-23.07c3.59 7.36 2.9 13.36.59 20.98q-.17.58.35.29c7.57-4.03 6.47-15.17 2.5-21.37q-.24-.37-.68-.37h-2.47q-.52 0-.29.47Zm51.39 20.77q1.43 1 .8-.63-3.96-10.27.85-20.02.19-.39-.23-.5c-1.85-.49-3.17-.24-4.12 1.59-3.17 6.1-3.74 15.02 2.7 19.56Zm-56.07-1.55a2.49 2.48 81.8 0 1-2.23-1.67l-1.41-4.14a.22.21 36.5 0 0-.42.06q-.08 4.52 2.88 7.83a2.26 2.26 0 0 0 3.55-.23q4.63-6.76 2.31-15.32c-2.5-9.27-8.48-5.52-8.5 1.19a.26.26 0 0 0 .5.1l1.52-3.62a1.97 1.96-75 0 1 2.05-1.19c5.23.62 4.87 17.22-.25 16.99Zm62.25-.05c-5.37-.37-5.22-15.86-.61-16.81 2.74-.56 3.07 2.72 3.95 4.38a.45.45 0 0 0 .84-.3c-.5-2.53-1.92-6.14-4.93-6.46a1.12 1.12 0 0 0-.9.3c-4.88 4.64-4.27 13.61-1.73 19.13 3.26 7.1 7.51-1.98 7.48-5.24a.34.34 0 0 0-.65-.12l-1.5 3.88a1.95 1.94-77.4 0 1-1.95 1.24Zm-61.94-15.32q-.17-.07-.32.01-.76.41-1.15 1.49a1.51 1.05-31.5 0 0 2.59.15q.48-.93-1.12-1.65Zm-33.46 3.97-5.54-3.83a.64.63-57.1 0 0-.9.2c-9.97 16.91-14.8 37.19-16.42 56.51a.66.65-85.6 0 0 .6.71l6.92.54q.46.03.5-.43c1.32-17.96 5.74-37.47 14.95-53.16a.41.39-57.4 0 0-.11-.54Zm94.34-2.02q2.33.73 2.02-1.23a.89.89 0 0 0-1.15-.71q-1.36.43-1.1 1.68.04.2.23.26Zm39.47-1.52-5 3.4a.51.5 58.2 0 0-.15.67c9.06 16.13 13.24 34.56 14.77 52.88q.05.63.68.58l6.7-.52q.55-.04.51-.59-1.31-18.09-6.77-35.36c-1.63-5.16-5.03-15.14-9.65-20.9q-.47-.58-1.09-.16Zm-99.935 9.306a2.86 1.08 92.9 0 0 1.224-2.801 2.86 1.08 92.9 0 0-.934-2.911 2.86 1.08 92.9 0 0-1.224 2.801 2.86 1.08 92.9 0 0 .934 2.911Zm61.935-.506.02-4.8a.24.24 0 0 0-.24-.25h-.15a1.87 1.86.3 0 0-1.88 1.85v1.56a1.87 1.86.3 0 0 1.86 1.87h.15a.24.24 0 0 0 .24-.23Zm-66.02 22.13c-10.82-5.89-21.8-13.66-27.59-24.63q-.29-.56-.65-.04-2.19 3.21-3.38 6.07-9.21 22.17-10.76 45.73-.07.98.86 1.32 9.19 3.28 18.96 3.87a1.17 1.16-79.6 0 0 1.19-.83q5.8-18.81 21.43-30.68a.48.48 0 0 0-.06-.81Zm68.74.62c11.64 8.71 16.76 18.05 21.79 31.11q.19.49.71.47c4.65-.14 16.39-1.3 19.88-4.42a1.02 1 67.6 0 0 .34-.84c-1.63-18.06-5.52-35.42-13.99-51.63a.36.35 44.8 0 0-.63 0c-5.75 10.93-17.35 19.24-28.05 24.77a.32.32 0 0 0-.05.54Zm-63.969-19.782a1.22 1.15-12.4 0 0-1.438-.861 1.22 1.15-12.4 0 0-.945 1.385 1.22 1.15-12.4 0 0 1.439.861 1.22 1.15-12.4 0 0 .945-1.385Zm61.879.352a.7.7 0 0 0-.56-1.12h-1q-.68 0-.78.68-.16 1.11 1.1 1.47a.6.59 25.5 0 0 .64-.22l.6-.81Zm-12.88 14.41q-19.14-5.65-38.29 0-1.19.35.03.57c5.53 1 11.53 2.82 16.67 3.03q8.82.36 17.34-2.42c1.19-.38 2.95-.2 4.25-.54a.34.33 45.5 0 0 0-.64Zm38.59 69.23c1.24-22.7-6.98-56.29-31.53-65.06q-5.31-1.9-9.71-.88c-7.46 1.72-13.64 3.41-20.85 2.52-5.26-.65-11.39-3.02-16.11-2.65q-7.51.59-14.63 5.82c-17.72 13.03-22.99 36.46-22.72 57.16.59 44.26 19.99 89.72 57.27 115.17q.43.29.87.01 5.64-3.62 10.59-8.11c30.06-27.19 44.65-63.96 46.82-103.98Zm-137.69-36.4-6.89-.52q-.55-.04-.59.5c-1.52 19.95-.16 40.32 2.77 60.56q.17 1.14 1.25.77l5.44-1.84q.43-.15.41-.61-.25-4.27-.78-8.5-3.13-24.95-1.25-49.94a.39.39 0 0 0-.36-.42Zm159.36.51c.96 21.41.7 38.17-2.1 57.77a1.28 1.27-77 0 0 .86 1.39l5.28 1.7q.75.25.87-.53c3.11-19.98 4.5-40.54 2.91-60.75q-.04-.54-.59-.52l-6.7.36q-.56.03-.53.58Zm-18.82 23.07c4.84-6.44 16.12-5.58 17.07 3.5q.01.06.07.07.03 0 .05-.01.33-.06.33-.07l-.69-25.06q-.01-.57-.55-.37-9.48 3.68-19.71 3.91-.56.01-.41.55 2.48 8.85 2.95 18.02a.36.36 0 0 0 .71.05q.02-.12.06-.32.03-.15.12-.27Zm-138.1-21.43c-.66 11.39-1.66 25 .09 36.16q.01.08.1.08h.28q.18 0 .17-.18-.37-5.67-.37-11.38c-.01-9.08 12.23-9.25 16.63-3.01q.48.69.55-.15.75-8.86 2.98-17.48.14-.56-.43-.58-10.02-.4-19.38-3.87-.59-.21-.62.41Zm13.27 20.67q-6.63-3.7-11.17 2.06a.84.78-28.6 0 0-.18.53l.1 8.49q.01.78.58.23 5.33-5.17 12.06-1.68.55.29.55-.33c.03-2.68.87-7.72-1.94-9.3Zm128.66-.2c-3.08 2.16-2.56 6.16-2.13 9.48q.06.48.49.25 4.62-2.48 9.47-.37c1.03.45 1.63 1.43 2.64 2.02q.61.36.57-.35c-.12-2.55.52-5.92-.13-8-1.38-4.39-7.48-5.43-10.91-3.03Zm7.77 14.52.51-2.76a.21.21 0 0 0-.17-.24l-5.58-1.01a2.2 1.57 10.3 0 0-2.45 1.15l-.01.08a2.2 1.57 10.3 0 0 1.88 1.94l5.58 1.01a.21.21 0 0 0 .24-.17Zm-137.77-1.06q.05.14.09.28a.18.18 0 0 0 .3.06q1.15-1.24.22-2.73-.29-.46-.83-.41l-5.31.51a.71.69-80 0 0-.56.4l-1.33 2.78a.49.49 0 0 0 .69.63q2.99-1.81 6.52-1.68.16 0 .21.16Zm127.4 4.39-.18 3.57q-.03.67.57.39 6.41-2.96 10.76 2.13.72.85 1.11-.19c2.63-6.95-6.39-9.92-11.5-7.11a1.46 1.45 77.2 0 0-.76 1.21Zm-124.49-1.29c-5.8-2.75-13.32.02-11.6 7.62a.46.46 0 0 0 .81.19q4.41-5.41 10.96-2.58a.53.53 0 0 0 .74-.53l-.34-3.9q-.05-.56-.57-.8Zm125.33 8.45a1.06 1.05 10.8 0 0 1.04 1.52q3.46-.29 6.69 1.1a.9.89-.9 0 0 1.17-1.2c-1.56-3.33-6.77-5.69-8.9-1.42Zm-125.92-.96c-3.42-1.56-8.96-1.35-8.11 3.72q.11.62.64.28 3.07-1.98 6.9-1.75a1.18 1.18 0 0 0 .57-2.25Zm123.96 5.77-.78 4.16q-.11.55.45.5c5.15-.48 9.16-.98 11.18 4.77a.27.27 0 0 0 .53-.05l.82-5.45q.07-.49-.18-.9-3.85-6.26-11-4.17a1.47 1.46-3.3 0 0-1.02 1.14Zm-122.25-.91q-7.15-2.35-11.12 3.8-.3.47-.23 1.02l.61 4.77a.36.36 0 0 0 .68.12c2.54-5.07 6.2-4.59 11.09-4.12q.6.06.49-.53l-.78-4.21a1.11 1.09-86.5 0 0-.74-.85Zm.14 8.78q-2.53-1.63-4.53-1.17c-1.74.41-3.36 1.34-3.37 3.38a1.21 1.21 0 0 0 1.98.94q2.32-1.91 5.36-1.58a.86.85-25.4 0 0 .56-1.57Zm122.27.57a.41.4 18.2 0 0 .33.64q3.96-.01 7.02 2.35a.46.46 0 0 0 .73-.31c.56-4.77-5.1-6.78-8.08-2.68Zm-126.61 34.3 8.98 19.87a.92.91-19.8 0 0 1.08.5q8.37-2.32 13.64-9.21.22-.29.07-.62l-7.32-16.23a.11.11 0 0 0-.21.01c-1.73 6.73-10.12 10.67-15.71 5.63q-5.61-16.42-8.7-33.61-.09-.55-.36-.05-.23.42-.15.87 2.74 16.48 8.68 32.84Zm.85 24.31 5.3-3.13q.54-.32.26-.88-12.37-25.06-17.3-52.6-.1-.55-.63-.38l-5.95 1.89q-.6.19-.5.81 4.69 28.08 17.02 53.74a1.29 1.28 61.8 0 0 1.8.55Zm141.54-56.46q-.4.59-.53 1.29-4.99 26.83-17.15 51.24-.25.5.23.77l5.92 3.41a.92.92 0 0 0 1.29-.4q12.41-25.81 17.23-54.08a.81.81 0 0 0-.56-.91l-5.38-1.68q-.66-.21-1.05.36Zm-135.65 1.35c-4.51-1.24-8.18-.46-10.63 3.55-1.32 2.16-.66 4.2.24 6.37q.27.66.67.07 3.91-5.88 10.8-4.09.54.14.43-.4l-.93-4.88q-.1-.49-.58-.62Zm117.52.45-1.32 4.85a.38.38 0 0 0 .45.47q6.8-1.48 10.88 4.04.46.61.76-.09c3.18-7.21-3.49-11.67-10.06-9.98a1 1 0 0 0-.71.71Zm-.38 9.57 7.6 2.92a.2.2 0 0 0 .26-.12l.06-.16a4.11 3.59 21 0 0-2.55-4.82l-.3-.12a4.11 3.59 21 0 0-5.12 1.88l-.06.16a.2.2 0 0 0 .11.26Zm-122.8 1.12.19.73a.43.43 0 0 0 .7.22q2.25-1.89 5.24-2.1a.59.59 0 0 0 .28-1.08c-3.57-2.33-8.05-.94-8.08 3.74q0 .5.37.16.69-.63.67-1.58a.32.32 0 0 1 .63-.09Zm8.33 1.29q-7.32-1-10.59 5.49-.26.51-.08 1.06l1.49 4.76a.44.44 0 0 0 .74.17q4.46-4.59 10.87-4.12.8.06.54-.69l-2.01-5.88q-.24-.69-.96-.79Zm111.51.79-2.14 6.38a.41.41 0 0 0 .45.53q6.68-1.09 10.99 3.85.42.49.72-.08c1.48-2.82 2.54-5.33.63-7.81q-3.8-4.97-9.8-3.64-.64.14-.85.77Zm10.7 15.44a4.25.47 108.1 0 0 1.767-3.894 4.25.47 108.1 0 0 .873-4.186 4.25.47 108.1 0 0-1.767 3.894 4.25.47 108.1 0 0-.873 4.186Zm-2.37-3.6c-3-4.54-15.49-5.26-12.11 1.44a.34.34 0 0 0 .65-.19c-.63-6.2 5.72-4 9.06-2.7q.46.17.76.57c1.88 2.52 2.61 5.47-1.24 6.56q-.31.08-.36.37-.09.55.44.41c2.98-.77 4.64-3.67 2.8-6.46Zm-2.81 2.14a1.25 1.24 90 0 1-1.33 1.34q-2.42-.18-4.36-1.54a1.08 1.06-64.2 0 1-.4-1.18q.43-1.44 1.67-1.27.45.07.59-.37.11-.34.01-.44a1.95 1.95 0 0 0-3.33.78c-1.05 3.78 4.92 5.28 7.44 4.91a1.71 1.7 75.4 0 0 1.34-2.29q-1-2.64-3.6-3.07a.35.34-34.4 0 0-.13.68q1.94.39 2.1 2.45Zm-120.81 1.37c-1.58-2.13.42-4.13 2.6-4.11q.21.01.21-.2 0-.13.01-.27a.33.32-12.1 0 0-.47-.3l-3.5 1.78a1.95 1.95 0 0 0-.49 3.13c2.26 2.21 5.44-.24 7.7-1.35a1.82 1.81-50.6 0 0-.33-3.38l-1.15-.31a.35.35 0 0 0-.26.64q1.44.82.85 2.64a.91.91 0 0 1-.55.59l-3.58 1.43a.88.88 0 0 1-1.04-.29Zm124.71 2.23c-4.94 4.25-13.34.95-15.11-5.18a.35.35 0 0 0-.66-.05l-7.03 15.35q-.23.51.09.98c3.26 4.79 8.64 8.14 13.88 9.37q.6.13.87-.41 4.86-9.58 8.55-19.65.49-1.34-.59-.41Zm-122.39-.02q-5.2 1.18-6.26-3.91-.1-.48-.44-.13-.27.29-.12.83 1.49 5.36 6.94 3.66a.23.23 0 0 0-.12-.45Zm117.02.27q-1.5-.95-3.21-.86-.53.03-.11.36 1.42 1.13 3.12 1.15 1.23.02.2-.65Zm-4.25 21.87q-8.49-2.2-13.98-9.05-.63-.78-1.12.09-10.37 18.5-26.07 32.72a.84.83 61.4 0 0-.24.83q2.27 8.51 10.22 12.24a1.25 1.21-45.8 0 0 1.1-.03q2.28-1.2 5.05-3.73 15.5-14.15 25.23-32.65a.29.29 0 0 0-.19-.42Zm-110.06.74c6.81 12.89 17.55 27.63 29.58 36.04a1.07 1.05-38.3 0 0 1.01.11q8.24-3.44 10.74-12.02a1 .98-61.4 0 0-.29-1.01q-15.63-14.31-26.1-32.73-.36-.64-.84-.08-5.58 6.54-13.81 9-.56.17-.29.69Zm-9.74 4.28c7.69 14.99 18.96 29.7 32.34 39.84a.56.56 0 0 0 .77-.1l4.4-5.47q.33-.42-.08-.76-18.99-15.66-30.28-37.58-.25-.48-.72-.21l-6.23 3.57a.53.53 0 0 0-.2.71Zm96.49 39.79a.38.38 0 0 0 .52.06c13.7-10.44 24.43-24.55 32.48-39.67a.78.78 0 0 0-.3-1.05l-6.15-3.57a.58.58 0 0 0-.81.24q-11.2 22.04-30.3 37.7-.42.34-.08.75l4.64 5.54Zm-43.46-19.02a.29.29 0 0 0-.46.15q-2.51 8.45-10.38 12.33-.62.31-.05.71 6.94 4.82 15.04 7.13.81.23 1.53-.21 6.29-3.88 12.59.19a1.08 1.06-36.3 0 0 .91.13q8.05-2.41 14.98-7.17.56-.39-.04-.71-7.63-4.01-10.23-12.28-.16-.49-.57-.18l-11.1 8.22q-.5.37-1 0l-11.22-8.31Zm-18.13 20.82q10.76 7.81 23.39 11.98a.38.37 87.1 0 0 .46-.51q-1.95-4.26-1.42-8.97.07-.62-.53-.78-9.16-2.58-16.86-8.15-.42-.3-.75.09l-4.43 5.27a.74.74 0 0 0 .14 1.07Zm37.61 2.29c.07 3.73-.26 5.7-1.57 9.3q-.2.54.35.36 12.55-4.14 23.28-11.86a.73.73 0 0 0 .14-1.07l-4.53-5.36q-.37-.45-.84-.09-7.4 5.56-16.33 8.05-.51.14-.5.67Zm-2.44-1.69q-5.82-3.81-10.93.52-.45.39-.48.99-.46 8.45 5.44 14.3.66.66 1.34.01 5.96-5.77 5.61-14.09-.05-1.12-.98-1.73Z"/><path fill="#cc9903" d="m205.57 72.86-8.1.03q-.37 0-.25-.35 5.63-17.01 2.01-34.33c-1.3-6.19-3.02-14.63-10.18-16.62q-8.32-2.32-10.94 5.33-.19.55-.74.37l-.33-.11a.63.63 0 0 1-.42-.73q1.91-8.38 10.68-7.36a.66.65 8.5 0 0 .72-.53c1.2-7.08 5.86-11.47 13.15-11.67Q212.09 6.6 215 18.56q.12.49.61.45 8.67-.74 10.19 7.91.06.35-.3.34-.18-.01-.33 0-.29.01-.38-.26c-1.27-3.86-4.05-5.94-8.23-5.69-17.73 1.08-15.63 40.62-10.67 51.04a.36.36 0 0 1-.32.51Zm8.49-54.14c-.77-5.84-5.62-11.54-11.94-7.75q-.42.26-.86.04c-6.55-3.3-11.64 1.15-12.28 7.63a.13.12-78.3 0 0 .08.13q9.2 3.18 10.88 9.88a1.57 1.57 0 0 0 3.01.1q2.27-6.94 8.76-9.09c.6-.2 1.39-.03 1.93-.24q.48-.18.42-.7Z"/><path fill="#020101" d="M202.12 10.97c6.32-3.79 11.17 1.91 11.94 7.75q.06.52-.42.7c-.54.21-1.33.04-1.93.24q-6.49 2.15-8.76 9.09a1.57 1.57 0 0 1-3.01-.1q-1.68-6.7-10.88-9.88a.13.12-78.3 0 1-.08-.13c.64-6.48 5.73-10.93 12.28-7.63q.44.22.86-.04Zm-.98 4.18c-2.25-5.57-7.96-2.85-9.45 1.61q-.16.49.33.64 6.48 1.97 9.2 8.13a.31.31 0 0 0 .56.01q2.94-6.22 9.5-8.28.2-.07.14-.27-1.87-5.95-7.81-4.58a1.11 1.1-83.1 0 0-.71.56l-1.14 2.21q-.34.67-.62-.03Z"/><path fill="#cc9903" d="m201.76 15.18 1.14-2.21a1.11 1.1-83.1 0 1 .71-.56q5.94-1.37 7.81 4.58.06.2-.14.27-6.56 2.06-9.5 8.28a.31.31 0 0 1-.56-.01q-2.72-6.16-9.2-8.13-.49-.15-.33-.64c1.49-4.46 7.2-7.18 9.45-1.61q.28.7.62.03ZM171.06 71.72c5.97 2.1 13.39 2.46 19.36.16 4.42-1.7 6.64-10.04 6.93-14.23q1.37-19.84-16.69-29.17a.72.71-69.2 0 1-.36-.81q1.12-4.18 5.71-4.2 5.78-.01 8.29 5.73c5.15 11.79 6.33 31.66.22 43.29q-.48.92-1.52 1.03c-6.93.72-16.69 3.21-22.42 7.63q-.76.58-1.62.15c-10.25-5.16-24.51-14.59-28.4-25.64q-.16-.44.08-.85C147.68 42.8 164.41 31.5 176.4 44a.71.71 0 0 1-.64 1.19c-15.17-2.84-14.95 22.93-4.7 26.53ZM210.72 71.06c6.3 2.97 15.43 3.49 21.79.43 7.79-3.73 7.41-15.38 4.57-22.14-2.05-4.86-6.48-4.34-10.56-4.45a.54.53 23.8 0 1-.36-.92c12.75-12.3 28.6-1.16 36.14 10.59a1 .98-51.9 0 1 .1.9c-4.06 11.14-17.99 20.51-28.56 25.84q-.46.23-.9-.04-10.95-6.67-23.74-7.87a1.06 1.04 82.4 0 1-.89-.69c-4.49-12.37-5.13-23.28-2.1-36.52.98-4.28 2.54-9.4 6.18-11.65 3.56-2.21 8.34-1.85 10.23 2.72a1.2 1.2 0 0 1-.63 1.55c-16.54 7.19-20.89 26.92-12 41.59q.26.44.73.66Z"/><path fill="#cc9903" d="M172.97 38.32c-12.94-6.82-27.58 4.6-34.16 14.93a.5.49 33.2 0 1-.69.14l-5.31-3.54q-.56-.37-.19-.94c5.98-9.02 15.09-16.6 25.66-19.2 11.18-2.74 23.05-1.3 30.73 7.98q11.93 14.42 2.11 31.2-.27.47-.78.66-6.33 2.36-13.11 1.59-.91-.1-.14-.61c11.57-7.66 6.69-26.51-4.12-32.21ZM225.54 70.97c-4.3.87-12.29.52-14.76-3.87-7.45-13.26-1.46-30.39 12.26-36.25 18.21-7.78 37 3.2 47.3 18.15q.34.5-.17.83l-5.38 3.43q-.58.36-.94-.22c-8.72-14.2-31.8-26.62-42.24-5.49-3.64 7.35-3.84 18.09 4.04 22.74q.83.49-.11.68Z"/><path fill="#cc9903" d="M175.57 68.2c2.31-7.62 3-13.62-.59-20.98q-.23-.47.29-.47h2.47q.44 0 .68.37c3.97 6.2 5.07 17.34-2.5 21.37q-.52.29-.35-.29ZM226.37 67.99c-6.44-4.54-5.87-13.46-2.7-19.56.95-1.83 2.27-2.08 4.12-1.59q.42.11.23.5-4.81 9.75-.85 20.02.63 1.63-.8.63Z"/><path fill="#cc9903" d="M170.3 66.44c5.12.23 5.48-16.37.25-16.99a1.97 1.96-75 0 0-2.05 1.19l-1.52 3.62a.26.26 0 0 1-.5-.1c.02-6.71 6-10.46 8.5-1.19q2.32 8.56-2.31 15.32a2.26 2.26 0 0 1-3.55.23q-2.96-3.31-2.88-7.83a.22.21 36.5 0 1 .42-.06l1.41 4.14a2.49 2.48 81.8 0 0 2.23 1.67ZM232.55 66.39a1.95 1.94-77.4 0 0 1.95-1.24l1.5-3.88a.34.34 0 0 1 .65.12c.03 3.26-4.22 12.34-7.48 5.24-2.54-5.52-3.15-14.49 1.73-19.13a1.12 1.12 0 0 1 .9-.3c3.01.32 4.43 3.93 4.93 6.46a.45.45 0 0 1-.84.3c-.88-1.66-1.21-4.94-3.95-4.38-4.61.95-4.76 16.44.61 16.81Z"/><path fill="#cc9903" d="M170.61 51.07q1.6.72 1.12 1.65a1.51 1.05-31.5 0 1-2.59-.15q.39-1.08 1.15-1.49.15-.08.32-.01ZM137.15 55.04a.41.39-57.4 0 1 .11.54c-9.21 15.69-13.63 35.2-14.95 53.16q-.04.46-.5.43l-6.92-.54a.66.65-85.6 0 1-.6-.71c1.62-19.32 6.45-39.6 16.42-56.51a.64.63-57.1 0 1 .9-.2l5.54 3.83ZM231.49 53.02q-.19-.06-.23-.26-.26-1.25 1.1-1.68a.89.89 0 0 1 1.15.71q.31 1.96-2.02 1.23ZM272.05 51.66c4.62 5.76 8.02 15.74 9.65 20.9q5.46 17.27 6.77 35.36.04.55-.51.59l-6.7.52q-.63.05-.68-.58c-1.53-18.32-5.71-36.75-14.77-52.88a.51.5 58.2 0 1 .15-.67l5-3.4q.62-.42 1.09.16Z"/><ellipse fill="#cc9903" rx="2.86" ry="1.08" transform="rotate(92.9 58.04 110.334)"/><path fill="#cc9903" d="M232.96 60.3a.24.24 0 0 1-.24.23h-.15a1.87 1.86.3 0 1-1.86-1.87V57.1a1.87 1.86.3 0 1 1.88-1.85h.15a.24.24 0 0 1 .24.25l-.02 4.8ZM166.94 82.43a.48.48 0 0 1 .06.81q-15.63 11.87-21.43 30.68a1.17 1.16-79.6 0 1-1.19.83q-9.77-.59-18.96-3.87-.93-.34-.86-1.32 1.55-23.56 10.76-45.73 1.19-2.86 3.38-6.07.36-.52.65.04c5.79 10.97 16.77 18.74 27.59 24.63ZM235.68 83.05a.32.32 0 0 1 .05-.54c10.7-5.53 22.3-13.84 28.05-24.77a.36.35 44.8 0 1 .63 0c8.47 16.21 12.36 33.57 13.99 51.63a1.02 1 67.6 0 1-.34.84c-3.49 3.12-15.23 4.28-19.88 4.42q-.52.02-.71-.47c-5.03-13.06-10.15-22.4-21.79-31.11Z"/><ellipse fill="#cc9903" rx="1.22" ry="1.15" transform="rotate(-12.4 377.662 -753.067)"/><path fill="#cc9903" d="m233.59 63.62-.6.81a.6.59 25.5 0 1-.64.22q-1.26-.36-1.1-1.47.1-.68.78-.68h1a.7.7 0 0 1 .56 1.12ZM220.71 78.03a.34.33 45.5 0 1 0 .64c-1.3.34-3.06.16-4.25.54q-8.52 2.78-17.34 2.42c-5.14-.21-11.14-2.03-16.67-3.03q-1.22-.22-.03-.57 19.15-5.65 38.29 0Z"/><path fill="#cc9903" d="M227.77 82.2c24.55 8.77 32.77 42.36 31.53 65.06-2.17 40.02-16.76 76.79-46.82 103.98q-4.95 4.49-10.59 8.11-.44.28-.87-.01c-37.28-25.45-56.68-70.91-57.27-115.17-.27-20.7 5-44.13 22.72-57.16q7.12-5.23 14.63-5.82c4.72-.37 10.85 2 16.11 2.65 7.21.89 13.39-.8 20.85-2.52q4.4-1.02 9.71.88Zm27.43 40.59c-3.01-16.25-13.83-36.84-31.91-39.4q-2.56-.36-5.98.53c-11.88 3.1-19.56 2.67-31.86-.07-3.42-.76-8.17-.79-10.91.45-24.78 11.23-30.19 42.71-28.73 66.79 2.38 39.35 20.08 83.87 55.04 105.7a1.39 1.38 44.5 0 0 1.49-.01c41.27-26.92 61.6-86.96 52.86-133.99Z"/><path fill="#020101" d="M223.29 83.39c18.08 2.56 28.9 23.15 31.91 39.4 8.74 47.03-11.59 107.07-52.86 133.99a1.39 1.38 44.5 0 1-1.49.01c-34.96-21.83-52.66-66.35-55.04-105.7-1.46-24.08 3.95-55.56 28.73-66.79 2.74-1.24 7.49-1.21 10.91-.45 12.3 2.74 19.98 3.17 31.86.07q3.42-.89 5.98-.53Zm-20.78 170.89c25.67-16.15 43.66-49.87 49.41-79.1 5.27-26.78 6.92-56.99-11.57-79.5-5.58-6.8-14.43-12.17-23.31-9.81q-7.23 1.93-14.68 2.2c-5.46.2-11.53-1.44-17.21-2.37-21.83-3.57-33.77 25.05-36.63 41.55q-2.16 12.52-.44 29.77c3.51 35.25 17.92 67.76 44.48 91.43q3.9 3.48 8.2 5.88a1.73 1.73 0 0 0 1.75-.05Z"/><path fill="#980000" d="M251.92 175.18c-5.75 29.23-23.74 62.95-49.41 79.1a1.73 1.73 0 0 1-1.75.05q-4.3-2.4-8.2-5.88c-26.56-23.67-40.97-56.18-44.48-91.43q-1.72-17.25.44-29.77c2.86-16.5 14.8-45.12 36.63-41.55 5.68.93 11.75 2.57 17.21 2.37q7.45-.27 14.68-2.2c8.88-2.36 17.73 3.01 23.31 9.81 18.49 22.51 16.84 52.72 11.57 79.5Zm-50.8-21.4 15.04 77.51a1.6 1.6 0 0 0 3.13.04q11.74-52.89 23.43-106.08c.83-3.81.97-5.98 5.01-6.53a.75.74 85.3 0 0 .64-.76l-.06-4.25a.47.47 0 0 0-.47-.46h-16.93a.66.66 0 0 0-.66.66v3.83q0 .59.57.72c4.3 1 5.76 1.23 4.56 6.38q-7.51 32.4-14.61 63.43-.56 2.44-1.07-.01l-17.43-83.5a1.2 1.19 13.1 0 0-.44-.7q-1.07-.79-1.87-.18-.35.28-.42.72l-13 84.16a.22.22 0 0 1-.43.02q-7.45-31.5-14.73-63.21c-.79-3.42-.98-6.9 3.45-7.08q.67-.03.67-.7v-3.9q0-.61-.61-.61l-19.13-.04q-.51-.01-.51.5v4.31a.75.74 4.6 0 0 .63.73q2.87.43 3.3 2.28 12.65 53.92 25 107.91.42 1.82 1.05 2.89a1.7 1.7 0 0 0 3.15-.61l11.85-77.46q.39-2.58.89-.01Z"/><path fill="#fff" d="M201.12 153.78q-.5-2.57-.89.01l-11.85 77.46a1.7 1.7 0 0 1-3.15.61q-.63-1.07-1.05-2.89-12.35-53.99-25-107.91-.43-1.85-3.3-2.28a.75.74 4.6 0 1-.63-.73v-4.31q0-.51.51-.5l19.13.04q.61 0 .61.61v3.9q0 .67-.67.7c-4.43.18-4.24 3.66-3.45 7.08q7.28 31.71 14.73 63.21a.22.22 0 0 0 .43-.02l13-84.16q.07-.44.42-.72.8-.61 1.87.18a1.2 1.19 13.1 0 1 .44.7l17.43 83.5q.51 2.45 1.07.01 7.1-31.03 14.61-63.43c1.2-5.15-.26-5.38-4.56-6.38q-.57-.13-.57-.72v-3.83a.66.66 0 0 1 .66-.66h16.93a.47.47 0 0 1 .47.46l.06 4.25a.75.74 85.3 0 1-.64.76c-4.04.55-4.18 2.72-5.01 6.53q-11.69 53.19-23.43 106.08a1.6 1.6 0 0 1-3.13-.04l-15.04-77.51Z"/><path fill="#cc9903" d="M121.61 110.86a.39.39 0 0 1 .36.42q-1.88 24.99 1.25 49.94.53 4.23.78 8.5.02.46-.41.61l-5.44 1.84q-1.08.37-1.25-.77c-2.93-20.24-4.29-40.61-2.77-60.56q.04-.54.59-.5l6.89.52ZM278.87 169.14c2.8-19.6 3.06-36.36 2.1-57.77q-.03-.55.53-.58l6.7-.36q.55-.02.59.52c1.59 20.21.2 40.77-2.91 60.75q-.12.78-.87.53l-5.28-1.7a1.28 1.27-77 0 1-.86-1.39ZM262.03 134.71q-.04.2-.06.32a.36.36 0 0 1-.71-.05q-.47-9.17-2.95-18.02-.15-.54.41-.55 10.23-.23 19.71-3.91.54-.2.55.37l.69 25.06q0 .01-.33.07-.02.01-.05.01-.06-.01-.07-.07c-.95-9.08-12.23-9.94-17.07-3.5q-.09.12-.12.27ZM124.14 149.17c-1.75-11.16-.75-24.77-.09-36.16q.03-.62.62-.41 9.36 3.47 19.38 3.87.57.02.43.58-2.23 8.62-2.98 17.48-.07.84-.55.15c-4.4-6.24-16.64-6.07-16.63 3.01q0 5.71.37 11.38.01.18-.17.18h-.28q-.09 0-.1-.08Z"/><path fill="#cc9903" d="M137.32 133.68c2.81 1.58 1.97 6.62 1.94 9.3q0 .62-.55.33-6.73-3.49-12.06 1.68-.57.55-.58-.23l-.1-8.49a.84.78-28.6 0 1 .18-.53q4.54-5.76 11.17-2.06ZM265.98 133.48c3.43-2.4 9.53-1.36 10.91 3.03.65 2.08.01 5.45.13 8q.04.71-.57.35c-1.01-.59-1.61-1.57-2.64-2.02q-4.85-2.11-9.47.37-.43.23-.49-.25c-.43-3.32-.95-7.32 2.13-9.48Z"/><path fill="#5d4311" d="M273.75 148a.21.21 0 0 1-.24.17l-5.58-1.01a2.2 1.57 10.3 0 1-1.88-1.94l.01-.08a2.2 1.57 10.3 0 1 2.45-1.15l5.58 1.01a.21.21 0 0 1 .17.24l-.51 2.76ZM135.77 146.78q-3.53-.13-6.52 1.68a.49.49 0 0 1-.69-.63l1.33-2.78a.71.69-80 0 1 .56-.4l5.31-.51q.54-.05.83.41.93 1.49-.22 2.73a.18.18 0 0 1-.3-.06q-.04-.14-.09-.28-.05-.16-.21-.16Z"/><path fill="#cc9903" d="M263.38 151.33a1.46 1.45 77.2 0 1 .76-1.21c5.11-2.81 14.13.16 11.5 7.11q-.39 1.04-1.11.19-4.35-5.09-10.76-2.13-.6.28-.57-.39l.18-3.57ZM139.46 150.84l.34 3.9a.53.53 0 0 1-.74.53q-6.55-2.83-10.96 2.58a.46.46 0 0 1-.81-.19c-1.72-7.6 5.8-10.37 11.6-7.62q.52.24.57.8Z"/><path fill="#5d4311" d="M264.22 158.49c2.13-4.27 7.34-1.91 8.9 1.42a.9.89-.9 0 1-1.17 1.2q-3.23-1.39-6.69-1.1a1.06 1.05 10.8 0 1-1.04-1.52ZM138.3 157.53a1.18 1.18 0 0 1-.57 2.25q-3.83-.23-6.9 1.75-.53.34-.64-.28c-.85-5.07 4.69-5.28 8.11-3.72Z"/><path fill="#cc9903" d="M262.26 163.3a1.47 1.46-3.3 0 1 1.02-1.14q7.15-2.09 11 4.17.25.41.18.9l-.82 5.45a.27.27 0 0 1-.53.05c-2.02-5.75-6.03-5.25-11.18-4.77q-.56.05-.45-.5l.78-4.16ZM140.75 163.24l.78 4.21q.11.59-.49.53c-4.89-.47-8.55-.95-11.09 4.12a.36.36 0 0 1-.68-.12l-.61-4.77q-.07-.55.23-1.02 3.97-6.15 11.12-3.8a1.11 1.09-86.5 0 1 .74.85Z"/><path fill="#5d4311" d="M140.15 171.17a.86.85-25.4 0 1-.56 1.57q-3.04-.33-5.36 1.58a1.21 1.21 0 0 1-1.98-.94c.01-2.04 1.63-2.97 3.37-3.38q2-.46 4.53 1.17ZM262.42 171.74c2.98-4.1 8.64-2.09 8.08 2.68a.46.46 0 0 1-.73.31q-3.06-2.36-7.02-2.35a.41.4 18.2 0 1-.33-.64ZM136.34 205.99q.39 0-.53.05-5.94-16.36-8.68-32.84-.08-.45.15-.87.27-.5.36.05 3.09 17.19 8.7 33.61Z"/><path fill="#cc9903" d="M136.66 230.35a1.29 1.28 61.8 0 1-1.8-.55q-12.33-25.66-17.02-53.74-.1-.62.5-.81l5.95-1.89q.53-.17.63.38 4.93 27.54 17.3 52.6.28.56-.26.88l-5.3 3.13ZM278.2 173.89q.39-.57 1.05-.36l5.38 1.68a.81.81 0 0 1 .56.91q-4.82 28.27-17.23 54.08a.92.92 0 0 1-1.29.4l-5.92-3.41q-.48-.27-.23-.77 12.16-24.41 17.15-51.24.13-.7.53-1.29ZM131.92 178.79c2.45-4.01 6.12-4.79 10.63-3.55q.48.13.58.62l.93 4.88q.11.54-.43.4-6.89-1.79-10.8 4.09-.4.59-.67-.07c-.9-2.17-1.56-4.21-.24-6.37ZM260.07 175.69a1 1 0 0 1 .71-.71c6.57-1.69 13.24 2.77 10.06 9.98q-.3.7-.76.09-4.08-5.52-10.88-4.04a.38.38 0 0 1-.45-.47l1.32-4.85Z"/><path fill="#5d4311" d="M259.69 185.26a.2.2 0 0 1-.11-.26l.06-.16a4.11 3.59 21 0 1 5.12-1.88l.3.12a4.11 3.59 21 0 1 2.55 4.82l-.06.16a.2.2 0 0 1-.26.12l-7.6-2.92ZM136.26 186.47q.02.95-.67 1.58-.37.34-.37-.16c.03-4.68 4.51-6.07 8.08-3.74a.59.59 0 0 1-.28 1.08q-2.99.21-5.24 2.1a.43.43 0 0 1-.7-.22l-.19-.73a.32.32 0 0 0-.63.09Z"/><path fill="#cc9903" d="M145.22 187.67q.72.1.96.79l2.01 5.88q.26.75-.54.69-6.41-.47-10.87 4.12a.44.44 0 0 1-.74-.17l-1.49-4.76q-.18-.55.08-1.06 3.27-6.49 10.59-5.49ZM256.73 188.46q.21-.63.85-.77 6-1.33 9.8 3.64c1.91 2.48.85 4.99-.63 7.81q-.3.57-.72.08-4.31-4.94-10.99-3.85a.41.41 0 0 1-.45-.53l2.14-6.38Z"/><ellipse fill="#5d4311" rx="4.25" ry=".47" transform="rotate(108.1 61.905 197.38)"/><path fill="#5d4311" d="M252.95 201.74c-3.38-6.7 9.11-5.98 12.11-1.44 1.84 2.79.18 5.69-2.8 6.46q-.53.14-.44-.41.05-.29.36-.37c3.85-1.09 3.12-4.04 1.24-6.56q-.3-.4-.76-.57c-3.34-1.3-9.69-3.5-9.06 2.7a.34.34 0 0 1-.65.19Z"/><path fill="#cc9903" d="M262.25 202.44q-.16-2.06-2.1-2.45a.35.34-34.4 0 1 .13-.68q2.6.43 3.6 3.07a1.71 1.7 75.4 0 1-1.34 2.29c-2.52.37-8.49-1.13-7.44-4.91a1.95 1.95 0 0 1 3.33-.78q.1.1-.01.44-.14.44-.59.37-1.24-.17-1.67 1.27a1.08 1.06-64.2 0 0 .4 1.18q1.94 1.36 4.36 1.54a1.25 1.24 90 0 0 1.33-1.34ZM142.48 204.1l3.58-1.43a.91.91 0 0 0 .55-.59q.59-1.82-.85-2.64a.35.35 0 0 1 .26-.64l1.15.31a1.82 1.81-50.6 0 1 .33 3.38c-2.26 1.11-5.44 3.56-7.7 1.35a1.95 1.95 0 0 1 .49-3.13l3.5-1.78a.33.32-12.1 0 1 .47.3q-.01.14-.01.27 0 .21-.21.2c-2.18-.02-4.18 1.98-2.6 4.11a.88.88 0 0 0 1.04.29Z"/><path fill="#cc9903" d="M135.81 206.04q.92-.05.53-.05c5.59 5.04 13.98 1.1 15.71-5.63a.11.11 0 0 1 .21-.01l7.32 16.23q.15.33-.07.62-5.27 6.89-13.64 9.21a.92.91-19.8 0 1-1.08-.5l-8.98-19.87ZM251.04 200.86c1.77 6.13 10.17 9.43 15.11 5.18q1.08-.93.59.41-3.69 10.07-8.55 19.65-.27.54-.87.41c-5.24-1.23-10.62-4.58-13.88-9.37q-.32-.47-.09-.98l7.03-15.35a.35.35 0 0 1 .66.05Z"/><path fill="#5d4311" d="M143.76 206.02a.23.23 0 0 1 .12.45q-5.45 1.7-6.94-3.66-.15-.54.12-.83.34-.35.44.13 1.06 5.09 6.26 3.91ZM260.58 206.94q-1.7-.02-3.12-1.15-.42-.33.11-.36 1.71-.09 3.21.86 1.03.67-.2.65Z"/><path fill="#cc9903" d="M256.53 228.16a.29.29 0 0 1 .19.42q-9.73 18.5-25.23 32.65-2.77 2.53-5.05 3.73a1.25 1.21-45.8 0 1-1.1.03q-7.95-3.73-10.22-12.24a.84.83 61.4 0 1 .24-.83q15.7-14.22 26.07-32.72.49-.87 1.12-.09 5.49 6.85 13.98 9.05ZM176.05 264.94c-12.03-8.41-22.77-23.15-29.58-36.04q-.27-.52.29-.69 8.23-2.46 13.81-9 .48-.56.84.08 10.47 18.42 26.1 32.73a1 .98-61.4 0 1 .29 1.01q-2.5 8.58-10.74 12.02a1.07 1.05-38.3 0 1-1.01-.11Z"/><path fill="#cc9903" d="M169.07 273.02c-13.38-10.14-24.65-24.85-32.34-39.84a.53.53 0 0 1 .2-.71l6.23-3.57q.47-.27.72.21 11.29 21.92 30.28 37.58.41.34.08.76l-4.4 5.47a.56.56 0 0 1-.77.1ZM233.22 272.97l-4.64-5.54q-.34-.41.08-.75 19.1-15.66 30.3-37.7a.58.58 0 0 1 .81-.24l6.15 3.57a.78.78 0 0 1 .3 1.05c-8.05 15.12-18.78 29.23-32.48 39.67a.38.38 0 0 1-.52-.06ZM189.76 253.95l11.22 8.31q.5.37 1 0l11.1-8.22q.41-.31.57.18 2.6 8.27 10.23 12.28.6.32.04.71-6.93 4.76-14.98 7.17a1.08 1.06-36.3 0 1-.91-.13q-6.3-4.07-12.59-.19-.72.44-1.53.21-8.1-2.31-15.04-7.13-.57-.4.05-.71 7.87-3.88 10.38-12.33a.29.29 0 0 1 .46-.15ZM171.63 274.77a.74.74 0 0 1-.14-1.07l4.43-5.27q.33-.39.75-.09 7.7 5.57 16.86 8.15.6.16.53.78-.53 4.71 1.42 8.97a.38.37 87.1 0 1-.46.51q-12.63-4.17-23.39-11.98ZM207.67 286.36c1.31-3.6 1.64-5.57 1.57-9.3q-.01-.53.5-.67 8.93-2.49 16.33-8.05.47-.36.84.09l4.53 5.36a.73.73 0 0 1-.14 1.07q-10.73 7.72-23.28 11.86-.55.18-.35-.36Z"/><path fill="#cc9903" d="M206.8 275.37q.93.61.98 1.73.35 8.32-5.61 14.09-.68.65-1.34-.01-5.9-5.85-5.44-14.3.03-.6.48-.99 5.11-4.33 10.93-.52Z"/></svg>