<?xml version="1.0" encoding="utf-8"?>
<!-- Generator: Adobe Illustrator 26.0.3, SVG Export Plug-In . SVG Version: 6.00 Build 0)  -->
<svg version="1.0" id="katman_1" xmlns="http://www.w3.org/2000/svg" xmlns:xlink="http://www.w3.org/1999/xlink" x="0px" y="0px"
	 viewBox="0 0 177.5 136" style="enable-background:new 0 0 177.5 136;" xml:space="preserve">
<style type="text/css">
	.st0{clip-path:url(#SVGID_00000055698109841835268080000017057654483095979678_);}
	.st1{fill:#FFFFFF;}
	.st2{fill-rule:evenodd;clip-rule:evenodd;}
	.st3{fill:#B0B7BC;}
</style>
<g>
	<defs>
		<rect id="SVGID_1_" x="40.8" y="20" width="95.2" height="96"/>
	</defs>
	<clipPath id="SVGID_00000031175443850130701860000002000363580352403632_">
		<use xlink:href="#SVGID_1_"  style="overflow:visible;"/>
	</clipPath>
	<g style="clip-path:url(#SVGID_00000031175443850130701860000002000363580352403632_);">
		<path class="st1" d="M40.8,68.1c0,26.5,21.4,48.1,47.7,48.1c26.3,0,47.7-21.6,47.7-48.1C136,41.6,114.7,20,88.4,20
			C62.2,20,40.8,41.6,40.8,68.1z"/>
		<path class="st1" d="M88.4,110.3c-11.7,0-22.4-4.9-30.1-12.8c0-0.8,0-1.6,0-2.3c0-4.2,0.3-8.1,0.9-12.2c0.6-4.6,2-9.9,3.1-13.7
			c0.8-2.7-0.1-4.8-0.3-5.9L62,62.8l-0.1-0.4c-0.6-1.7-1-2.7-1.4-3.4c-0.9-1.6-1.5-2.8-2.1-5c-0.1-0.6-0.2-1.2-0.2-1.8
			c0-2.1,0.9-3,0.9-3.1c0.1-0.1,0.2-0.2,0.2-0.2l0.2-0.3c0.4-0.7,2-1.6,3.6-1.1l2.2,0.6c2.6,0.8,5.5,1.8,7.6,0
			c3.6-2.7,5.5-3.5,9.9-3.5c1.2,0,2.1,0.3,3,0.6l2.3,0.7l0.3,0.1h0.5l0.3-0.1l2.3-0.7c0.9-0.3,1.8-0.6,3-0.6c4.3,0,6.2,0.8,9.9,3.5
			c2.3,1.7,5.1,0.7,7.6,0l2.2-0.6c1.6-0.4,3.1,0.4,3.6,1.1l0.2,0.3c0,0,0.1,0.1,0.2,0.2c0,0,0.9,1,0.9,3.1c0,0.5-0.1,1.1-0.2,1.8
			c-0.5,2.2-1.1,3.4-2.1,5c-0.4,0.7-0.9,1.8-1.4,3.4l-0.3,0.9c-0.8,2.5-0.2,4.4,0.8,6.6c1.4,3.2,2.7,9,2.8,10
			c0.1,1.1,0.8,1.6,0.8,1.6c1.5,1.1,3.1,2.4,4.5,3.5c0.5,0.4,1.2,0.9,2.2,1.8C119,100.7,104.8,110.3,88.4,110.3z"/>
		<path d="M80.8,65.2c-3.7,7.8-4.6,10.5-2.2,14.2c1.1,1.7,0.7,3.5,2.3,5.2c2.8,3,5.1,1.5,5.1,1.5s-4.5-0.8-4.7-4.4
			c-0.1-1.7-0.8-2.8-1.5-4.3c-0.8-1.5-0.9-3.9,0.1-6.6C80.8,68.7,85.1,55.9,80.8,65.2z"/>
		<path d="M97,70.9c1,2.7,0.9,5.1,0.2,6.5c-0.7,1.5-1.4,2.6-1.5,4.3c-0.1,3.6-4.7,4.4-4.7,4.4s2.4,1.5,5.1-1.5
			c1.4-1.6,1.1-3.4,2.3-5.2c2.5-3.7,1.5-6.4-2.2-14.2C91.7,55.9,96.1,68.7,97,70.9z"/>
		<path d="M93.8,82.2c-0.2-0.2-0.9-0.7-2-0.7c-0.7,0-1.8,0-2.6,0.1v-1.8c0.5,0,1.1-0.1,1.9-0.2c1.4-0.3,2.6-2,2.8-4.5
			c0.1-1.7-1.4-3.7-2-4c-1-0.6-3.2-0.6-3.8-0.6c-0.6,0-2.8-0.1-3.8,0.6c-0.5,0.3-2.1,2.4-2,4c0.2,2.5,1.3,4.3,2.8,4.5
			c0.8,0.2,1.6,0.2,2.2,0.2l-0.1,1.8c-0.8,0-1.9-0.1-2.5-0.1c-1,0-1.8,0.5-2,0.7c-0.4,0.3-0.3,0.5,0.4,0.6c0.7,0.1,4.9,0.1,4.9,0.1
			s4.2,0,4.9-0.1C94.1,82.7,94.2,82.5,93.8,82.2z"/>
		<path class="st2" d="M66.7,80.5c-0.2,0-0.2,1.6,1,4.3c1.9,4,4.7,6.3,8.4,7.7c4.1,1.6,9.6,1.8,9.7,1.5c0.1-0.4-3.3-1-7.8-4.7
			c-2.7-2.2-2.6-4.4-3-4.5c-1.3-0.1,0,3.5-1.3,3.1c-2.2-0.6-4.9-4-5.8-5.6C67,80.7,66.9,80.5,66.7,80.5z"/>
		<path class="st2" d="M103.2,96.4c2.3-2.4,4.4-5.5,3.7-5.9c-1-0.6-2.6,1.7-8.1,3c-3.8,0.9-8.6,0.7-7.8,0.4c0.8-0.3,3.3-0.6,7.2-3.4
			c3-2.2,4.5-5.9,4.9-6.3c0.8-0.7,0.9,3.5-1.4,5.9c3-1,5.7-3.9,7.3-7.9c1.6-3.8,1.8-8.8,2.2-9.1c0.4-0.2,2,4.3,0,9.9
			c-0.9,2.7-2,4-2,4s0.7,0.1,2.1-0.9c2.7-2.1,3.3-5,3.3-2.9c0,1.5-0.5,4.4-4.9,10.5c-3.8,5.1-10.1,7.7-10.6,7.1
			C98.8,100.2,101,98.7,103.2,96.4z"/>
		<path d="M63.7,56c0,0,1.2-2.4,1.8-2.8c0.5-0.4-2.6-2.8-3.5-2.7c-0.9,0.1-0.9,0.9,0.2,2.3C63.2,54.2,63.7,56,63.7,56z"/>
		<path d="M77.3,57.4c0.4,0,0.5,1.1,1.8,1.9c1.2,0.7,1.2,1.7-0.4,1.8c-1.6,0-4.7,0-4.7-0.8s0.2-1.7,1.2-2.2
			C76.1,57.4,76.9,57.4,77.3,57.4z"/>
		<path d="M113.1,56c0,0-1.2-2.4-1.8-2.8c-0.5-0.4,2.6-2.8,3.5-2.7c0.9,0.1,0.9,0.9-0.2,2.3C113.7,54.2,113.1,56,113.1,56z"/>
		<path d="M99.5,57.4c-0.4,0-0.5,1.1-1.8,1.9c-1.2,0.7-1.2,1.7,0.4,1.8c1.6,0,4.7,0,4.7-0.8s-0.2-1.7-1.2-2.2
			C100.7,57.4,99.9,57.4,99.5,57.4z"/>
		<path d="M88.4,21.6c-25.4,0-46.1,20.9-46.1,46.5c0,25.5,20.7,46.4,46.1,46.4c25.3,0,46-20.9,46-46.4
			C134.5,42.4,113.8,21.6,88.4,21.6z M88.4,25.7c23.1,0,41.9,19,41.9,42.3c0,5.6-1.1,11-3.1,15.9c-2.4-1.8-4.3-3.1-5.9-4.2l-0.1-0.3
			c-0.7-3.8-1.3-6.2-2.7-9.3c-1-2.4-1.5-4.4-0.7-6.8c0.5-1.3,0.9-2.3,1.2-2.8c1-1.8,1.9-3.2,2.4-5.9c0.2-0.8,0.2-1.7,0.2-2.4
			c0-2.9-1.2-4.7-1.9-5.2c-1.1-1.7-3.9-3.1-6.7-2.4l-2.4,0.7c-2,0.6-4,1.2-5,0.5c-3.9-2.9-6.4-4.2-11.6-4.2c-1.8,0-2.9,0.4-3.9,0.7
			c0,0-1.8,0.4-1.9,0.5c-0.2-0.1-1.9-0.5-1.9-0.5c-1-0.3-2.2-0.7-3.9-0.7c-5.3-0.1-7.7,1.1-11.6,4.2c-1,0.7-3.1,0.1-5-0.5l-2.4-0.7
			c-2.8-0.6-5.7,0.7-6.7,2.4c-0.6,0.5-1.9,2.3-1.9,5.2c0,0.7,0.1,1.5,0.2,2.4c0.5,2.7,1.3,4.2,2.4,5.9c0.3,0.5,0.7,1.5,1.2,2.8
			c0.3,1,1.2,2.9,0.5,5.2c-1.1,3.9-2.6,9.3-3.2,14.2c-0.5,3.6-0.7,7.1-0.9,11.4c-5.6-7.2-9-16.2-9-26C46.4,44.7,65.3,25.7,88.4,25.7
			z M88.4,110.3c-11.7,0-22.4-4.9-30.1-12.8c0-0.8,0-1.6,0-2.3c0-4.2,0.3-8.1,0.9-12.2c0.6-4.6,2-9.9,3.1-13.7
			c0.8-2.7-0.1-4.8-0.3-5.9L62,62.8l-0.1-0.4c-0.6-1.7-1-2.7-1.4-3.4c-0.9-1.6-1.5-2.8-2.1-5c-0.1-0.6-0.2-1.2-0.2-1.8
			c0-2.1,0.9-3,0.9-3.1c0.1-0.1,0.2-0.2,0.2-0.2l0.2-0.3c0.4-0.7,2-1.6,3.6-1.1l2.2,0.6c2.6,0.8,5.5,1.8,7.6,0
			c3.6-2.7,5.5-3.5,9.9-3.5c1.2,0,2.1,0.3,3,0.6l2.3,0.7l0.3,0.1h0.5l0.3-0.1l2.3-0.7c0.9-0.3,1.8-0.6,3-0.6c4.3,0,6.2,0.8,9.9,3.5
			c2.3,1.7,5.1,0.7,7.6,0l2.2-0.6c1.6-0.4,3.1,0.4,3.6,1.1l0.2,0.3c0,0,0.1,0.1,0.2,0.2c0,0,0.9,1,0.9,3.1c0,0.5-0.1,1.1-0.2,1.8
			c-0.5,2.2-1.1,3.4-2.1,5c-0.4,0.7-0.9,1.8-1.4,3.4l-0.3,0.9c-0.8,2.5-0.2,4.4,0.8,6.6c1.4,3.2,2.7,9,2.8,10
			c0.1,1.1,0.8,1.6,0.8,1.6c1.5,1.1,3.1,2.4,4.5,3.5c0.5,0.4,1.2,0.9,2.2,1.8C119,100.7,104.8,110.3,88.4,110.3z"/>
		<path class="st3" d="M88.4,25.7c23.1,0,41.9,19,41.9,42.3c0,5.6-1.1,11-3.1,15.9c-2.4-1.8-4.3-3.1-5.9-4.2l-0.1-0.3
			c-0.7-3.8-1.3-6.2-2.7-9.3c-1-2.4-1.5-4.4-0.7-6.8c0.5-1.3,0.9-2.3,1.2-2.8c1-1.8,1.9-3.2,2.4-5.9c0.2-0.8,0.2-1.7,0.2-2.4
			c0-2.9-1.2-4.7-1.9-5.2c-1.1-1.7-3.9-3.1-6.7-2.4l-2.4,0.7c-2,0.6-4,1.2-5,0.5c-3.9-2.9-6.4-4.2-11.6-4.2c-1.8,0-2.9,0.4-3.9,0.7
			c0,0-1.8,0.4-1.9,0.5c-0.2-0.1-1.9-0.5-1.9-0.5c-1-0.3-2.2-0.7-3.9-0.7c-5.3-0.1-7.7,1.1-11.6,4.2c-1,0.7-3.1,0.1-5-0.5l-2.4-0.7
			c-2.8-0.6-5.7,0.7-6.7,2.4c-0.6,0.5-1.9,2.3-1.9,5.2c0,0.7,0.1,1.5,0.2,2.4c0.5,2.7,1.3,4.2,2.4,5.9c0.3,0.5,0.7,1.5,1.2,2.8
			c0.3,1,1.2,2.9,0.5,5.2c-1.1,3.9-2.6,9.3-3.2,14.2c-0.5,3.6-0.7,7.1-0.9,11.4c-5.6-7.2-9-16.2-9-26C46.4,44.7,65.3,25.7,88.4,25.7
			z"/>
		<path class="st1" d="M113.2,110.9h1.4v0.4h-0.5v1.6h-0.5v-1.6h-0.5v-0.4H113.2z"/>
		<path class="st1" d="M117.1,110.9v1.9h-0.4v-1.3v-0.2v0.1c0,0.1,0,0.1,0,0.2l-0.3,1.2h-0.4l-0.3-1.2l-0.1-0.3c0,0.1,0,0.2,0,0.4
			v1.2h-0.6V111h0.7l0.3,1l0.1,0.3c0-0.1,0-0.1,0-0.2l0.3-1.1h0.7V110.9z"/>
	</g>
</g>
</svg>
