<svg xmlns="http://www.w3.org/2000/svg" viewBox="0 0 300 300"><path fill="#ffc559" d="M150 276.04l.27.01c-.09 0-.18 0-.27-.01zm0-249.99h.27-.27zM150.27 276.05h.27-.27zm0-250c.09 0 .18 0 .27.01s-.27-.01-.27-.01zM242.38 240.41a932.904 932.904 0 00-32.95-34.21 941.047 941.047 0 00-34.64-32.5 945.833 945.833 0 00-36.23-30.71 951.594 951.594 0 00-26.9-20.87c4.4-4.65 8.8-9.29 13.2-13.94l12.3-12.99c2.21-2.34-1.32-5.88-3.54-3.54-8.67 9.16-17.34 18.31-26.01 27.47-2.31-1.71-4.61-3.42-6.94-5.1a947.194 947.194 0 00-37.99-26.16c16.26-1.1 32.65-.29 48.71 2.53 5.25.92 10.46 2.06 15.63 3.39 3.12.79 4.45-4.02 1.33-4.82-21.45-5.42-43.86-10.95-66.15-8.36-6.2.72-12.3 2.03-18.19 4.12-1.56.55-2.29 2.17-1.49 3.67 8.99 17 17.99 33.99 26.98 50.99 2.56 4.84 5.12 9.67 7.67 14.51.74 1.4 2.85 1.64 3.93.51 9.04-9.54 18.07-19.08 27.11-28.62 7.63 5.7 15.18 11.49 22.63 17.42a946.02 946.02 0 0136.24 30.35 948.385 948.385 0 0134.67 32.14 932.733 932.733 0 0133.16 34l3.93 4.26c2.18 2.38 5.71-1.17 3.54-3.54zM89.88 137.86c-3.32 3.51-6.64 7.01-9.96 10.52-8.47-16-16.93-32-25.4-48l-6.24-11.79c1.59-.49 3.2-.93 4.81-1.31.2.33.48.64.88.89a942.22 942.22 0 0139.12 26.53c3.72 2.66 7.41 5.35 11.08 8.07-4.77 5.03-9.53 10.07-14.3 15.1z"></path></svg>