<svg xmlns="http://www.w3.org/2000/svg" viewBox="0 0 600 600"><path fill="#ffc559" d="M513.73 291.87c-11.23-.24-22.47-.44-33.7-.6.69-1.27.86-2.83.56-4.31 10.32.05 20.64.12 30.96.26 7.73.1 6.96-11.84-.72-11.98-14.78-.26-29.56-.46-44.34-.59.11-3.18-2.03-6.66-6.14-6.76-10.23-.27-20.46-.48-30.7-.63-1.02-.99-2.45-1.63-4.27-1.59-33.17.56-66.34 1.11-99.52 1.67.16-1.41-.14-2.81-.96-3.9-.98-1.64-2.75-2.87-5.27-2.95-2.49-.08-4.98-.13-7.47-.19-61.87-7.11-123.96 1.5-185.26 10.38-3.37.49-5.14 2.94-5.39 5.5-2.11.4-4.23.79-6.34 1.21-1.49.29-2.59 1.36-3.26 2.7-9.08.7-18.16 1.38-27.25 2.03-7.71.56-7 12.21.72 11.98 2.53-.08 5.05-.17 7.58-.26.17.28.36.55.58.8a1997.74 1997.74 0 00-42.36 4.31c-7.7.86-7.01 11.95.72 11.98l13.21.05c.99.8 2.31 1.3 3.93 1.27 2.54-.05 5.08-.1 7.63-.14.99 1.52 2.71 2.55 5.16 2.38 5.55-.39 11.1-.77 16.65-1.14.37.07.76.12 1.18.13l271.53 5.91 12.78 1.2c-3 1.56-3.95 5.64-2.44 8.46.4 1.94 1.83 3.54 4.52 3.79 3.68.35 7.37.69 11.05 1.04 30.09 5.03 60.5 7.86 91.01 8.51 5.7.12 7.23-8.13 3.37-10.95 6.97.33 13.93.72 20.89 1.19 6.04.41 7.39-9.1 2.61-11.39 3.33-2.91 2.81-10.11-2.53-10.65 1.66-1.63 2.23-4.39 1.58-6.68h.44c7.79-.15 6.91-11.81-.72-11.98z"></path><path fill="#191a25" d="M84.7 291.91a206.65 206.65 0 0153.29-7.07l-.4-2.95c-19.54 5.97-39.53 10.36-59.79 13.05l.4 2.95c62.41-8.94 125-16.54 187.73-22.77 17.62-1.75 35.24-3.4 52.88-4.94 1.9-.17 1.94-3.13 0-3-59.19 4-118.07 11.51-176.79 19.82-16.79 2.38-33.58 4.82-50.36 7.26l.8 2.89c38.09-6.11 76.39-10.89 114.82-14.33 38.22-3.42 76.55-5.5 114.91-6.26 21.67-.43 43.36-.42 65.03 0v-3c-45.43 5.39-90.86 10.79-136.29 16.18-45.43 5.39-90.86 10.79-136.29 16.18-25.66 3.05-51.33 6.09-76.99 9.14-1.87.22-1.97 3.11 0 3 58.21-3.24 116.41-6.49 174.62-9.73 57.86-3.23 115.71-6.45 173.57-9.68 32.76-1.83 65.53-3.65 98.29-5.48 1.91-.11 1.94-3.06 0-3-54.13 1.55-108.23 3.91-162.29 7.14-53.88 3.22-107.71 7.3-161.45 12.27-30.24 2.8-60.46 5.88-90.64 9.25-1.89.21-1.94 3.18 0 3A4677.783 4677.783 0 01394.5 302.8c30.58-.73 61.17-1.15 91.76-1.28 1.93 0 1.93-2.96 0-3a2401 2401 0 00-171.6 2.73c-56.8 2.94-113.49 7.9-169.94 14.88-31.61 3.91-63.13 8.44-94.56 13.59-1.92.31-1.08 3.16.8 2.89 55.81-7.86 111.83-14.1 167.94-19.35 55.92-5.23 111.92-9.48 167.95-13.38 31.47-2.19 62.95-4.27 94.43-6.34 1.93-.13 1.92-2.85 0-3a1291.13 1291.13 0 00-148.25-2.96c-48.88 1.84-97.65 6.47-146 13.84a1292.33 1292.33 0 00-81.91 15.21c-1.63.36-1.3 3.06.4 2.95 51.09-3.5 102.22-6.34 153.39-8.49 51.16-2.16 102.35-3.64 153.56-4.44 28.91-.45 57.82-.69 86.74-.72 1.95 0 1.9-2.85 0-3-59.69-4.74-119.6-6.55-179.46-5.4-60.03 1.15-120.01 5.27-179.63 12.33-33.26 3.94-66.41 8.8-99.4 14.55-1.92.34-1.07 3.15.8 2.89 64.12-8.87 128.3-17.43 192.67-24.29 63.73-6.8 127.67-11.93 191.75-14.03 36-1.18 72.03-1.38 108.03-.41 1.93.05 1.93-2.94 0-3-44.78-1.48-89.62-1.06-134.36 1.3-44.53 2.35-88.96 6.61-133.13 12.75-25.07 3.48-50.05 7.58-74.92 12.28-1.66.31-1.28 3.01.4 2.95l129.41-5.16c42.96-1.71 85.92-3.42 128.88-5.14 24.27-.97 48.55-1.94 72.82-2.9 1.61-.06 2.14-2.63.4-2.95-22.91-4.19-46.45-3.61-69.11 1.76-1.75.41-1.2 2.8.4 2.95 22.22 2.05 44.44 4.11 66.65 6.16v-3c-20.19 1.73-40.39 3.45-60.58 5.18-1.9.16-1.96 2.98 0 3 24.03.23 48.07.47 72.1.7 1.93.02 1.93-2.94 0-3-16.26-.47-32.52-.93-48.78-1.4v3c26.03-2.07 52.16-2.63 78.26-1.69v-3c-35.57 1.97-71.14 3.95-106.72 5.92-1.98.11-1.87 2.75 0 3 30.49 3.99 61.3 5.19 92.01 3.58 1.92-.1 1.94-2.98 0-3l-41.69-.48v3c11.13-.92 22.25-.05 33.09 2.65 1.87.47 2.67-2.43.8-2.89-11.09-2.75-22.5-3.69-33.89-2.75-1.9.16-1.96 2.98 0 3l41.69.48v-3c-30.71 1.61-61.52.41-92.01-3.58v3c35.57-1.97 71.14-3.95 106.72-5.92 1.92-.11 1.94-2.93 0-3-26.1-.94-52.23-.38-78.26 1.69-1.9.15-1.95 2.94 0 3 16.26.47 32.52.93 48.78 1.4v-3c-24.03-.23-48.07-.47-72.1-.7v3c20.19-1.73 40.39-3.45 60.58-5.18 1.93-.17 1.93-2.82 0-3-22.22-2.05-44.44-4.11-66.65-6.16l.4 2.95c22.12-5.24 45.15-5.86 67.52-1.76l.4-2.95-129.41 5.16c-42.96 1.71-85.92 3.42-128.88 5.14-24.27.97-48.55 1.94-72.82 2.9l.4 2.95c44.06-8.31 88.48-14.75 133.09-19.24 44.24-4.45 88.66-7.02 133.12-7.68 25.13-.38 50.28-.14 75.4.7v-3c-64.4-1.74-128.85.33-193.1 4.87-64.34 4.55-128.49 11.55-192.48 19.62-35.92 4.53-71.8 9.39-107.67 14.35l.8 2.89c59.19-10.32 118.88-17.72 178.8-22.15s118.95-5.86 178.46-4.43c33.52.81 67.01 2.55 100.44 5.2v-3c-51.21.05-102.42.76-153.61 2.15-51.19 1.39-102.36 3.46-153.5 6.21-28.87 1.55-57.73 3.32-86.58 5.29l.4 2.95c48.18-10.56 96.95-18.37 146.03-23.33 48.7-4.92 97.68-7.07 146.62-6.42 27.61.36 55.19 1.63 82.72 3.76v-3c-56.39 3.72-112.78 7.44-169.12 11.8-56.15 4.35-112.27 9.33-168.24 15.59-31.3 3.5-62.56 7.4-93.75 11.79l.8 2.89a2393.86 2393.86 0 01169.84-21.66c56.3-5.14 112.77-8.28 169.29-9.43 32.05-.65 64.11-.65 96.16-.01v-3c-54.23.23-108.45 1.39-162.64 3.5-54.19 2.11-108.34 5.16-162.42 9.16-30.51 2.25-60.99 4.81-91.45 7.66v3c53.81-6.01 107.73-11.1 161.71-15.31a5100.4 5100.4 0 01161.61-9.98c30.34-1.39 60.69-2.51 91.05-3.38v-3c-58.21 3.24-116.41 6.49-174.62 9.73-57.86 3.23-115.71 6.45-173.57 9.68-32.76 1.83-65.53 3.65-98.29 5.48v3c45.43-5.39 90.86-10.79 136.29-16.18 45.43-5.39 90.86-10.79 136.29-16.18 25.66-3.05 51.33-6.09 76.99-9.14 1.87-.22 1.98-2.96 0-3-38.71-.75-77.43-.16-116.1 1.8s-76.91 5.24-115.17 9.86c-21.48 2.6-42.92 5.62-64.28 9.04-1.91.31-1.08 3.17.8 2.89 58.77-8.54 117.58-17.09 176.7-22.85 16.53-1.61 33.08-3 49.65-4.12v-3c-63.11 5.51-126.1 12.38-188.91 20.61-17.51 2.3-35.01 4.7-52.5 7.2-1.65.24-1.28 3.17.4 2.95 20.53-2.74 40.78-7.11 60.58-13.16 1.6-.49 1.33-2.95-.4-2.95-18.26.03-36.45 2.44-54.09 7.18-1.86.5-1.07 3.4.8 2.89z"></path></svg>