<svg xmlns="http://www.w3.org/2000/svg" viewBox="0 0 600 600"><path fill="#191a25" d="M90.85 288.39c55.46 4.2 111.11 4.55 166.7 4.53 55.28-.03 110.6-.43 165.83 2.27 31.09 1.52 62.13 4.03 92.99 8.11v-3c-58.32-3.92-116.69-6.92-175.1-9s-116.85-3.24-175.3-3.48c-32.8-.14-65.61.02-98.4.47-1.98.03-1.87 2.78 0 3 54.72 6.59 109.9 7.93 164.97 7.54 55.22-.39 110.42-2.49 165.64-2.69 15.34-.06 30.69.04 46.03.35 14.9.31 30.3.1 44.52 5.18 1.82.65 2.61-2.25.8-2.89-12.26-4.38-25.36-4.8-38.24-5.12-13.86-.35-27.73-.5-41.6-.53-27.76-.04-55.52.46-83.27 1.05-55.3 1.17-110.63 2.68-165.93.9-31.05-1-62.08-3.07-92.93-6.78v3c58.44-.79 116.9-.67 175.34.38s116.86 3.02 175.24 5.91c32.76 1.62 65.51 3.53 98.24 5.73 1.97.13 1.86-2.75 0-3-55.06-7.27-110.62-9.52-166.11-10.16s-110.67.28-166-.68c-31.17-.54-62.33-1.7-93.41-4.05-1.93-.15-1.92 2.86 0 3z"></path><path fill="#191a25" d="M491.13 304c11.55-1.18 23.09-2.36 34.64-3.55 1.9-.19 1.92-3.2 0-3-11.55 1.18-23.09 2.36-34.64 3.55-1.9.19-1.92 3.2 0 3zM74.84 285.5c10.4 7.72 23.2 10.64 35.84 12.17 14.75 1.79 29.68 2.45 44.52 3.03 31.25 1.23 62.55 1.3 93.82 1.71 31.18.41 62.36.87 93.54 1.65s62.31 1.9 93.43 3.62 62.49 4.06 93.63 7.28c3.82.39 7.63.8 11.45 1.22 1.66.18 2.07-2.71.4-2.95-59.18-8.28-118.38-16.56-177.89-22.07-59.56-5.52-119.47-8.21-179.26-5.33-33.55 1.61-67 4.79-100.43 7.96-1.91.18-1.92 3.18 0 3 29.75-2.83 59.52-5.65 89.36-7.38 29.74-1.72 59.53-2.15 89.31-1.42 59.55 1.46 118.91 7.27 178 14.63 33.42 4.16 66.77 8.83 100.12 13.5l.4-2.95c-30.82-3.4-61.73-5.91-92.67-7.79-30.96-1.87-61.95-3.11-92.95-3.99-30.86-.87-61.74-1.39-92.61-1.81-30.98-.43-61.98-.56-92.95-1.41-15.46-.42-30.91-1.09-46.33-2.3-13.2-1.03-27.02-2.2-39.11-8.06a50.715 50.715 0 01-8.1-4.92c-1.55-1.15-3.05 1.45-1.51 2.59z"></path><path fill="#191a25" d="M70.49 294.1c26.97 8.91 55.43 11.81 83.71 12.39s58.71-.79 88.03-1.49c30.26-.72 60.52-1.28 90.79-1.26 30.38.02 60.77.61 91.12 2.2 15.09.79 30.17 1.82 45.22 3.15s29.99 2.51 44.68 5.55c3.56.74 7.08 1.6 10.57 2.61l.8-2.89c-48.69-9.91-97.91-17.21-147.38-21.86-49.63-4.66-99.51-6.65-149.36-5.94-27.94.4-55.86 1.65-83.72 3.73-1.96.15-1.9 2.78 0 3 22.46 2.59 45.09 2.05 67.64 1.45 22.51-.6 45.01-.82 67.53-.33 44.98.97 89.9 4.35 134.52 10.13 25.4 3.29 50.7 7.38 75.86 12.21 1.88.36 2.7-2.48.8-2.89a1506.59 1506.59 0 00-158.61-25.41 1524.89 1524.89 0 00-45.23-4.09v3c30.72 1.63 61.44 3.26 92.12 5.54 30.81 2.29 61.58 5.24 92.18 9.51 17.26 2.41 34.46 5.26 51.56 8.61l.4-2.95c-46.04-4.08-92.07-8.17-138.11-12.25-12.94-1.15-25.88-2.3-38.81-3.44-1.92-.17-1.91 2.83 0 3 46.04 4.08 92.07 8.17 138.11 12.25 12.94 1.15 25.88 2.3 38.81 3.44 1.67.15 2.06-2.62.4-2.95-30.28-5.94-60.86-10.25-91.54-13.51-30.88-3.28-61.86-5.52-92.85-7.38-17.42-1.04-34.85-1.97-52.27-2.89-1.94-.1-1.91 2.86 0 3 53.15 4.02 106.08 10.84 158.51 20.5 14.89 2.74 29.74 5.71 44.54 8.9l.8-2.89c-44.31-8.52-89.07-14.68-134.04-18.41-45.14-3.75-90.47-5.04-135.74-3.93-25.52.62-51.13 1.72-76.56-1.22v3c49.57-3.7 99.32-4.76 149-3.12 49.54 1.63 99 5.91 148.08 12.84 27.67 3.91 55.21 8.66 82.59 14.24 1.88.38 2.67-2.35.8-2.89-14.03-4.05-28.59-5.6-43.08-7.05-15.04-1.5-30.11-2.7-45.19-3.63-30.17-1.87-60.4-2.7-90.63-2.89-30.26-.19-60.53.24-90.78.91-29.71.65-59.44 1.94-89.16 1.93-28.59-.01-57.46-1.73-85.15-9.34-3.4-.93-6.77-1.96-10.11-3.07-1.84-.61-2.63 2.29-.8 2.89z"></path><path fill="#191a25" d="M471.96 307.14c1.93 0 1.93-3 0-3s-1.93 3 0 3zM130.15 290.02l-21.25 5.67c-1.86.5-1.07 3.39.8 2.89l21.25-5.67c1.86-.5 1.07-3.39-.8-2.89z"></path><path fill="#191a25" d="M65.63 310.37l97.14-15.6c9.2-1.48 18.41-2.96 27.61-4.43 1.57-.25 1.27-2.47 0-2.89-7.77-2.59-16.06-2.05-24.11-1.64-8.73.44-17.45.98-26.17 1.61a1251.52 1251.52 0 00-52.21 4.87c-9.8 1.12-19.58 2.37-29.36 3.72-1.66.23-1.28 3.09.4 2.95 17.77-1.55 35.54-2.98 53.33-4.28s35.58-2.47 53.39-3.52c10.1-.59 20.21-1.15 30.31-1.66 1.92-.1 1.94-3.08 0-3a1376.918 1376.918 0 00-80.68 5.9c-1.56.16-2.18 2.56-.4 2.95 9.32 2.01 18.9 2.63 28.4 1.78 1.91-.17 1.93-3.17 0-3-9.24.83-18.53.29-27.6-1.67l-.4 2.95c20.9-2.15 41.85-3.82 62.83-5.01 5.95-.34 11.9-.63 17.85-.89v-3c-17.81.9-35.62 1.93-53.41 3.09a3804.159 3804.159 0 00-83.61 6.37l.4 2.95c17.1-2.37 34.25-4.37 51.44-6.02 17.15-1.65 34.34-2.93 51.55-3.87 9.01-.49 18.54-1.59 27.27 1.32v-2.89l-97.14 15.6c-9.2 1.48-18.41 2.96-27.61 4.43-1.9.31-1.09 3.2.8 2.89z"></path></svg>